<?xml version="1.0" standalone="no"?>
<!DOCTYPE svg PUBLIC "-//W3C//DTD SVG 20010904//EN"
 "http://www.w3.org/TR/2001/REC-SVG-20010904/DTD/svg10.dtd">
<svg version="1.0" xmlns="http://www.w3.org/2000/svg"
 width="1860.000000pt" height="1154.000000pt" viewBox="0 0 1860.000000 1154.000000"
 preserveAspectRatio="xMidYMid meet">

<g transform="translate(0.000000,1154.000000) scale(0.100000,-0.100000)"
fill="#000000" stroke="none">
<path d="M0 9833 c0 -1439 2 -1705 14 -1693 383 414 368 395 451 563 38 78 89
163 124 207 33 41 101 135 152 209 50 73 122 166 159 207 82 90 127 179 145
283 35 197 67 269 136 303 19 9 64 30 101 48 53 24 83 48 147 117 43 47 87
100 97 118 l17 33 -53 93 c-29 52 -82 137 -118 189 -68 99 -106 173 -193 380
-57 134 -65 189 -35 236 19 28 69 33 103 9 12 -8 88 -101 168 -206 163 -211
208 -249 293 -249 56 0 73 9 162 94 56 52 111 90 205 142 145 80 220 109 314
124 35 5 65 11 67 13 2 2 -30 93 -72 203 -42 109 -79 218 -81 242 l-5 42
-1149 0 -1149 0 0 -1707z"/>
<path d="M2440 11534 c0 -13 224 -276 255 -300 19 -14 78 -39 132 -54 54 -16
145 -49 203 -73 58 -24 143 -56 190 -72 113 -37 137 -50 155 -85 23 -45 18
-91 -20 -173 l-34 -76 81 -51 c62 -38 76 -50 58 -50 -15 0 -52 -22 -91 -53
-63 -50 -65 -53 -51 -75 19 -29 25 -28 67 9 l35 31 0 -166 0 -166 40 0 40 0 0
206 c0 161 3 205 13 201 337 -143 641 -240 892 -286 136 -24 164 -28 400 -46
398 -32 815 -15 1520 60 378 40 698 51 1110 37 521 -18 853 -47 1370 -117 287
-39 452 -59 615 -74 63 -6 138 -14 166 -17 l51 -5 -32 -32 c-82 -82 -66 -325
25 -372 16 -8 50 -15 76 -15 39 0 51 5 79 33 39 39 55 89 55 177 0 82 -14 131
-48 171 l-26 32 125 -7 c70 -4 304 -11 520 -17 217 -5 428 -13 469 -18 41 -5
161 -19 265 -31 174 -21 203 -22 350 -12 293 21 529 42 645 57 84 11 879 85
913 85 2 0 -10 -16 -28 -35 -38 -40 -49 -84 -47 -194 2 -87 29 -154 73 -176
36 -19 102 -19 139 0 52 27 65 66 65 195 0 134 -14 171 -78 200 l-39 18 84 6
c141 12 333 24 335 22 1 -1 -26 -24 -61 -51 -61 -48 -63 -51 -48 -72 19 -30
24 -29 67 8 l35 31 0 -166 0 -166 40 0 40 0 0 209 0 210 43 5 c23 3 130 10
237 16 500 28 999 80 1365 140 243 40 453 60 625 60 l95 -1 -39 -32 c-22 -18
-49 -40 -60 -49 l-21 -17 22 -22 21 -22 41 32 41 33 0 -166 0 -166 40 0 40 0
0 200 0 200 98 0 c118 0 302 -17 397 -36 95 -19 275 -67 275 -74 0 -3 -29 -28
-64 -55 -61 -48 -63 -51 -48 -72 19 -30 24 -29 67 8 l35 31 0 -166 0 -166 40
0 40 0 0 200 c0 110 2 200 4 200 15 0 227 -79 324 -121 200 -86 365 -192 552
-354 301 -263 485 -521 594 -835 94 -270 117 -433 135 -985 11 -322 -3 -2187
-16 -2250 l-9 -40 -7 42 c-19 111 -158 157 -232 77 -64 -70 -58 -290 11 -355
22 -20 36 -24 89 -24 54 0 67 4 90 25 l27 25 -6 -40 c-3 -22 -7 -168 -8 -325
l-3 -285 38 -115 c21 -63 51 -142 66 -175 l29 -60 1 3513 1 3512 -8080 0
c-4444 0 -8080 -3 -8080 -6z m10715 -1424 c14 -15 20 -42 23 -104 7 -132 -27
-199 -83 -162 -30 20 -38 61 -34 165 3 60 9 84 23 100 24 26 48 27 71 1z
m-3418 -57 c14 -21 18 -48 18 -123 0 -101 -11 -134 -46 -145 -34 -11 -62 25
-69 90 -9 80 4 176 26 192 28 20 52 15 71 -14z m8656 -4245 c23 -17 39 -116
30 -187 -6 -53 -36 -101 -63 -101 -41 0 -69 100 -56 203 12 85 45 117 89 85z"/>
<path d="M2569 11007 c-63 -50 -65 -53 -51 -75 19 -29 25 -28 67 9 l35 31 0
-166 0 -166 40 0 40 0 0 210 0 210 -32 0 c-25 0 -50 -14 -99 -53z"/>
<path d="M2990 11029 c-70 -15 -100 -81 -100 -214 1 -133 48 -205 137 -205
102 0 146 64 146 210 0 162 -64 236 -183 209z m76 -80 c14 -16 20 -40 23 -100
4 -104 -4 -145 -34 -165 -56 -37 -90 30 -83 162 3 62 9 89 23 104 23 26 47 25
71 -1z"/>
<path d="M2190 10779 c-70 -15 -100 -81 -100 -214 1 -133 48 -205 137 -205
102 0 146 64 146 210 0 162 -64 236 -183 209z m76 -80 c14 -16 20 -40 23 -100
4 -104 -4 -145 -34 -165 -56 -37 -90 30 -83 162 3 62 9 89 23 104 23 26 47 25
71 -1z"/>
<path d="M1769 10537 c-63 -50 -65 -53 -51 -75 19 -29 25 -28 67 9 l35 31 0
-166 0 -166 40 0 40 0 0 210 0 210 -32 0 c-25 0 -50 -14 -99 -53z"/>
<path d="M2590 10399 c-70 -15 -100 -81 -100 -214 1 -133 48 -205 137 -205
102 0 146 64 146 210 0 162 -64 236 -183 209z m76 -80 c14 -16 20 -40 23 -100
4 -104 -4 -145 -34 -165 -56 -37 -90 30 -83 162 3 62 9 89 23 104 23 26 47 25
71 -1z"/>
<path d="M16370 10390 c-76 -18 -119 -118 -106 -248 12 -120 59 -172 152 -172
39 0 51 5 79 33 43 43 58 101 53 203 -7 140 -73 207 -178 184z m77 -87 c14
-21 18 -48 18 -123 0 -101 -11 -134 -46 -145 -53 -17 -85 83 -68 210 12 85 60
114 96 58z"/>
<path d="M3790 10379 c-70 -15 -100 -81 -100 -214 1 -133 48 -205 137 -205
102 0 146 64 146 210 0 162 -64 236 -183 209z m76 -80 c14 -16 20 -40 23 -100
4 -104 -4 -145 -34 -165 -56 -37 -90 30 -83 162 3 62 9 89 23 104 23 26 47 25
71 -1z"/>
<path d="M15570 10380 c-76 -18 -119 -118 -106 -248 12 -120 59 -172 152 -172
39 0 51 5 79 33 43 43 58 101 53 203 -7 140 -73 207 -178 184z m77 -87 c14
-21 18 -48 18 -123 -1 -101 -11 -134 -46 -145 -34 -11 -62 25 -69 90 -9 80 4
176 26 192 28 20 52 15 71 -14z"/>
<path d="M2969 10307 c-63 -50 -65 -53 -51 -75 19 -29 25 -28 67 9 l35 31 0
-166 0 -166 40 0 40 0 0 210 0 210 -32 0 c-25 0 -50 -14 -99 -53z"/>
<path d="M6985 10325 c-21 -8 -47 -24 -57 -37 -58 -77 -47 -288 18 -349 22
-20 35 -24 91 -24 60 0 67 2 93 32 53 59 65 226 23 311 -33 65 -97 91 -168 67z
m78 -67 c23 -17 39 -116 30 -187 -6 -53 -36 -101 -63 -101 -41 0 -69 100 -56
203 12 85 45 117 89 85z"/>
<path d="M15145 10279 c-33 -27 -61 -53 -63 -57 -1 -5 6 -17 17 -26 20 -18 21
-17 61 14 l40 32 0 -166 0 -166 40 0 40 0 0 210 0 210 -37 -1 c-30 0 -50 -10
-98 -50z"/>
<path d="M7850 10289 c-70 -15 -100 -81 -100 -214 1 -133 48 -205 137 -205
102 0 146 64 146 210 0 162 -64 236 -183 209z m76 -80 c14 -16 20 -40 23 -100
4 -104 -4 -145 -34 -165 -56 -37 -90 30 -83 162 3 62 9 89 23 104 23 26 47 25
71 -1z"/>
<path d="M6569 10237 c-63 -50 -65 -53 -51 -75 19 -29 25 -28 67 9 l35 31 0
-166 0 -166 40 0 40 0 0 210 0 210 -32 0 c-25 0 -50 -14 -99 -53z"/>
<path d="M7429 10237 c-63 -50 -65 -53 -51 -75 19 -29 25 -28 67 9 l35 31 0
-166 0 -166 40 0 40 0 0 210 0 210 -32 0 c-25 0 -50 -14 -99 -53z"/>
<path d="M14770 10280 c-76 -18 -119 -118 -106 -248 12 -120 59 -172 152 -172
39 0 51 5 79 33 43 43 58 101 53 203 -7 140 -73 207 -178 184z m77 -87 c14
-21 18 -48 18 -123 -1 -101 -11 -134 -46 -145 -34 -11 -62 25 -69 90 -9 80 4
176 26 192 28 20 52 15 71 -14z"/>
<path d="M13920 10229 c-70 -15 -100 -81 -100 -214 1 -133 48 -205 137 -205
102 0 146 64 146 210 0 162 -64 236 -183 209z m76 -80 c14 -16 20 -40 23 -100
4 -104 -4 -145 -34 -165 -56 -37 -90 30 -83 162 3 62 9 89 23 104 23 26 47 25
71 -1z"/>
<path d="M14299 10187 c-63 -50 -65 -53 -51 -75 19 -29 25 -28 67 9 l35 31 0
-166 0 -166 40 0 40 0 0 210 0 210 -32 0 c-25 0 -50 -14 -99 -53z"/>
<path d="M5769 10177 c-63 -50 -65 -53 -51 -75 19 -29 25 -28 67 9 l35 31 0
-166 0 -166 40 0 40 0 0 210 0 210 -32 0 c-25 0 -50 -14 -99 -53z"/>
<path d="M8742 10170 c-75 -18 -105 -79 -104 -218 1 -137 46 -202 141 -202 55
0 87 17 114 59 19 32 22 50 22 151 0 102 -3 119 -23 151 -30 50 -90 73 -150
59z m73 -80 c14 -15 20 -42 23 -104 7 -132 -27 -199 -83 -162 -30 20 -38 61
-34 165 3 60 9 84 23 100 24 26 48 27 71 1z"/>
<path d="M6190 10149 c-70 -15 -100 -81 -100 -214 1 -133 48 -205 137 -205
102 0 146 64 146 210 0 162 -64 236 -183 209z m76 -80 c14 -16 20 -40 23 -100
4 -104 -4 -145 -34 -165 -56 -37 -90 30 -83 162 3 62 9 89 23 104 23 26 47 25
71 -1z"/>
<path d="M4169 10097 c-63 -50 -65 -53 -51 -75 19 -29 25 -28 67 9 l35 31 0
-166 0 -166 40 0 40 0 0 210 0 210 -32 0 c-25 0 -50 -14 -99 -53z"/>
<path d="M5390 10139 c-70 -15 -100 -81 -100 -214 1 -133 48 -205 137 -205
102 0 146 64 146 210 0 162 -64 236 -183 209z m76 -80 c14 -16 20 -40 23 -100
4 -104 -4 -145 -34 -165 -56 -37 -90 30 -83 162 3 62 9 89 23 104 23 26 47 25
71 -1z"/>
<path d="M8275 10099 c-33 -27 -61 -53 -63 -57 -1 -5 6 -17 17 -26 20 -18 21
-17 61 14 l40 32 0 -166 0 -166 40 0 40 0 0 210 0 210 -37 -1 c-30 0 -50 -10
-98 -50z"/>
<path d="M9163 10099 c-35 -28 -63 -54 -63 -58 0 -5 9 -16 20 -26 19 -17 20
-16 52 10 l33 28 3 -162 2 -161 45 0 45 0 0 210 0 210 -37 0 c-30 -1 -51 -11
-100 -51z"/>
<path d="M12625 10099 c-79 -64 -79 -63 -63 -88 17 -27 24 -27 62 5 l31 27 3
-162 2 -161 45 0 45 0 0 210 0 210 -37 0 c-29 -1 -50 -10 -88 -41z"/>
<path d="M4590 10079 c-70 -15 -100 -81 -100 -214 1 -133 48 -205 137 -205
102 0 146 64 146 210 0 162 -64 236 -183 209z m76 -80 c14 -16 20 -40 23 -100
4 -104 -4 -145 -34 -165 -56 -37 -90 30 -83 162 3 62 9 89 23 104 23 26 47 25
71 -1z"/>
<path d="M2169 10027 c-63 -50 -65 -53 -51 -75 19 -29 25 -28 67 9 l35 31 0
-166 0 -166 40 0 40 0 0 210 0 210 -32 0 c-25 0 -50 -14 -99 -53z"/>
<path d="M10123 10009 c-35 -28 -63 -54 -63 -58 0 -5 9 -16 20 -26 19 -17 20
-16 52 10 l33 28 3 -162 2 -161 45 0 45 0 0 210 0 210 -37 0 c-30 -1 -51 -11
-100 -51z"/>
<path d="M10535 10045 c-21 -8 -47 -24 -57 -37 -58 -77 -47 -288 18 -349 22
-20 35 -24 91 -24 60 0 67 2 93 32 53 59 65 226 23 311 -33 65 -97 91 -168 67z
m78 -67 c23 -17 39 -116 30 -187 -6 -53 -36 -101 -63 -101 -41 0 -69 100 -56
203 12 85 45 117 89 85z"/>
<path d="M12192 10050 c-75 -18 -105 -79 -104 -218 1 -137 46 -202 141 -202
55 0 87 17 114 59 19 32 22 50 22 151 0 102 -3 119 -23 151 -30 50 -90 73
-150 59z m73 -80 c14 -15 20 -42 23 -104 7 -132 -27 -199 -83 -162 -30 20 -38
61 -34 165 3 60 9 84 23 100 24 26 48 27 71 1z"/>
<path d="M4969 9997 c-63 -50 -65 -53 -51 -75 19 -29 25 -28 67 9 l35 31 0
-166 0 -166 40 0 40 0 0 210 0 210 -32 0 c-25 0 -50 -14 -99 -53z"/>
<path d="M11390 10020 c-45 -11 -87 -60 -96 -114 -23 -130 7 -260 67 -291 36
-19 102 -19 139 0 52 27 65 66 65 195 0 102 -3 119 -23 151 -31 50 -90 73
-152 59z m75 -80 c14 -15 20 -42 23 -104 7 -132 -27 -199 -83 -162 -30 20 -38
61 -34 165 3 60 9 84 23 100 24 26 48 27 71 1z"/>
<path d="M17210 10019 c-70 -15 -100 -81 -100 -214 1 -133 48 -205 137 -205
102 0 146 64 146 210 0 162 -64 236 -183 209z m76 -80 c14 -16 20 -40 23 -100
4 -104 -4 -145 -34 -165 -56 -37 -90 30 -83 162 3 62 9 89 23 104 23 26 47 25
71 -1z"/>
<path d="M10923 9969 c-35 -28 -63 -54 -63 -58 0 -5 9 -16 20 -26 19 -17 20
-16 52 10 l33 28 3 -162 2 -161 45 0 45 0 0 210 0 210 -37 0 c-30 -1 -51 -11
-100 -51z"/>
<path d="M11769 9969 c-64 -52 -69 -62 -44 -88 13 -13 20 -10 55 18 l40 32 0
-166 0 -165 40 0 40 0 0 210 0 210 -34 0 c-25 0 -49 -12 -97 -51z"/>
<path d="M3390 9979 c-68 -15 -100 -81 -100 -204 0 -93 15 -142 55 -182 28
-28 40 -33 79 -33 105 0 149 63 149 210 0 162 -64 236 -183 209z m76 -80 c14
-16 20 -40 23 -100 4 -104 -4 -145 -34 -165 -56 -37 -90 30 -83 162 3 62 9 89
23 104 23 26 47 25 71 -1z"/>
<path d="M1790 9929 c-70 -15 -100 -81 -100 -214 1 -133 48 -205 137 -205 102
0 146 64 146 210 0 162 -64 236 -183 209z m76 -80 c14 -16 20 -40 23 -100 4
-104 -4 -145 -34 -165 -56 -37 -90 30 -83 162 3 62 9 89 23 104 23 26 47 25
71 -1z"/>
<path d="M1369 9789 c-64 -52 -69 -62 -44 -88 13 -13 20 -10 55 18 l40 32 0
-166 0 -165 40 0 40 0 0 210 0 210 -34 0 c-25 0 -49 -12 -97 -51z"/>
<path d="M15970 9800 c-76 -18 -119 -118 -106 -248 12 -120 59 -172 152 -172
39 0 51 5 79 33 43 43 58 101 53 203 -7 140 -73 207 -178 184z m77 -87 c14
-21 18 -48 18 -123 0 -101 -11 -134 -46 -145 -34 -11 -62 25 -69 90 -9 80 4
176 26 192 28 20 52 15 71 -14z"/>
<path d="M3769 9707 c-63 -50 -65 -53 -51 -75 19 -29 25 -28 67 9 l35 31 0
-166 0 -166 40 0 40 0 0 210 0 210 -32 0 c-25 0 -50 -14 -99 -53z"/>
<path d="M2569 9687 c-63 -50 -65 -53 -51 -75 19 -29 25 -28 67 9 l35 31 0
-166 0 -166 40 0 40 0 0 210 0 210 -32 0 c-25 0 -50 -14 -99 -53z"/>
<path d="M16345 9679 c-33 -27 -61 -53 -63 -57 -1 -5 6 -17 17 -26 20 -18 21
-17 61 14 l40 32 0 -166 0 -166 40 0 40 0 0 210 0 210 -37 -1 c-30 0 -50 -10
-98 -50z"/>
<path d="M2990 9699 c-70 -15 -100 -81 -100 -214 1 -133 48 -205 137 -205 102
0 146 64 146 210 0 162 -64 236 -183 209z m76 -80 c14 -16 20 -40 23 -100 4
-104 -4 -145 -34 -165 -56 -37 -90 30 -83 162 3 62 9 89 23 104 23 26 47 25
71 -1z"/>
<path d="M6985 9669 c-79 -64 -79 -63 -63 -88 17 -27 24 -27 62 5 l31 27 3
-162 2 -161 45 0 45 0 0 210 0 210 -37 0 c-29 -1 -50 -10 -88 -41z"/>
<path d="M15545 9659 c-33 -27 -61 -53 -63 -57 -1 -5 6 -17 17 -26 20 -18 21
-17 61 14 l40 32 0 -166 0 -166 40 0 40 0 0 210 0 210 -37 -1 c-30 0 -50 -10
-98 -50z"/>
<path d="M17569 9637 c-63 -50 -65 -53 -51 -75 19 -29 25 -28 67 9 l35 31 0
-166 0 -166 40 0 40 0 0 210 0 210 -32 0 c-25 0 -50 -14 -99 -53z"/>
<path d="M6590 9669 c-70 -15 -100 -81 -100 -214 1 -133 48 -205 137 -205 102
0 146 64 146 210 0 162 -64 236 -183 209z m76 -80 c14 -16 20 -40 23 -100 4
-104 -4 -145 -34 -165 -56 -37 -90 30 -83 162 3 62 9 89 23 104 23 26 47 25
71 -1z"/>
<path d="M7450 9669 c-70 -15 -100 -81 -100 -214 1 -133 48 -205 137 -205 102
0 146 64 146 210 0 162 -64 236 -183 209z m76 -80 c14 -16 20 -40 23 -100 4
-104 -4 -145 -34 -165 -56 -37 -90 30 -83 162 3 62 9 89 23 104 23 26 47 25
71 -1z"/>
<path d="M15170 9670 c-76 -18 -119 -118 -106 -248 12 -120 59 -172 152 -172
39 0 51 5 79 33 43 43 58 101 53 203 -7 140 -73 207 -178 184z m77 -87 c14
-21 18 -48 18 -123 0 -101 -11 -134 -46 -145 -34 -11 -62 25 -69 90 -9 80 4
176 26 192 28 20 52 15 71 -14z"/>
<path d="M16810 9669 c-70 -15 -100 -81 -100 -214 1 -133 48 -205 137 -205
102 0 146 64 146 210 0 162 -64 236 -183 209z m76 -80 c14 -16 20 -40 23 -100
4 -104 -4 -145 -34 -165 -56 -37 -90 30 -83 162 3 62 9 89 23 104 23 26 47 25
71 -1z"/>
<path d="M7829 9617 c-63 -50 -65 -53 -51 -75 19 -29 25 -28 67 9 l35 31 0
-166 0 -166 40 0 40 0 0 210 0 210 -32 0 c-25 0 -50 -14 -99 -53z"/>
<path d="M14745 9569 c-33 -27 -61 -53 -63 -57 -1 -5 6 -17 17 -26 20 -18 21
-17 61 14 l40 32 0 -166 0 -166 40 0 40 0 0 210 0 210 -37 -1 c-30 0 -50 -10
-98 -50z"/>
<path d="M5790 9569 c-70 -15 -100 -81 -100 -214 1 -133 48 -205 137 -205 102
0 146 64 146 210 0 162 -64 236 -183 209z m76 -80 c14 -16 20 -40 23 -100 4
-104 -4 -145 -34 -165 -56 -37 -90 30 -83 162 3 62 9 89 23 104 23 26 47 25
71 -1z"/>
<path d="M13520 9569 c-70 -15 -100 -81 -100 -214 1 -133 48 -205 137 -205
102 0 146 64 146 210 0 162 -64 236 -183 209z m76 -80 c14 -16 20 -40 23 -100
4 -104 -4 -145 -34 -165 -56 -37 -90 30 -83 162 3 62 9 89 23 104 23 26 47 25
71 -1z"/>
<path d="M14320 9569 c-70 -15 -100 -81 -100 -214 1 -133 48 -205 137 -205
102 0 146 64 146 210 0 162 -64 236 -183 209z m76 -80 c14 -16 20 -40 23 -100
4 -104 -4 -145 -34 -165 -56 -37 -90 30 -83 162 3 62 9 89 23 104 23 26 47 25
71 -1z"/>
<path d="M13899 9517 c-63 -50 -65 -53 -51 -75 19 -29 25 -28 67 9 l35 31 0
-166 0 -166 40 0 40 0 0 210 0 210 -32 0 c-25 0 -50 -14 -99 -53z"/>
<path d="M4190 9539 c-68 -15 -100 -81 -100 -204 0 -93 15 -142 55 -182 28
-28 40 -33 79 -33 105 0 149 63 149 210 0 162 -64 236 -183 209z m76 -80 c14
-16 20 -40 23 -100 4 -104 -4 -145 -34 -165 -56 -37 -90 30 -83 162 3 62 9 89
23 104 23 26 47 25 71 -1z"/>
<path d="M8300 9540 c-76 -18 -119 -118 -106 -248 12 -120 59 -172 152 -172
39 0 51 5 79 33 43 43 58 101 53 203 -7 140 -73 207 -178 184z m77 -87 c14
-21 18 -48 18 -123 -1 -101 -11 -134 -46 -145 -53 -17 -86 84 -69 208 13 87
60 117 97 60z"/>
<path d="M6169 9487 c-63 -50 -65 -53 -51 -75 19 -29 25 -28 67 9 l35 31 0
-166 0 -166 40 0 40 0 0 210 0 210 -32 0 c-25 0 -50 -14 -99 -53z"/>
<path d="M13059 9469 c-64 -52 -69 -62 -44 -88 13 -13 20 -10 55 18 l40 32 0
-166 0 -165 40 0 40 0 0 210 0 210 -34 0 c-25 0 -49 -12 -97 -51z"/>
<path d="M8719 9459 c-64 -52 -69 -62 -44 -88 13 -13 20 -10 55 18 l40 32 0
-166 0 -165 40 0 40 0 0 210 0 210 -34 0 c-25 0 -49 -12 -97 -51z"/>
<path d="M9175 9485 c-21 -8 -47 -24 -57 -37 -58 -77 -47 -288 18 -349 22 -20
35 -24 91 -24 60 0 67 2 93 32 53 59 65 226 23 311 -33 65 -97 91 -168 67z
m78 -67 c22 -17 39 -116 30 -186 -7 -67 -38 -108 -71 -98 -36 12 -47 44 -47
146 0 75 4 102 18 123 19 29 43 34 70 15z"/>
<path d="M12625 9475 c-21 -8 -47 -24 -57 -37 -58 -77 -47 -288 18 -349 22
-20 35 -24 91 -24 60 0 67 2 93 32 53 59 65 226 23 311 -33 65 -97 91 -168 67z
m78 -67 c23 -17 39 -116 30 -187 -6 -53 -36 -101 -63 -101 -41 0 -69 100 -56
203 12 85 45 117 89 85z"/>
<path d="M5369 9427 c-63 -50 -65 -53 -51 -75 19 -29 25 -28 67 9 l35 31 0
-166 0 -166 40 0 40 0 0 210 0 210 -32 0 c-25 0 -50 -14 -99 -53z"/>
<path d="M9635 9429 c-33 -27 -61 -53 -63 -57 -1 -5 6 -17 17 -26 20 -18 21
-17 61 14 l40 32 0 -166 0 -166 40 0 40 0 0 210 0 210 -37 -1 c-30 0 -50 -10
-98 -50z"/>
<path d="M4990 9439 c-70 -15 -100 -81 -100 -214 1 -133 48 -205 137 -205 102
0 146 64 146 210 0 162 -64 236 -183 209z m76 -80 c14 -16 20 -40 23 -100 4
-104 -4 -145 -34 -165 -56 -37 -90 30 -83 162 3 62 9 89 23 104 23 26 47 25
71 -1z"/>
<path d="M4569 9367 c-63 -50 -65 -53 -51 -75 19 -29 25 -28 67 9 l35 31 0
-166 0 -166 40 0 40 0 0 210 0 210 -32 0 c-25 0 -50 -14 -99 -53z"/>
<path d="M10135 9385 c-21 -8 -47 -24 -57 -37 -58 -77 -47 -288 18 -349 22
-20 35 -24 91 -24 60 0 67 2 93 32 53 59 65 226 23 311 -33 65 -97 91 -168 67z
m78 -67 c23 -17 39 -116 30 -187 -6 -53 -36 -101 -63 -101 -41 0 -69 100 -56
203 12 85 45 117 89 85z"/>
<path d="M10523 9339 c-35 -28 -63 -54 -63 -58 0 -5 9 -16 20 -26 19 -17 20
-16 52 10 l33 28 3 -162 2 -161 45 0 45 0 0 210 0 210 -37 0 c-30 -1 -51 -11
-100 -51z"/>
<path d="M12169 9339 c-64 -52 -69 -62 -44 -88 13 -13 20 -10 55 18 l40 32 0
-166 0 -165 40 0 40 0 0 210 0 210 -34 0 c-25 0 -49 -12 -97 -51z"/>
<path d="M2190 9369 c-68 -15 -100 -81 -100 -204 0 -93 15 -142 55 -182 28
-28 40 -33 79 -33 105 0 149 63 149 210 0 162 -64 236 -183 209z m76 -80 c14
-16 20 -40 23 -100 4 -104 -4 -145 -34 -165 -56 -37 -90 30 -83 162 3 62 9 89
23 104 23 26 47 25 71 -1z"/>
<path d="M10935 9355 c-21 -8 -47 -24 -57 -37 -58 -77 -47 -288 18 -349 22
-20 35 -24 91 -24 60 0 67 2 93 32 53 59 65 226 23 311 -33 65 -97 91 -168 67z
m78 -67 c22 -17 39 -116 30 -186 -7 -67 -38 -108 -71 -98 -36 12 -47 44 -47
146 0 75 4 102 18 123 19 29 43 34 70 15z"/>
<path d="M11792 9360 c-75 -18 -105 -79 -104 -218 1 -137 46 -202 141 -202 55
0 87 17 114 59 19 32 22 50 22 151 0 102 -3 119 -23 151 -30 50 -90 73 -150
59z m73 -80 c14 -15 20 -42 23 -104 7 -132 -27 -199 -83 -162 -30 20 -38 61
-34 165 3 60 9 84 23 100 24 26 48 27 71 1z"/>
<path d="M3369 9307 c-63 -50 -65 -53 -51 -75 19 -29 25 -28 67 9 l35 31 0
-166 0 -166 40 0 40 0 0 210 0 210 -32 0 c-25 0 -50 -14 -99 -53z"/>
<path d="M11369 9299 c-64 -52 -69 -62 -44 -88 13 -13 20 -10 55 18 l40 32 0
-166 0 -165 40 0 40 0 0 210 0 210 -34 0 c-25 0 -49 -12 -97 -51z"/>
<path d="M17189 9297 c-63 -50 -65 -53 -51 -75 19 -29 25 -28 67 9 l35 31 0
-166 0 -166 40 0 40 0 0 210 0 210 -32 0 c-25 0 -50 -14 -99 -53z"/>
<path d="M1769 9217 c-63 -50 -65 -53 -51 -75 19 -29 25 -28 67 9 l35 31 0
-166 0 -166 40 0 40 0 0 210 0 210 -32 0 c-25 0 -50 -14 -99 -53z"/>
<path d="M1392 9170 c-75 -18 -105 -79 -104 -218 1 -137 46 -202 141 -202 55
0 87 17 114 59 19 32 22 50 22 151 0 102 -3 119 -23 151 -30 50 -90 73 -150
59z m73 -80 c14 -15 20 -42 23 -104 7 -132 -27 -199 -83 -162 -30 20 -38 61
-34 165 3 60 9 84 23 100 24 26 48 27 71 1z"/>
<path d="M3790 9139 c-70 -15 -100 -81 -100 -214 1 -133 48 -205 137 -205 102
0 146 64 146 210 0 162 -64 236 -183 209z m76 -80 c14 -16 20 -40 23 -100 4
-104 -4 -145 -34 -165 -56 -37 -90 30 -83 162 3 62 9 89 23 104 23 26 47 25
71 -1z"/>
<path d="M15945 9079 c-33 -27 -61 -53 -63 -57 -1 -5 6 -17 17 -26 20 -18 21
-17 61 14 l40 32 0 -166 0 -166 40 0 40 0 0 210 0 210 -37 -1 c-30 0 -50 -10
-98 -50z"/>
<path d="M969 9059 c-64 -52 -69 -62 -44 -88 13 -13 20 -10 55 18 l40 32 0
-166 0 -165 40 0 40 0 0 210 0 210 -34 0 c-25 0 -49 -12 -97 -51z"/>
<path d="M6985 9085 c-21 -8 -47 -24 -57 -37 -58 -77 -47 -288 18 -349 22 -20
35 -24 91 -24 60 0 67 2 93 32 53 59 65 226 23 311 -33 65 -97 91 -168 67z
m78 -67 c22 -17 39 -116 30 -186 -7 -67 -38 -108 -71 -98 -36 12 -47 44 -47
146 0 75 4 102 18 123 19 29 43 34 70 15z"/>
<path d="M2590 9079 c-70 -15 -100 -81 -100 -214 1 -133 48 -205 137 -205 102
0 146 64 146 210 0 162 -64 236 -183 209z m76 -80 c14 -16 20 -40 23 -100 4
-104 -4 -145 -34 -165 -56 -37 -90 30 -83 162 3 62 9 89 23 104 23 26 47 25
71 -1z"/>
<path d="M18080 9080 c-45 -11 -87 -60 -96 -114 -23 -130 7 -260 67 -291 36
-19 102 -19 139 0 52 27 65 66 65 195 0 102 -3 119 -23 151 -31 50 -90 73
-152 59z m75 -80 c14 -15 20 -42 23 -104 7 -132 -27 -199 -83 -162 -30 20 -38
61 -34 165 3 60 9 84 23 100 24 26 48 27 71 1z"/>
<path d="M16370 9060 c-76 -18 -119 -118 -106 -248 12 -120 59 -172 152 -172
39 0 51 5 79 33 43 43 58 101 53 203 -7 140 -73 207 -178 184z m74 -82 c35
-54 32 -222 -5 -259 -24 -24 -31 -24 -60 0 -17 13 -24 33 -29 75 -9 81 4 177
26 193 26 19 52 16 68 -9z"/>
<path d="M7850 9049 c-70 -15 -100 -81 -100 -214 1 -133 48 -205 137 -205 102
0 146 64 146 210 0 162 -64 236 -183 209z m76 -80 c14 -16 20 -40 23 -100 4
-104 -4 -145 -34 -165 -56 -37 -90 30 -83 162 3 62 9 89 23 104 23 26 47 25
71 -1z"/>
<path d="M15570 9050 c-76 -18 -119 -118 -106 -248 12 -120 59 -172 152 -172
39 0 51 5 79 33 43 43 58 101 53 203 -7 140 -73 207 -178 184z m77 -87 c14
-21 18 -48 18 -123 0 -101 -11 -134 -46 -145 -33 -11 -61 25 -69 87 -10 75 4
179 26 195 28 20 52 15 71 -14z"/>
<path d="M6569 8997 c-63 -50 -65 -53 -51 -75 19 -29 25 -28 67 9 l35 31 0
-166 0 -166 40 0 40 0 0 210 0 210 -32 0 c-25 0 -50 -14 -99 -53z"/>
<path d="M7429 8997 c-63 -50 -65 -53 -51 -75 19 -29 25 -28 67 9 l35 31 0
-166 0 -166 40 0 40 0 0 210 0 210 -32 0 c-25 0 -50 -14 -99 -53z"/>
<path d="M2969 8987 c-63 -50 -65 -53 -51 -75 19 -29 25 -28 67 9 l35 31 0
-166 0 -166 40 0 40 0 0 210 0 210 -32 0 c-25 0 -50 -14 -99 -53z"/>
<path d="M17590 9019 c-70 -15 -100 -81 -100 -214 1 -133 48 -205 137 -205
102 0 146 64 146 210 0 162 -64 236 -183 209z m76 -80 c14 -16 20 -40 23 -100
4 -104 -4 -145 -34 -165 -56 -37 -90 30 -83 162 3 62 9 89 23 104 23 26 47 25
71 -1z"/>
<path d="M15145 8959 c-33 -27 -61 -53 -63 -57 -1 -5 6 -17 17 -26 20 -18 21
-17 61 14 l40 32 0 -166 0 -166 40 0 40 0 0 210 0 210 -37 -1 c-30 0 -50 -10
-98 -50z"/>
<path d="M16789 8957 c-63 -50 -65 -53 -51 -75 19 -29 25 -28 67 9 l35 31 0
-166 0 -166 40 0 40 0 0 210 0 210 -32 0 c-25 0 -50 -14 -99 -53z"/>
<path d="M14770 8960 c-76 -18 -119 -118 -106 -248 12 -120 59 -172 152 -172
39 0 51 5 79 33 43 43 58 101 53 203 -7 140 -73 207 -178 184z m77 -87 c14
-21 18 -48 18 -123 -1 -101 -11 -134 -46 -145 -34 -11 -62 25 -69 90 -9 80 4
176 26 192 28 20 52 15 71 -14z"/>
<path d="M6190 8919 c-70 -15 -100 -81 -100 -214 1 -133 48 -205 137 -205 102
0 146 64 146 210 0 162 -64 236 -183 209z m76 -80 c14 -16 20 -40 23 -100 4
-104 -4 -145 -34 -165 -56 -37 -90 30 -83 162 3 62 9 89 23 104 23 26 47 25
71 -1z"/>
<path d="M4169 8867 c-63 -50 -65 -53 -51 -75 19 -29 25 -28 67 9 l35 31 0
-166 0 -166 40 0 40 0 0 210 0 210 -32 0 c-25 0 -50 -14 -99 -53z"/>
<path d="M8275 8869 c-33 -27 -61 -53 -63 -57 -1 -5 6 -17 17 -26 20 -18 21
-17 61 14 l40 32 0 -166 0 -166 40 0 40 0 0 210 0 210 -37 -1 c-30 0 -50 -10
-98 -50z"/>
<path d="M13920 8909 c-68 -15 -100 -81 -100 -204 0 -93 15 -142 55 -182 28
-28 40 -33 79 -33 105 0 149 63 149 210 0 162 -64 236 -183 209z m76 -80 c14
-16 20 -40 23 -100 4 -104 -4 -145 -34 -165 -56 -37 -90 30 -83 162 3 62 9 89
23 104 23 26 47 25 71 -1z"/>
<path d="M13499 8857 c-63 -50 -65 -53 -51 -75 19 -29 25 -28 67 9 l35 31 0
-166 0 -166 40 0 40 0 0 210 0 210 -32 0 c-25 0 -50 -14 -99 -53z"/>
<path d="M14299 8857 c-63 -50 -65 -53 -51 -75 19 -29 25 -28 67 9 l35 31 0
-166 0 -166 40 0 40 0 0 210 0 210 -32 0 c-25 0 -50 -14 -99 -53z"/>
<path d="M5769 8847 c-63 -50 -65 -53 -51 -75 19 -29 25 -28 67 9 l35 31 0
-166 0 -166 40 0 40 0 0 210 0 210 -32 0 c-25 0 -50 -14 -99 -53z"/>
<path d="M13082 8860 c-75 -18 -105 -79 -104 -218 1 -137 46 -202 141 -202 55
0 87 17 114 59 19 32 22 50 22 151 0 102 -3 119 -23 151 -30 50 -90 73 -150
59z m73 -80 c14 -15 20 -42 23 -104 7 -132 -27 -199 -83 -162 -30 20 -38 61
-34 165 3 60 9 84 23 100 24 26 48 27 71 1z"/>
<path d="M8742 8840 c-75 -17 -105 -79 -104 -218 1 -137 46 -202 141 -202 55
0 87 17 114 59 19 32 22 50 22 151 0 101 -3 119 -22 151 -33 52 -87 74 -151
59z m73 -80 c14 -15 20 -42 23 -104 7 -132 -27 -199 -83 -162 -30 20 -38 61
-34 165 3 60 9 84 23 100 24 26 48 27 71 1z"/>
<path d="M5390 8819 c-70 -15 -100 -81 -100 -214 1 -133 48 -205 137 -205 102
0 146 64 146 210 0 162 -64 236 -183 209z m76 -80 c14 -16 20 -40 23 -100 4
-104 -4 -145 -34 -165 -56 -37 -90 30 -83 162 3 62 9 89 23 104 23 26 47 25
71 -1z"/>
<path d="M9175 8789 c-79 -64 -79 -63 -63 -88 17 -27 24 -27 62 5 l31 27 3
-162 2 -161 45 0 45 0 0 210 0 210 -37 0 c-29 -1 -50 -10 -88 -41z"/>
<path d="M9660 8820 c-76 -18 -119 -118 -106 -248 12 -120 59 -172 152 -172
39 0 51 5 79 33 43 43 58 101 53 203 -7 140 -73 207 -178 184z m77 -87 c14
-21 18 -48 18 -123 0 -101 -11 -134 -46 -145 -34 -11 -62 25 -69 90 -9 80 4
176 26 192 28 20 52 15 71 -14z"/>
<path d="M4969 8767 c-63 -50 -65 -53 -51 -75 19 -29 25 -28 67 9 l35 31 0
-166 0 -166 40 0 40 0 0 210 0 210 -32 0 c-25 0 -50 -14 -99 -53z"/>
<path d="M12613 8769 c-35 -28 -63 -54 -63 -58 0 -5 9 -16 20 -26 19 -17 20
-16 52 10 l33 28 3 -162 2 -161 45 0 45 0 0 210 0 210 -37 0 c-30 -1 -51 -11
-100 -51z"/>
<path d="M4590 8759 c-70 -15 -100 -81 -100 -214 1 -133 48 -205 137 -205 102
0 146 64 146 210 0 162 -64 236 -183 209z m76 -80 c14 -16 20 -40 23 -100 4
-104 -4 -145 -34 -165 -56 -37 -90 30 -83 162 3 62 9 89 23 104 23 26 47 25
71 -1z"/>
<path d="M3390 8739 c-70 -15 -100 -81 -100 -214 1 -133 48 -205 137 -205 102
0 146 64 146 210 0 162 -64 236 -183 209z m76 -80 c14 -16 20 -40 23 -100 4
-104 -4 -145 -34 -165 -56 -37 -90 30 -83 162 3 62 9 89 23 104 23 26 47 25
71 -1z"/>
<path d="M10535 8725 c-21 -8 -47 -24 -57 -37 -58 -77 -47 -288 18 -349 22
-20 35 -24 91 -24 60 0 67 2 93 32 53 59 65 226 23 311 -33 65 -97 91 -168 67z
m78 -67 c22 -17 39 -116 30 -186 -7 -67 -38 -108 -71 -98 -36 12 -47 44 -47
146 0 75 4 102 18 123 19 29 43 34 70 15z"/>
<path d="M12190 8730 c-45 -11 -87 -60 -96 -114 -23 -130 7 -260 67 -291 36
-19 102 -19 139 0 52 27 65 66 65 195 0 102 -3 119 -23 151 -31 50 -90 73
-152 59z m75 -80 c14 -15 20 -42 23 -104 7 -132 -27 -199 -83 -162 -30 20 -38
61 -34 165 3 60 9 84 23 100 24 26 48 27 71 1z"/>
<path d="M10123 8679 c-35 -28 -63 -54 -63 -58 0 -5 9 -16 20 -26 19 -17 20
-16 52 10 l33 28 3 -162 2 -161 45 0 45 0 0 210 0 210 -37 0 c-30 -1 -51 -11
-100 -51z"/>
<path d="M10923 8649 c-35 -28 -63 -54 -63 -58 0 -5 9 -16 20 -26 19 -17 20
-16 52 10 l33 28 3 -162 2 -161 45 0 45 0 0 210 0 210 -37 0 c-30 -1 -51 -11
-100 -51z"/>
<path d="M11392 8690 c-75 -18 -105 -79 -104 -218 1 -137 46 -202 141 -202 55
0 87 17 114 59 19 32 22 50 22 151 0 102 -3 119 -23 151 -30 50 -90 73 -150
59z m73 -80 c14 -15 20 -42 23 -104 7 -132 -27 -199 -83 -162 -30 20 -38 61
-34 165 3 60 9 84 23 100 24 26 48 27 71 1z"/>
<path d="M11769 8649 c-64 -52 -69 -62 -44 -88 13 -13 20 -10 55 18 l40 32 0
-166 0 -165 40 0 40 0 0 210 0 210 -34 0 c-25 0 -49 -12 -97 -51z"/>
<path d="M17210 8689 c-70 -15 -100 -81 -100 -214 1 -133 48 -205 137 -205
102 0 146 64 146 210 0 162 -64 236 -183 209z m76 -80 c14 -16 20 -40 23 -100
4 -104 -4 -145 -34 -165 -56 -37 -90 30 -83 162 3 62 9 89 23 104 23 26 47 25
71 -1z"/>
<path d="M2169 8617 c-63 -50 -65 -53 -51 -75 19 -29 25 -28 67 9 l35 31 0
-166 0 -166 40 0 40 0 0 210 0 210 -32 0 c-25 0 -50 -14 -99 -53z"/>
<path d="M1790 8609 c-70 -15 -100 -81 -100 -214 1 -133 48 -205 137 -205 102
0 146 64 146 210 0 162 -64 236 -183 209z m76 -80 c14 -16 20 -40 23 -100 4
-104 -4 -145 -34 -165 -56 -37 -90 30 -83 162 3 62 9 89 23 104 23 26 47 25
71 -1z"/>
<path d="M3769 8477 c-63 -50 -65 -53 -51 -75 19 -29 25 -28 67 9 l35 31 0
-166 0 -166 40 0 40 0 0 210 0 210 -32 0 c-25 0 -50 -14 -99 -53z"/>
<path d="M1369 8459 c-64 -52 -69 -62 -44 -88 13 -13 20 -10 55 18 l40 32 0
-166 0 -165 40 0 40 0 0 210 0 210 -34 0 c-25 0 -49 -12 -97 -51z"/>
<path d="M992 8490 c-75 -18 -105 -79 -104 -218 1 -137 46 -202 141 -202 55 0
87 17 114 59 19 32 22 50 22 151 0 102 -3 119 -23 151 -30 50 -90 73 -150 59z
m73 -80 c14 -15 20 -42 23 -104 7 -132 -27 -199 -83 -162 -30 20 -38 61 -34
165 3 60 9 84 23 100 24 26 48 27 71 1z"/>
<path d="M569 8439 c-64 -52 -69 -62 -44 -88 13 -13 20 -10 55 18 l40 32 0
-166 0 -165 40 0 40 0 0 210 0 210 -34 0 c-25 0 -49 -12 -97 -51z"/>
<path d="M15970 8470 c-76 -18 -119 -118 -106 -248 12 -120 59 -172 152 -172
39 0 51 5 79 33 43 43 58 101 53 203 -7 140 -73 207 -178 184z m77 -87 c14
-21 18 -48 18 -123 0 -101 -11 -134 -46 -145 -34 -11 -62 25 -69 90 -9 80 4
176 26 192 28 20 52 15 71 -14z"/>
<path d="M6973 8419 c-35 -28 -63 -54 -63 -58 0 -5 9 -16 20 -26 19 -17 20
-16 52 10 l33 28 3 -162 2 -161 45 0 45 0 0 210 0 210 -37 0 c-30 -1 -51 -11
-100 -51z"/>
<path d="M6590 8429 c-70 -15 -100 -81 -100 -214 1 -133 48 -205 137 -205 102
0 146 64 146 210 0 162 -64 236 -183 209z m76 -80 c14 -16 20 -40 23 -100 4
-104 -4 -145 -34 -165 -56 -37 -90 30 -83 162 3 62 9 89 23 104 23 26 47 25
71 -1z"/>
<path d="M7450 8429 c-70 -15 -100 -81 -100 -214 1 -133 48 -205 137 -205 102
0 146 64 146 210 0 162 -64 236 -183 209z m76 -80 c14 -16 20 -40 23 -100 4
-104 -4 -145 -34 -165 -56 -37 -90 30 -83 162 3 62 9 89 23 104 23 26 47 25
71 -1z"/>
<path d="M7829 8377 c-63 -50 -65 -53 -51 -75 19 -29 25 -28 67 9 l35 31 0
-166 0 -166 40 0 40 0 0 210 0 210 -32 0 c-25 0 -50 -14 -99 -53z"/>
<path d="M2569 8357 c-63 -50 -65 -53 -51 -75 19 -29 25 -28 67 9 l35 31 0
-166 0 -166 40 0 40 0 0 210 0 210 -32 0 c-25 0 -50 -14 -99 -53z"/>
<path d="M18059 8359 c-64 -52 -69 -62 -44 -88 13 -13 20 -10 55 18 l40 32 0
-166 0 -165 40 0 40 0 0 210 0 210 -34 0 c-25 0 -49 -12 -97 -51z"/>
<path d="M16345 8349 c-33 -27 -61 -53 -63 -57 -1 -5 6 -17 17 -26 20 -18 21
-17 61 14 l40 32 0 -166 0 -166 40 0 40 0 0 210 0 210 -37 -1 c-30 0 -50 -10
-98 -50z"/>
<path d="M2990 8379 c-70 -15 -100 -81 -100 -214 1 -133 48 -205 137 -205 102
0 146 64 146 210 0 162 -64 236 -183 209z m76 -80 c14 -16 20 -40 23 -100 4
-104 -4 -145 -34 -165 -56 -37 -90 30 -83 162 3 62 9 89 23 104 23 26 47 25
71 -1z"/>
<path d="M15545 8339 c-33 -27 -61 -53 -63 -57 -1 -5 6 -17 17 -26 20 -18 21
-17 61 14 l40 32 0 -166 0 -166 40 0 40 0 0 210 0 210 -37 -1 c-30 0 -50 -10
-98 -50z"/>
<path d="M15170 8350 c-76 -18 -119 -118 -106 -248 12 -120 59 -172 152 -172
39 0 51 5 79 33 43 43 58 101 53 203 -7 140 -73 207 -178 184z m77 -87 c14
-21 18 -48 18 -123 -1 -101 -11 -134 -46 -145 -34 -11 -62 25 -69 90 -9 80 4
176 26 192 28 20 52 15 71 -14z"/>
<path d="M16810 8349 c-70 -15 -100 -81 -100 -214 1 -133 48 -205 137 -205
102 0 146 64 146 210 0 162 -64 236 -183 209z m76 -80 c14 -16 20 -40 23 -100
4 -104 -4 -145 -34 -165 -56 -37 -90 30 -83 162 3 62 9 89 23 104 23 26 47 25
71 -1z"/>
<path d="M17569 8307 c-63 -50 -65 -53 -51 -75 19 -29 25 -28 67 9 l35 31 0
-166 0 -166 40 0 40 0 0 210 0 210 -32 0 c-25 0 -50 -14 -99 -53z"/>
<path d="M4190 8299 c-70 -15 -100 -81 -100 -214 1 -133 48 -205 137 -205 102
0 146 64 146 210 0 162 -64 236 -183 209z m76 -80 c14 -16 20 -40 23 -100 4
-104 -4 -145 -34 -165 -56 -37 -90 30 -83 162 3 62 9 89 23 104 23 26 47 25
71 -1z"/>
<path d="M8300 8300 c-76 -18 -119 -118 -106 -248 12 -120 59 -172 152 -172
39 0 51 5 79 33 43 43 58 101 53 203 -7 140 -73 207 -178 184z m74 -82 c35
-54 32 -222 -5 -259 -24 -24 -31 -24 -60 0 -17 13 -24 33 -29 75 -9 81 4 177
26 193 26 19 52 16 68 -9z"/>
<path d="M6169 8247 c-63 -50 -65 -53 -51 -75 19 -29 25 -28 67 9 l35 31 0
-166 0 -166 40 0 40 0 0 210 0 210 -32 0 c-25 0 -50 -14 -99 -53z"/>
<path d="M14745 8249 c-33 -27 -61 -53 -63 -57 -1 -5 6 -17 17 -26 20 -18 21
-17 61 14 l40 32 0 -166 0 -166 40 0 40 0 0 210 0 210 -37 -1 c-30 0 -50 -10
-98 -50z"/>
<path d="M13520 8249 c-68 -15 -100 -81 -100 -204 0 -93 15 -142 55 -182 28
-28 40 -33 79 -33 105 0 149 63 149 210 0 162 -64 236 -183 209z m76 -80 c14
-16 20 -40 23 -100 4 -104 -4 -145 -34 -165 -56 -37 -90 30 -83 162 3 62 9 89
23 104 23 26 47 25 71 -1z"/>
<path d="M14320 8249 c-70 -15 -100 -81 -100 -214 1 -133 48 -205 137 -205
102 0 146 64 146 210 0 162 -64 236 -183 209z m76 -80 c14 -16 20 -40 23 -100
4 -104 -4 -145 -34 -165 -56 -37 -90 30 -83 162 3 62 9 89 23 104 23 26 47 25
71 -1z"/>
<path d="M5790 8239 c-70 -15 -100 -81 -100 -214 1 -133 48 -205 137 -205 102
0 146 64 146 210 0 162 -64 236 -183 209z m76 -80 c14 -16 20 -40 23 -100 4
-104 -4 -145 -34 -165 -56 -37 -90 30 -83 162 3 62 9 89 23 104 23 26 47 25
71 -1z"/>
<path d="M13899 8197 c-63 -50 -65 -53 -51 -75 19 -29 25 -28 67 9 l35 31 0
-166 0 -166 40 0 40 0 0 210 0 210 -32 0 c-25 0 -50 -14 -99 -53z"/>
<path d="M4990 8199 c-70 -15 -100 -81 -100 -214 1 -133 48 -205 137 -205 102
0 146 64 146 210 0 162 -64 236 -183 209z m76 -80 c14 -16 20 -40 23 -100 4
-104 -4 -145 -34 -165 -56 -37 -90 30 -83 162 3 62 9 89 23 104 23 26 47 25
71 -1z"/>
<path d="M13059 8149 c-64 -52 -69 -62 -44 -88 13 -13 20 -10 55 18 l40 32 0
-166 0 -165 40 0 40 0 0 210 0 210 -34 0 c-25 0 -49 -12 -97 -51z"/>
<path d="M8719 8129 c-64 -52 -69 -62 -44 -88 13 -13 20 -10 55 18 l40 32 0
-166 0 -165 40 0 40 0 0 210 0 210 -34 0 c-25 0 -49 -12 -97 -51z"/>
<path d="M9175 8165 c-21 -8 -47 -24 -57 -37 -58 -77 -47 -288 18 -349 22 -20
35 -24 91 -24 60 0 67 2 93 32 53 59 65 226 23 311 -33 65 -97 91 -168 67z
m78 -67 c23 -17 39 -116 30 -187 -6 -53 -36 -101 -63 -101 -41 0 -69 100 -56
203 12 85 45 117 89 85z"/>
<path d="M5369 8107 c-63 -50 -65 -53 -51 -75 19 -29 25 -28 67 9 l35 31 0
-166 0 -166 40 0 40 0 0 210 0 210 -32 0 c-25 0 -50 -14 -99 -53z"/>
<path d="M9635 8109 c-33 -27 -61 -53 -63 -57 -1 -5 6 -17 17 -26 20 -18 21
-17 61 14 l40 32 0 -166 0 -166 40 0 40 0 0 210 0 210 -37 -1 c-30 0 -50 -10
-98 -50z"/>
<path d="M12625 8145 c-21 -8 -47 -24 -57 -37 -58 -77 -47 -288 18 -349 22
-20 35 -24 91 -24 60 0 67 2 93 32 53 59 65 226 23 311 -33 65 -97 91 -168 67z
m78 -67 c22 -17 39 -116 30 -186 -7 -67 -38 -108 -71 -98 -36 12 -47 44 -47
146 0 75 4 102 18 123 19 29 43 34 70 15z"/>
<path d="M3369 8067 c-63 -50 -65 -53 -51 -75 19 -29 25 -28 67 9 l35 31 0
-166 0 -166 40 0 40 0 0 210 0 210 -32 0 c-25 0 -50 -14 -99 -53z"/>
<path d="M4569 8047 c-63 -50 -65 -53 -51 -75 19 -29 25 -28 67 9 l35 31 0
-166 0 -166 40 0 40 0 0 210 0 210 -32 0 c-25 0 -50 -14 -99 -53z"/>
<path d="M179 8027 c-63 -50 -65 -53 -51 -75 19 -29 25 -28 67 9 l35 31 0
-166 0 -166 40 0 40 0 0 210 0 210 -32 0 c-25 0 -50 -14 -99 -53z"/>
<path d="M10135 8065 c-21 -8 -47 -24 -57 -37 -58 -77 -47 -288 18 -349 22
-20 35 -24 91 -24 60 0 67 2 93 32 53 59 65 226 23 311 -33 65 -97 91 -168 67z
m78 -67 c22 -17 39 -116 30 -186 -7 -67 -38 -108 -71 -98 -36 12 -47 44 -47
146 0 75 4 102 18 123 19 29 43 34 70 15z"/>
<path d="M10523 8009 c-35 -28 -63 -54 -63 -58 0 -5 9 -16 20 -26 19 -17 20
-16 52 10 l33 28 3 -162 2 -161 45 0 45 0 0 210 0 210 -37 0 c-30 -1 -51 -11
-100 -51z"/>
<path d="M12169 8009 c-64 -52 -69 -62 -44 -88 13 -13 20 -10 55 18 l40 32 0
-166 0 -165 40 0 40 0 0 210 0 210 -34 0 c-25 0 -49 -12 -97 -51z"/>
<path d="M10935 8035 c-21 -8 -47 -24 -57 -37 -58 -77 -47 -288 18 -349 22
-20 35 -24 91 -24 60 0 67 2 93 32 53 59 65 226 23 311 -33 65 -97 91 -168 67z
m78 -67 c22 -17 39 -116 30 -186 -7 -67 -38 -108 -71 -98 -36 12 -47 44 -47
146 0 75 4 102 18 123 19 29 43 34 70 15z"/>
<path d="M11792 8030 c-75 -17 -104 -77 -103 -217 0 -138 45 -203 140 -203 55
0 87 17 114 59 19 32 22 50 22 151 0 101 -3 119 -22 151 -33 52 -87 74 -151
59z m73 -80 c14 -15 20 -42 23 -104 7 -132 -27 -199 -83 -162 -30 20 -38 61
-34 165 3 60 9 84 23 100 24 26 48 27 71 1z"/>
<path d="M11369 7979 c-64 -52 -69 -62 -44 -88 13 -13 20 -10 55 18 l40 32 0
-166 0 -165 40 0 40 0 0 210 0 210 -34 0 c-25 0 -49 -12 -97 -51z"/>
<path d="M17189 7977 c-63 -50 -65 -53 -51 -75 19 -29 25 -28 67 9 l35 31 0
-166 0 -166 40 0 40 0 0 210 0 210 -32 0 c-25 0 -50 -14 -99 -53z"/>
<path d="M2190 7959 c-70 -15 -100 -81 -100 -214 1 -133 48 -205 137 -205 102
0 146 64 146 210 0 162 -64 236 -183 209z m76 -80 c14 -16 20 -40 23 -100 4
-104 -4 -145 -34 -165 -56 -37 -90 30 -83 162 3 62 9 89 23 104 23 26 47 25
71 -1z"/>
<path d="M1769 7887 c-63 -50 -65 -53 -51 -75 19 -29 25 -28 67 9 l35 31 0
-166 0 -166 40 0 40 0 0 210 0 210 -32 0 c-25 0 -50 -14 -99 -53z"/>
<path d="M3790 7909 c-70 -15 -100 -81 -100 -214 1 -133 48 -205 137 -205 102
0 146 64 146 210 0 162 -64 236 -183 209z m76 -80 c14 -16 20 -40 23 -100 4
-104 -4 -145 -34 -165 -56 -37 -90 30 -83 162 3 62 9 89 23 104 23 26 47 25
71 -1z"/>
<path d="M592 7890 c-75 -18 -105 -79 -104 -218 1 -137 46 -202 141 -202 55 0
87 17 114 59 19 32 22 50 22 151 0 102 -3 119 -23 151 -30 50 -90 73 -150 59z
m73 -80 c14 -15 20 -42 23 -104 7 -132 -27 -199 -83 -162 -30 20 -38 61 -34
165 3 60 9 84 23 100 24 26 48 27 71 1z"/>
<path d="M17974 7850 c29 -294 30 -325 12 -506 -9 -99 -28 -269 -41 -379 -13
-110 -27 -261 -30 -335 -16 -362 -45 -666 -86 -905 -16 -94 -21 -172 -23 -360
-3 -270 12 -455 49 -608 38 -155 122 -383 187 -507 124 -236 129 -291 69 -740
-48 -355 -54 -390 -87 -570 -29 -151 -27 -221 6 -410 10 -58 33 -211 50 -340
17 -129 47 -316 66 -415 19 -99 53 -290 75 -425 22 -135 47 -272 56 -305 8
-33 17 -87 20 -120 4 -51 1 -65 -19 -94 -20 -31 -32 -37 -100 -52 -43 -9 -90
-25 -105 -35 -18 -11 -42 -17 -66 -15 -32 2 -47 -5 -102 -49 -36 -28 -65 -55
-65 -59 0 -4 9 -16 20 -26 19 -17 20 -16 52 10 l33 28 3 -162 2 -161 45 0 45
0 1 138 c1 75 3 128 6 117 3 -11 24 -58 46 -105 39 -79 42 -91 42 -170 l0 -85
-55 -90 -55 -90 -160 0 -160 0 -3 198 -2 197 -33 0 c-24 0 -49 -14 -98 -53
-63 -50 -65 -53 -51 -75 19 -29 25 -28 67 9 l36 32 -3 -154 -3 -154 -307 -3
c-243 -2 -308 0 -308 10 1 40 41 201 60 238 13 25 74 93 145 162 l123 119 7
77 c8 100 20 136 64 200 20 29 50 74 66 100 l30 48 -4 -89 c-5 -148 42 -227
135 -227 103 0 147 64 147 210 0 145 -44 212 -142 212 -58 0 -86 -13 -112 -55
l-19 -32 7 35 c5 19 8 125 7 235 0 198 -1 203 -52 475 -74 389 -121 555 -228
807 -109 256 -195 381 -444 638 -102 105 -215 229 -252 275 -74 96 -187 266
-214 323 -10 20 -20 37 -23 37 -34 -2 -141 -160 -191 -285 l-25 -60 -3 183 -2
182 -36 0 c-27 0 -49 -11 -99 -52 -36 -28 -65 -55 -65 -58 0 -4 9 -15 20 -25
18 -17 21 -16 60 15 l40 32 0 -166 0 -166 31 0 c24 0 30 -4 25 -15 -11 -30
-36 -133 -131 -545 -63 -272 -103 -428 -118 -452 -15 -26 -96 -93 -272 -223
l-250 -186 -3 196 -2 195 -36 0 c-27 0 -49 -11 -99 -52 -36 -28 -65 -55 -65
-58 0 -4 9 -15 20 -25 18 -17 21 -16 60 15 l40 32 0 -165 c0 -158 1 -166 20
-169 15 -2 -17 -31 -124 -112 -80 -59 -173 -137 -208 -171 -86 -84 -188 -235
-391 -575 -93 -157 -190 -311 -214 -343 -80 -103 -185 -221 -222 -248 -63 -46
-72 -45 -137 11 -59 50 -92 61 -112 38 -6 -7 -72 -128 -147 -268 -76 -140
-143 -261 -149 -268 -9 -9 -123 -12 -529 -10 l-517 3 33 63 c74 144 181 250
337 331 85 44 104 59 113 85 18 54 97 198 144 264 73 102 156 185 351 349 100
84 264 222 365 307 118 99 209 185 257 242 40 49 77 93 82 98 4 5 14 4 22 -3
13 -11 21 -8 48 14 l33 28 3 -162 2 -161 45 0 45 0 0 210 0 210 -39 0 c-22 0
-44 -6 -51 -15 -28 -34 -27 -11 2 37 17 29 39 71 48 93 39 87 281 499 274 465
-4 -19 -6 -70 -6 -113 2 -132 48 -197 141 -197 55 0 87 17 114 59 19 32 22 50
22 151 0 102 -3 119 -23 151 -39 63 -136 82 -194 39 -27 -20 -25 -13 30 97
206 411 236 537 237 975 0 184 -3 250 -12 260 -10 9 -13 67 -13 220 l0 208
-35 0 c-28 0 -50 -11 -100 -52 -36 -28 -65 -55 -65 -58 0 -4 9 -15 20 -25 18
-17 21 -16 60 15 l41 32 -3 -163 -3 -164 -52 3 -51 2 -10 -47 c-6 -27 -27
-134 -47 -240 -41 -212 -51 -233 -124 -253 -83 -23 -81 -26 -81 115 l0 125
-33 0 c-24 0 -48 -13 -94 -50 -34 -27 -64 -50 -67 -50 -11 0 -5 97 14 225 11
72 20 134 20 138 0 5 10 1 22 -7 29 -20 100 -20 139 0 96 49 99 328 5 389 -34
22 -118 23 -151 1 -43 -28 -59 -72 -63 -178 -3 -64 -8 -98 -16 -98 -10 0 -51
9 -123 25 -18 4 -26 -1 -37 -27 -13 -30 -14 -21 -15 125 l-1 157 -32 0 c-25 0
-50 -14 -99 -53 -63 -50 -65 -53 -51 -75 19 -29 25 -28 67 9 l35 31 0 -166 c0
-161 1 -166 21 -166 24 0 24 2 -33 -147 -45 -119 -67 -149 -122 -174 -118 -54
-256 29 -256 153 0 17 5 60 11 95 11 60 13 65 51 84 57 29 81 88 81 199 0 97
-24 167 -67 195 -30 20 -112 23 -144 6 -25 -13 -70 12 -222 124 l-85 63 -345
-69 c-190 -38 -408 -80 -485 -94 -171 -29 -487 -62 -690 -70 -201 -9 -624 15
-895 51 -121 16 -489 82 -502 90 -4 3 -8 95 -8 205 l0 199 -36 0 c-28 0 -50
-11 -100 -51 -35 -28 -64 -54 -64 -58 0 -4 9 -16 20 -26 19 -17 20 -16 52 10
l33 28 3 -143 c1 -78 1 -144 0 -146 -2 -1 -55 2 -118 7 -63 6 -218 8 -345 5
-126 -4 -358 -8 -515 -11 -264 -5 -450 -13 -450 -20 0 -1 36 -76 79 -166 78
-161 111 -253 226 -629 64 -207 144 -516 170 -660 22 -118 203 -852 251 -1015
19 -66 38 -128 41 -139 5 -16 2 -16 -25 4 -36 27 -104 30 -148 7 -18 -9 -39
-33 -49 -54 -26 -54 -32 -175 -12 -244 22 -74 53 -101 119 -106 92 -7 132 32
151 144 l12 71 69 -246 c77 -273 125 -485 126 -548 0 -91 -69 -144 -188 -144
-88 0 -94 -8 -58 -79 36 -71 56 -154 55 -231 l-1 -65 -17 68 c-21 79 -50 114
-105 127 -110 25 -176 -53 -176 -208 0 -100 44 -202 87 -202 7 0 13 -4 13 -10
0 -7 -165 -10 -476 -10 l-477 0 7 48 c19 145 165 312 317 361 20 6 41 22 47
34 5 12 64 83 131 157 176 196 186 234 137 505 -23 127 -51 218 -128 415 -69
178 -355 707 -593 1095 -212 347 -281 453 -471 725 -121 173 -201 298 -230
360 -115 242 -218 450 -226 450 -4 0 -15 -15 -24 -32 -29 -57 -112 -172 -152
-211 l-39 -38 -6 76 c-9 126 -54 186 -138 187 -94 2 -139 -53 -147 -178 -5
-87 12 -165 45 -205 14 -16 24 -31 22 -33 -2 -1 -33 -24 -68 -50 -101 -74
-186 -121 -316 -175 -125 -51 -283 -123 -519 -235 -76 -36 -142 -66 -147 -66
-5 0 -9 90 -9 200 l0 200 -32 0 c-25 0 -50 -14 -99 -53 -63 -50 -65 -53 -51
-75 19 -29 25 -28 67 9 l35 31 0 -166 0 -166 28 0 27 -1 -30 -21 c-65 -46
-154 -149 -187 -215 -31 -63 -33 -74 -32 -168 1 -126 29 -213 118 -370 35 -60
89 -156 120 -213 77 -138 158 -237 270 -329 177 -147 248 -192 380 -243 224
-85 247 -123 186 -305 -34 -102 -37 -131 -13 -143 10 -5 81 -24 158 -41 142
-33 158 -40 176 -74 12 -21 289 -965 289 -983 0 -47 -252 -19 -368 40 -51 26
-179 153 -229 226 -17 25 -47 78 -67 118 -27 54 -41 72 -56 72 -71 0 -338 189
-529 373 -163 158 -441 462 -574 627 -183 228 -302 355 -552 591 -250 235
-345 356 -440 561 -50 109 -68 189 -62 278 7 122 33 175 221 452 76 113 284
328 518 536 127 114 138 121 148 102 14 -27 23 -25 65 11 l35 31 0 -166 0
-166 40 0 40 0 0 210 0 210 -32 0 -33 1 49 45 c27 24 47 47 44 49 -2 2 -58 23
-124 45 -280 96 -474 227 -644 435 -63 78 -81 108 -116 201 l-24 64 40 0 40 0
0 210 0 210 -32 0 c-25 0 -50 -14 -99 -53 -63 -50 -65 -53 -51 -75 19 -29 25
-28 67 9 l35 31 -1 -163 c-1 -156 -1 -162 -16 -129 -8 19 -55 124 -104 233
-49 109 -109 246 -134 305 -65 161 -101 236 -141 305 -21 34 -103 190 -184
347 -144 280 -250 461 -333 569 -83 108 -246 222 -356 248 -31 7 -118 17 -193
23 -170 12 -497 78 -628 127 -52 19 -149 63 -215 98 -220 116 -270 123 -419
65 -93 -37 -424 -106 -548 -114 -72 -5 -115 -1 -244 24 -243 47 -254 46 -518
-50 -78 -28 -144 -20 -245 31 -120 60 -219 152 -300 278 l-41 64 0 -3811 0
-3812 9300 0 9300 0 0 1504 0 1505 -35 -15 c-70 -29 -178 -13 -237 36 l-32 27
-7 149 c-4 82 -17 192 -28 244 -11 52 -27 148 -36 213 -9 65 -25 151 -35 190
-25 92 -28 405 -6 537 52 306 51 848 -3 1625 -5 66 -6 197 -4 290 4 131 0 217
-16 379 -34 325 -161 1149 -186 1201 -3 6 -3 -10 -1 -35z m-3578 -3651 c14
-16 20 -40 23 -100 4 -104 -4 -145 -34 -165 -56 -37 -90 30 -83 162 3 62 9 89
23 104 23 26 47 25 71 -1z m-805 -6 c13 -15 12 -15 -8 -4 -24 12 -29 21 -14
21 5 0 15 -7 22 -17z m-6528 -115 c23 -17 39 -116 30 -187 -6 -53 -36 -101
-63 -101 -41 0 -69 100 -56 203 12 85 45 117 89 85z m6554 -95 c-3 -10 -5 -4
-5 12 0 17 2 24 5 18 2 -7 2 -21 0 -30z m733 -533 l0 -80 -39 19 c-27 14 -45
34 -60 64 -26 53 -27 70 -2 38 20 -26 40 -21 75 18 11 12 21 21 23 21 1 0 3
-36 3 -80z m405 -940 c14 -15 20 -42 23 -104 7 -132 -27 -199 -83 -162 -30 20
-38 61 -34 165 3 60 9 84 23 100 24 26 48 27 71 1z m-5322 -812 c23 -17 39
-116 30 -187 -6 -53 -36 -101 -63 -101 -41 0 -69 100 -56 203 12 85 45 117 89
85z m8233 -699 c14 -16 20 -40 23 -100 4 -104 -4 -145 -34 -165 -56 -37 -90
30 -83 162 3 62 9 89 23 104 23 26 47 25 71 -1z m-8233 -621 c23 -17 39 -116
30 -187 -6 -53 -36 -101 -63 -101 -41 0 -69 100 -56 203 12 85 45 117 89 85z"/>
<path d="M18315 7865 c-21 -8 -47 -24 -57 -37 -58 -77 -47 -288 18 -349 22
-20 35 -24 91 -24 60 0 67 2 93 32 53 59 65 226 23 311 -33 65 -97 91 -168 67z
m78 -67 c23 -17 39 -116 30 -187 -6 -53 -36 -101 -63 -101 -41 0 -69 100 -56
203 12 85 45 117 89 85z"/>
<path d="M969 7819 c-64 -52 -69 -62 -44 -88 13 -13 20 -10 55 18 l40 32 0
-166 0 -165 40 0 40 0 0 210 0 210 -34 0 c-25 0 -49 -12 -97 -51z"/>
<path d="M6985 7855 c-21 -8 -47 -24 -57 -37 -58 -77 -47 -288 18 -349 22 -20
35 -24 91 -24 60 0 67 2 93 32 53 59 65 226 23 311 -33 65 -97 91 -168 67z
m78 -67 c22 -17 39 -116 30 -186 -7 -67 -38 -108 -71 -98 -36 12 -47 44 -47
146 0 75 4 102 18 123 19 29 43 34 70 15z"/>
<path d="M1392 7850 c-75 -18 -105 -79 -104 -218 1 -137 46 -202 141 -202 55
0 87 17 114 59 19 32 22 50 22 151 0 102 -3 119 -23 151 -30 50 -90 73 -150
59z m73 -80 c14 -15 20 -42 23 -104 7 -132 -27 -199 -83 -162 -30 20 -38 61
-34 165 3 60 9 84 23 100 24 26 48 27 71 1z"/>
<path d="M7850 7819 c-70 -15 -100 -81 -100 -214 1 -133 48 -205 137 -205 102
0 146 64 146 210 0 162 -64 236 -183 209z m76 -80 c14 -16 20 -40 23 -100 4
-104 -4 -145 -34 -165 -56 -37 -90 30 -83 162 3 62 9 89 23 104 23 26 47 25
71 -1z"/>
<path d="M6569 7767 c-63 -50 -65 -53 -51 -75 19 -29 25 -28 67 9 l35 31 0
-166 0 -166 40 0 40 0 0 210 0 210 -32 0 c-25 0 -50 -14 -99 -53z"/>
<path d="M7429 7767 c-63 -50 -65 -53 -51 -75 19 -29 25 -28 67 9 l35 31 0
-166 0 -166 40 0 40 0 0 210 0 210 -32 0 c-25 0 -50 -14 -99 -53z"/>
<path d="M15945 7759 c-33 -27 -61 -53 -63 -57 -1 -5 6 -17 17 -26 20 -18 21
-17 61 14 l40 32 0 -166 0 -166 40 0 40 0 0 210 0 210 -37 -1 c-30 0 -50 -10
-98 -50z"/>
<path d="M2590 7749 c-70 -15 -100 -81 -100 -214 1 -133 48 -205 137 -205 102
0 146 64 146 210 0 162 -64 236 -183 209z m76 -80 c14 -16 20 -40 23 -100 4
-104 -4 -145 -34 -165 -56 -37 -90 30 -83 162 3 62 9 89 23 104 23 26 47 25
71 -1z"/>
<path d="M16363 7739 c-70 -20 -112 -123 -99 -242 13 -124 58 -177 152 -177
39 0 51 5 79 33 43 43 58 101 53 203 -7 141 -80 214 -185 183z m84 -86 c14
-21 18 -48 18 -123 0 -101 -11 -134 -46 -145 -34 -11 -62 25 -69 90 -9 80 4
176 26 192 28 20 52 15 71 -14z"/>
<path d="M15570 7730 c-75 -18 -119 -119 -106 -243 13 -124 58 -177 152 -177
39 0 51 5 79 33 43 43 58 101 53 203 -7 140 -73 207 -178 184z m74 -82 c35
-54 32 -222 -5 -259 -24 -24 -31 -24 -60 0 -17 13 -24 33 -29 75 -9 81 4 177
26 193 26 19 52 16 68 -9z"/>
<path d="M2969 7667 c-63 -50 -65 -53 -51 -75 19 -29 25 -28 67 9 l35 31 0
-166 0 -166 40 0 40 0 0 210 0 210 -32 0 c-25 0 -50 -14 -99 -53z"/>
<path d="M17590 7699 c-70 -15 -100 -81 -100 -214 1 -133 48 -205 137 -205
102 0 146 64 146 210 0 162 -64 236 -183 209z m76 -80 c14 -16 20 -40 23 -100
4 -104 -4 -145 -34 -165 -56 -37 -90 30 -83 162 3 62 9 89 23 104 23 26 47 25
71 -1z"/>
<path d="M6190 7679 c-70 -15 -100 -81 -100 -214 1 -133 48 -205 137 -205 102
0 146 64 146 210 0 162 -64 236 -183 209z m76 -80 c14 -16 20 -40 23 -100 4
-104 -4 -145 -34 -165 -56 -37 -90 30 -83 162 3 62 9 89 23 104 23 26 47 25
71 -1z"/>
<path d="M15145 7639 c-33 -27 -61 -53 -63 -57 -1 -5 6 -17 17 -26 20 -18 21
-17 61 14 l40 32 0 -166 0 -166 40 0 40 0 0 210 0 210 -37 -1 c-30 0 -50 -10
-98 -50z"/>
<path d="M16789 7637 c-63 -50 -65 -53 -51 -75 19 -29 25 -28 67 9 l35 31 0
-166 0 -166 40 0 40 0 0 210 0 210 -32 0 c-25 0 -50 -14 -99 -53z"/>
<path d="M4169 7627 c-63 -50 -65 -53 -51 -75 19 -29 25 -28 67 9 l35 31 0
-166 0 -166 40 0 40 0 0 210 0 210 -32 0 c-25 0 -50 -14 -99 -53z"/>
<path d="M8275 7629 c-33 -27 -61 -53 -63 -57 -1 -5 6 -17 17 -26 20 -18 21
-17 61 14 l40 32 0 -166 0 -166 40 0 40 0 0 210 0 210 -37 -1 c-30 0 -50 -10
-98 -50z"/>
<path d="M14770 7640 c-76 -18 -119 -118 -106 -248 12 -120 59 -172 152 -172
39 0 51 5 79 33 43 43 58 101 53 203 -7 140 -73 207 -178 184z m77 -87 c14
-21 18 -48 18 -123 0 -101 -11 -134 -46 -145 -33 -11 -61 25 -69 87 -10 75 4
179 26 195 28 20 52 15 71 -14z"/>
<path d="M13920 7579 c-70 -15 -100 -81 -100 -214 1 -133 48 -205 137 -205
102 0 146 64 146 210 0 162 -64 236 -183 209z m76 -80 c14 -16 20 -40 23 -100
4 -104 -4 -145 -34 -165 -56 -37 -90 30 -83 162 3 62 9 89 23 104 23 26 47 25
71 -1z"/>
<path d="M14299 7537 c-63 -50 -65 -53 -51 -75 19 -29 25 -28 67 9 l35 31 0
-166 0 -166 40 0 40 0 0 210 0 210 -32 0 c-25 0 -50 -14 -99 -53z"/>
<path d="M4969 7527 c-63 -50 -65 -53 -51 -75 19 -29 25 -28 67 9 l35 31 0
-166 0 -166 40 0 40 0 0 210 0 210 -32 0 c-25 0 -50 -14 -99 -53z"/>
<path d="M5769 7527 c-63 -50 -65 -53 -51 -75 19 -29 25 -28 67 9 l35 31 0
-166 0 -166 40 0 40 0 0 210 0 210 -32 0 c-25 0 -50 -14 -99 -53z"/>
<path d="M13499 7527 c-63 -50 -65 -53 -51 -75 19 -29 25 -28 67 9 l35 31 0
-166 0 -166 40 0 40 0 0 210 0 210 -32 0 c-25 0 -50 -14 -99 -53z"/>
<path d="M13082 7540 c-75 -18 -105 -79 -104 -218 1 -137 46 -202 141 -202 55
0 87 17 114 59 19 32 22 50 22 151 0 102 -3 119 -23 151 -30 50 -90 73 -150
59z m73 -80 c14 -15 20 -42 23 -104 7 -132 -27 -199 -83 -162 -30 20 -38 61
-34 165 3 60 9 84 23 100 24 26 48 27 71 1z"/>
<path d="M8742 7520 c-75 -18 -105 -79 -104 -218 1 -137 46 -202 141 -202 55
0 87 17 114 59 19 32 22 50 22 151 0 102 -3 119 -23 151 -30 50 -90 73 -150
59z m73 -80 c14 -15 20 -42 23 -104 7 -132 -27 -199 -83 -162 -30 20 -38 61
-34 165 3 60 9 84 23 100 24 26 48 27 71 1z"/>
<path d="M3390 7509 c-70 -15 -100 -81 -100 -214 1 -133 48 -205 137 -205 102
0 146 64 146 210 0 162 -64 236 -183 209z m76 -80 c14 -16 20 -40 23 -100 4
-104 -4 -145 -34 -165 -56 -37 -90 30 -83 162 3 62 9 89 23 104 23 26 47 25
71 -1z"/>
<path d="M5390 7499 c-70 -15 -100 -81 -100 -214 1 -133 48 -205 137 -205 102
0 146 64 146 210 0 162 -64 236 -183 209z m76 -80 c14 -16 20 -40 23 -100 4
-104 -4 -145 -34 -165 -56 -37 -90 30 -83 162 3 62 9 89 23 104 23 26 47 25
71 -1z"/>
<path d="M9163 7459 c-35 -28 -63 -54 -63 -58 0 -5 9 -16 20 -26 19 -17 20
-16 52 10 l33 28 3 -162 2 -161 45 0 45 0 0 210 0 210 -37 0 c-30 -1 -51 -11
-100 -51z"/>
<path d="M9660 7500 c-76 -18 -119 -118 -106 -248 12 -120 59 -172 152 -172
39 0 51 5 79 33 43 43 58 101 53 203 -7 140 -73 207 -178 184z m77 -87 c14
-21 18 -48 18 -123 -1 -101 -11 -134 -46 -145 -34 -11 -62 25 -69 90 -9 80 4
176 26 192 28 20 52 15 71 -14z"/>
<path d="M12613 7439 c-35 -28 -63 -54 -63 -58 0 -5 9 -16 20 -26 19 -17 20
-16 52 10 l33 28 3 -162 2 -161 45 0 45 0 0 210 0 210 -37 0 c-30 -1 -51 -11
-100 -51z"/>
<path d="M4590 7439 c-70 -15 -100 -81 -100 -214 1 -133 48 -205 137 -205 102
0 146 64 146 210 0 162 -64 236 -183 209z m76 -80 c14 -16 20 -40 23 -100 4
-104 -4 -145 -34 -165 -56 -37 -90 30 -83 162 3 62 9 89 23 104 23 26 47 25
71 -1z"/>
<path d="M10123 7359 c-35 -28 -63 -54 -63 -58 0 -5 9 -16 20 -26 19 -17 20
-16 52 10 l33 28 3 -162 2 -161 45 0 45 0 0 210 0 210 -37 0 c-30 -1 -51 -11
-100 -51z"/>
<path d="M10535 7395 c-21 -8 -47 -24 -57 -37 -58 -77 -47 -288 18 -349 22
-20 35 -24 91 -24 60 0 67 2 93 32 53 59 65 226 23 311 -33 65 -97 91 -168 67z
m78 -67 c23 -17 39 -116 30 -187 -6 -53 -36 -101 -63 -101 -41 0 -69 100 -56
203 12 85 45 117 89 85z"/>
<path d="M12192 7400 c-75 -18 -105 -79 -104 -218 1 -137 46 -202 141 -202 55
0 87 17 114 59 19 32 22 50 22 151 0 102 -3 119 -23 151 -30 50 -90 73 -150
59z m73 -80 c14 -15 20 -42 23 -104 7 -132 -27 -199 -83 -162 -30 20 -38 61
-34 165 3 60 9 84 23 100 24 26 48 27 71 1z"/>
<path d="M11392 7370 c-75 -18 -105 -79 -104 -218 1 -137 46 -202 141 -202 55
0 87 17 114 59 19 32 22 50 22 151 0 102 -3 119 -23 151 -30 50 -90 73 -150
59z m73 -80 c14 -15 20 -42 23 -104 7 -132 -27 -199 -83 -162 -30 20 -38 61
-34 165 3 60 9 84 23 100 24 26 48 27 71 1z"/>
<path d="M17210 7369 c-70 -15 -100 -81 -100 -214 1 -133 48 -205 137 -205
102 0 146 64 146 210 0 162 -64 236 -183 209z m76 -80 c14 -16 20 -40 23 -100
4 -104 -4 -145 -34 -165 -56 -37 -90 30 -83 162 3 62 9 89 23 104 23 26 47 25
71 -1z"/>
<path d="M10923 7319 c-35 -28 -63 -54 -63 -58 0 -5 9 -16 20 -26 19 -17 20
-16 52 10 l33 28 3 -162 2 -161 45 0 45 0 0 210 0 210 -37 0 c-30 -1 -51 -11
-100 -51z"/>
<path d="M11769 7319 c-64 -52 -69 -62 -44 -88 13 -13 20 -10 55 18 l40 32 0
-166 0 -165 40 0 40 0 0 210 0 210 -34 0 c-25 0 -49 -12 -97 -51z"/>
<path d="M3769 7237 c-63 -50 -65 -53 -51 -75 19 -29 25 -28 67 9 l35 31 0
-166 0 -166 40 0 40 0 0 210 0 210 -32 0 c-25 0 -50 -14 -99 -53z"/>
<path d="M6973 7189 c-35 -28 -63 -54 -63 -58 0 -5 9 -16 20 -26 19 -17 20
-16 52 10 l33 28 3 -162 2 -161 45 0 45 0 0 210 0 210 -37 0 c-30 -1 -51 -11
-100 -51z"/>
<path d="M6590 7199 c-70 -15 -100 -81 -100 -214 1 -133 48 -205 137 -205 102
0 146 64 146 210 0 162 -64 236 -183 209z m76 -80 c14 -16 20 -40 23 -100 4
-104 -4 -145 -34 -165 -56 -37 -90 30 -83 162 3 62 9 89 23 104 23 26 47 25
71 -1z"/>
<path d="M7450 7199 c-70 -15 -100 -81 -100 -214 1 -133 48 -205 137 -205 102
0 146 64 146 210 0 162 -64 236 -183 209z m76 -80 c14 -16 20 -40 23 -100 4
-104 -4 -145 -34 -165 -56 -37 -90 30 -83 162 3 62 9 89 23 104 23 26 47 25
71 -1z"/>
<path d="M18303 7159 c-35 -28 -63 -54 -63 -58 0 -5 9 -16 20 -26 19 -17 20
-16 52 10 l33 28 3 -162 2 -161 45 0 45 0 0 210 0 210 -37 0 c-30 -1 -51 -11
-100 -51z"/>
<path d="M7829 7147 c-63 -50 -65 -53 -51 -75 19 -29 25 -28 67 9 l35 31 0
-166 0 -166 40 0 40 0 0 210 0 210 -32 0 c-25 0 -50 -14 -99 -53z"/>
<path d="M15970 7150 c-76 -18 -119 -118 -106 -248 12 -120 59 -172 152 -172
39 0 51 5 79 33 43 43 58 101 53 203 -7 140 -73 207 -178 184z m77 -87 c14
-21 18 -48 18 -123 0 -101 -11 -134 -46 -145 -33 -11 -61 25 -69 87 -10 75 4
179 26 195 28 20 52 15 71 -14z"/>
<path d="M4190 7069 c-70 -15 -100 -81 -100 -214 1 -133 48 -205 137 -205 102
0 146 64 146 210 0 162 -64 236 -183 209z m76 -80 c14 -16 20 -40 23 -100 4
-104 -4 -145 -34 -165 -56 -37 -90 30 -83 162 3 62 9 89 23 104 23 26 47 25
71 -1z"/>
<path d="M8300 7070 c-76 -18 -119 -118 -106 -248 12 -120 59 -172 152 -172
39 0 51 5 79 33 43 43 58 101 53 203 -7 140 -73 207 -178 184z m77 -87 c14
-21 18 -48 18 -123 -1 -101 -11 -134 -46 -145 -34 -11 -62 25 -69 90 -9 80 4
176 26 192 28 20 52 15 71 -14z"/>
<path d="M16345 7029 c-33 -27 -61 -53 -63 -57 -1 -5 6 -17 17 -26 20 -18 21
-17 61 14 l40 32 0 -166 0 -166 40 0 40 0 0 210 0 210 -37 -1 c-30 0 -50 -10
-98 -50z"/>
<path d="M6169 7017 c-63 -50 -65 -53 -51 -75 19 -29 25 -28 67 9 l35 31 0
-166 0 -166 40 0 40 0 0 210 0 210 -32 0 c-25 0 -50 -14 -99 -53z"/>
<path d="M15545 7019 c-33 -27 -61 -53 -63 -57 -1 -5 6 -17 17 -26 20 -18 21
-17 61 14 l40 32 0 -166 0 -166 40 0 40 0 0 210 0 210 -37 -1 c-30 0 -50 -10
-98 -50z"/>
<path d="M17569 6987 c-63 -50 -65 -53 -51 -75 19 -29 25 -28 67 9 l35 31 0
-166 0 -166 40 0 40 0 0 210 0 210 -32 0 c-25 0 -50 -14 -99 -53z"/>
<path d="M15163 7019 c-71 -21 -112 -122 -99 -247 12 -120 59 -172 152 -172
39 0 51 5 79 33 43 43 58 101 53 203 -7 141 -80 214 -185 183z m84 -86 c14
-21 18 -48 18 -123 -1 -101 -11 -134 -46 -145 -34 -11 -62 25 -69 90 -9 80 4
176 26 192 28 20 52 15 71 -14z"/>
<path d="M16810 7019 c-70 -15 -100 -81 -100 -214 1 -133 48 -205 137 -205
102 0 146 64 146 210 0 162 -64 236 -183 209z m76 -80 c14 -16 20 -40 23 -100
4 -104 -4 -145 -34 -165 -56 -37 -90 30 -83 162 3 62 9 89 23 104 23 26 47 25
71 -1z"/>
<path d="M4990 6969 c-70 -15 -100 -81 -100 -214 1 -133 48 -205 137 -205 102
0 146 64 146 210 0 162 -64 236 -183 209z m76 -80 c14 -16 20 -40 23 -100 4
-104 -4 -145 -34 -165 -56 -37 -90 30 -83 162 3 62 9 89 23 104 23 26 47 25
71 -1z"/>
<path d="M14745 6919 c-33 -27 -61 -53 -63 -57 -1 -5 6 -17 17 -26 20 -18 21
-17 61 14 l40 32 0 -166 0 -166 40 0 40 0 0 210 0 210 -37 -1 c-30 0 -50 -10
-98 -50z"/>
<path d="M14320 6929 c-70 -15 -100 -81 -100 -214 1 -133 48 -205 137 -205
102 0 146 64 146 210 0 162 -64 236 -183 209z m76 -80 c14 -16 20 -40 23 -100
4 -104 -4 -145 -34 -165 -56 -37 -90 30 -83 162 3 62 9 89 23 104 23 26 47 25
71 -1z"/>
<path d="M5790 6919 c-70 -15 -100 -81 -100 -214 1 -133 48 -205 137 -205 102
0 146 64 146 210 0 162 -64 236 -183 209z m76 -80 c14 -16 20 -40 23 -100 4
-104 -4 -145 -34 -165 -56 -37 -90 30 -83 162 3 62 9 89 23 104 23 26 47 25
71 -1z"/>
<path d="M13520 6919 c-70 -15 -100 -81 -100 -214 1 -133 48 -205 137 -205
102 0 146 64 146 210 0 162 -64 236 -183 209z m76 -80 c14 -16 20 -40 23 -100
4 -104 -4 -145 -34 -165 -56 -37 -90 30 -83 162 3 62 9 89 23 104 23 26 47 25
71 -1z"/>
<path d="M13899 6867 c-63 -50 -65 -53 -51 -75 19 -29 25 -28 67 9 l35 31 0
-166 0 -166 40 0 40 0 0 210 0 210 -32 0 c-25 0 -50 -14 -99 -53z"/>
<path d="M13059 6829 c-64 -52 -69 -62 -44 -88 13 -13 20 -10 55 18 l40 32 0
-166 0 -165 40 0 40 0 0 210 0 210 -34 0 c-25 0 -49 -12 -97 -51z"/>
<path d="M8719 6809 c-64 -52 -69 -62 -44 -88 13 -13 20 -10 55 18 l40 32 0
-166 0 -165 40 0 40 0 0 210 0 210 -34 0 c-25 0 -49 -12 -97 -51z"/>
<path d="M9175 6835 c-21 -8 -47 -24 -57 -37 -58 -77 -47 -288 18 -349 22 -20
35 -24 91 -24 60 0 67 2 93 32 53 59 65 226 23 311 -33 65 -97 91 -168 67z
m78 -67 c23 -17 39 -116 30 -187 -6 -53 -36 -101 -63 -101 -41 0 -69 100 -56
203 12 85 45 117 89 85z"/>
<path d="M12625 6825 c-49 -17 -71 -46 -85 -108 -23 -108 -3 -232 46 -278 22
-20 35 -24 91 -24 60 0 67 2 93 32 53 59 65 226 23 311 -33 65 -97 91 -168 67z
m78 -67 c23 -17 39 -116 30 -187 -6 -53 -36 -101 -63 -101 -41 0 -69 100 -56
203 12 85 45 117 89 85z"/>
<path d="M5369 6777 c-63 -50 -65 -53 -51 -75 19 -29 25 -28 67 9 l35 31 0
-166 0 -166 40 0 40 0 0 210 0 210 -32 0 c-25 0 -50 -14 -99 -53z"/>
<path d="M9635 6779 c-33 -27 -61 -53 -63 -57 -1 -5 6 -17 17 -26 20 -18 21
-17 61 14 l40 32 0 -166 0 -166 40 0 40 0 0 210 0 210 -37 -1 c-30 0 -50 -10
-98 -50z"/>
<path d="M4569 6727 c-63 -50 -65 -53 -51 -75 19 -29 25 -28 67 9 l35 31 0
-166 0 -166 40 0 40 0 0 210 0 210 -32 0 c-25 0 -50 -14 -99 -53z"/>
<path d="M10135 6745 c-21 -8 -47 -24 -57 -37 -58 -77 -47 -288 18 -349 22
-20 35 -24 91 -24 60 0 67 2 93 32 53 59 65 226 23 311 -33 65 -97 91 -168 67z
m78 -67 c23 -17 39 -116 30 -187 -6 -53 -36 -101 -63 -101 -41 0 -69 100 -56
203 12 85 45 117 89 85z"/>
<path d="M10523 6689 c-35 -28 -63 -54 -63 -58 0 -5 9 -16 20 -26 19 -17 20
-16 52 10 l33 28 3 -162 2 -161 45 0 45 0 0 210 0 210 -37 0 c-30 -1 -51 -11
-100 -51z"/>
<path d="M12169 6689 c-64 -52 -69 -62 -44 -88 13 -13 20 -10 55 18 l40 32 0
-166 0 -165 40 0 40 0 0 210 0 210 -34 0 c-25 0 -49 -12 -97 -51z"/>
<path d="M10935 6705 c-21 -8 -47 -24 -57 -37 -58 -77 -47 -288 18 -349 22
-20 35 -24 91 -24 60 0 67 2 93 32 53 59 65 226 23 311 -33 65 -97 91 -168 67z
m78 -67 c23 -17 39 -116 30 -187 -6 -53 -36 -101 -63 -101 -41 0 -69 100 -56
203 12 85 45 117 89 85z"/>
<path d="M11792 6710 c-75 -18 -104 -77 -103 -217 0 -139 45 -203 141 -203 53
0 95 22 117 63 14 25 18 56 18 147 0 102 -3 119 -23 151 -30 50 -90 73 -150
59z m73 -80 c14 -15 20 -42 23 -104 7 -132 -27 -199 -83 -162 -30 20 -38 61
-34 165 3 60 9 84 23 100 24 26 48 27 71 1z"/>
<path d="M11369 6659 c-64 -52 -69 -62 -44 -88 13 -13 20 -10 55 18 l40 32 0
-166 0 -165 40 0 40 0 0 210 0 210 -34 0 c-25 0 -49 -12 -97 -51z"/>
<path d="M17189 6657 c-63 -50 -65 -53 -51 -75 19 -29 25 -28 67 9 l35 31 0
-166 0 -166 40 0 40 0 0 210 0 210 -32 0 c-25 0 -50 -14 -99 -53z"/>
<path d="M6985 6615 c-21 -8 -47 -24 -57 -37 -58 -77 -47 -288 18 -349 22 -20
35 -24 91 -24 60 0 67 2 93 32 53 59 65 226 23 311 -33 65 -97 91 -168 67z
m78 -67 c23 -17 39 -116 30 -187 -6 -53 -36 -101 -63 -101 -41 0 -69 100 -56
203 12 85 45 117 89 85z"/>
<path d="M7850 6579 c-70 -15 -100 -81 -100 -214 1 -133 48 -205 137 -205 102
0 146 64 146 210 0 162 -64 236 -183 209z m76 -80 c14 -16 20 -40 23 -100 4
-104 -4 -145 -34 -165 -56 -37 -90 30 -83 162 3 62 9 89 23 104 23 26 47 25
71 -1z"/>
<path d="M6569 6527 c-63 -50 -65 -53 -51 -75 19 -29 25 -28 67 9 l35 31 0
-166 0 -166 40 0 40 0 0 210 0 210 -32 0 c-25 0 -50 -14 -99 -53z"/>
<path d="M7429 6527 c-63 -50 -65 -53 -51 -75 19 -29 25 -28 67 9 l35 31 0
-166 0 -166 40 0 40 0 0 210 0 210 -32 0 c-25 0 -50 -14 -99 -53z"/>
<path d="M18303 6499 c-35 -28 -63 -54 -63 -58 0 -5 9 -16 20 -26 19 -17 20
-16 52 10 l33 28 3 -162 2 -161 45 0 45 0 0 210 0 210 -37 0 c-30 -1 -51 -11
-100 -51z"/>
<path d="M15945 6439 c-33 -27 -61 -53 -63 -57 -1 -5 6 -17 17 -26 20 -18 21
-17 61 14 l40 32 0 -166 0 -166 40 0 40 0 0 210 0 210 -37 -1 c-30 0 -50 -10
-98 -50z"/>
<path d="M6190 6449 c-70 -15 -100 -81 -100 -214 1 -133 48 -205 137 -205 102
0 146 64 146 210 0 162 -64 236 -183 209z m76 -80 c14 -16 20 -40 23 -100 4
-104 -4 -145 -34 -165 -56 -37 -90 30 -83 162 3 62 9 89 23 104 23 26 47 25
71 -1z"/>
<path d="M4169 6397 c-63 -50 -65 -53 -51 -75 19 -29 25 -28 67 9 l35 31 0
-166 0 -166 40 0 40 0 0 210 0 210 -32 0 c-25 0 -50 -14 -99 -53z"/>
<path d="M8275 6399 c-33 -27 -61 -53 -63 -57 -1 -5 6 -17 17 -26 20 -18 21
-17 61 14 l40 32 0 -166 0 -166 40 0 40 0 0 210 0 210 -37 -1 c-30 0 -50 -10
-98 -50z"/>
<path d="M16370 6420 c-76 -18 -119 -118 -106 -248 12 -120 59 -172 152 -172
39 0 51 5 79 33 43 43 58 101 53 203 -7 140 -73 207 -178 184z m77 -87 c14
-21 18 -48 18 -123 0 -101 -11 -134 -46 -145 -34 -11 -62 25 -69 90 -9 80 4
176 26 192 28 20 52 15 71 -14z"/>
<path d="M15570 6410 c-75 -18 -119 -119 -106 -243 13 -124 58 -177 152 -177
39 0 51 5 79 33 43 43 58 101 53 203 -7 140 -73 207 -178 184z m77 -87 c14
-21 18 -48 18 -123 0 -101 -11 -134 -46 -145 -34 -11 -62 25 -69 90 -9 80 4
176 26 192 28 20 52 15 71 -14z"/>
<path d="M17590 6379 c-70 -15 -100 -81 -100 -214 1 -133 48 -205 137 -205
102 0 146 64 146 210 0 162 -64 236 -183 209z m76 -80 c14 -16 20 -40 23 -100
4 -104 -4 -145 -34 -165 -56 -37 -90 30 -83 162 3 62 9 89 23 104 23 26 47 25
71 -1z"/>
<path d="M15145 6309 c-33 -27 -61 -53 -63 -57 -1 -5 6 -17 17 -26 20 -18 21
-17 61 14 l40 32 0 -166 0 -166 40 0 40 0 0 210 0 210 -37 -1 c-30 0 -50 -10
-98 -50z"/>
<path d="M16789 6307 c-63 -50 -65 -53 -51 -75 19 -29 25 -28 67 9 l35 31 0
-166 0 -166 40 0 40 0 0 210 0 210 -32 0 c-25 0 -50 -14 -99 -53z"/>
<path d="M4969 6297 c-63 -50 -65 -53 -51 -75 19 -29 25 -28 67 9 l35 31 0
-166 0 -166 40 0 40 0 0 210 0 210 -32 0 c-25 0 -50 -14 -99 -53z"/>
<path d="M14770 6310 c-76 -18 -119 -118 -106 -248 12 -120 59 -172 152 -172
39 0 51 5 79 33 43 43 58 101 53 203 -7 140 -73 207 -178 184z m77 -87 c14
-21 18 -48 18 -123 0 -101 -11 -134 -46 -145 -34 -11 -62 25 -69 90 -9 80 4
176 26 192 28 20 52 15 71 -14z"/>
<path d="M13920 6259 c-70 -15 -100 -81 -100 -214 1 -133 48 -205 137 -205
102 0 146 64 146 210 0 162 -64 236 -183 209z m76 -80 c14 -16 20 -40 23 -100
4 -104 -4 -145 -34 -165 -56 -37 -90 30 -83 162 3 62 9 89 23 104 23 26 47 25
71 -1z"/>
<path d="M14299 6217 c-63 -50 -65 -53 -51 -75 19 -29 25 -28 67 9 l35 31 0
-166 0 -166 40 0 40 0 0 210 0 210 -32 0 c-25 0 -50 -14 -99 -53z"/>
<path d="M5769 6207 c-63 -50 -65 -53 -51 -75 19 -29 25 -28 67 9 l35 31 0
-166 0 -166 40 0 40 0 0 210 0 210 -32 0 c-25 0 -50 -14 -99 -53z"/>
<path d="M13499 6207 c-63 -50 -65 -53 -51 -75 19 -29 25 -28 67 9 l35 31 0
-166 0 -166 40 0 40 0 0 210 0 210 -32 0 c-25 0 -50 -14 -99 -53z"/>
<path d="M13082 6210 c-75 -18 -105 -79 -104 -218 1 -137 46 -202 141 -202 55
0 87 17 114 59 19 32 22 50 22 151 0 102 -3 119 -23 151 -30 50 -90 73 -150
59z m73 -80 c14 -15 20 -42 23 -104 7 -132 -27 -199 -83 -162 -30 20 -38 61
-34 165 3 60 9 84 23 100 24 26 48 27 71 1z"/>
<path d="M8740 6200 c-45 -11 -87 -60 -96 -114 -23 -130 7 -260 67 -291 36
-19 102 -19 139 0 52 27 65 66 65 195 0 102 -3 119 -23 151 -31 50 -90 73
-152 59z m75 -80 c14 -15 20 -42 23 -104 7 -132 -27 -199 -83 -162 -30 20 -38
61 -34 165 3 60 9 84 23 100 24 26 48 27 71 1z"/>
<path d="M5390 6169 c-68 -15 -100 -81 -100 -204 0 -93 15 -142 55 -182 28
-28 40 -33 79 -33 105 0 149 63 149 210 0 162 -64 236 -183 209z m76 -80 c14
-16 20 -40 23 -100 4 -104 -4 -145 -34 -165 -56 -37 -90 30 -83 162 3 62 9 89
23 104 23 26 47 25 71 -1z"/>
<path d="M9163 6129 c-35 -28 -63 -54 -63 -58 0 -5 9 -16 20 -26 19 -17 20
-16 52 10 l33 28 3 -162 2 -161 45 0 45 0 0 210 0 210 -37 0 c-30 -1 -51 -11
-100 -51z"/>
<path d="M9660 6170 c-76 -18 -119 -118 -106 -248 12 -120 59 -172 152 -172
39 0 51 5 79 33 43 43 58 101 53 203 -7 140 -73 207 -178 184z m77 -87 c14
-21 18 -48 18 -123 0 -101 -11 -134 -46 -145 -33 -11 -61 25 -69 87 -10 75 4
179 26 195 28 20 52 15 71 -14z"/>
<path d="M12613 6119 c-35 -28 -63 -54 -63 -58 0 -5 9 -16 20 -26 19 -17 20
-16 52 10 l33 28 3 -162 2 -161 45 0 45 0 0 210 0 210 -37 0 c-30 -1 -51 -11
-100 -51z"/>
<path d="M4590 6109 c-70 -15 -100 -81 -100 -214 1 -133 48 -205 137 -205 102
0 146 64 146 210 0 162 -64 236 -183 209z m76 -80 c14 -16 20 -40 23 -100 4
-104 -4 -145 -34 -165 -56 -37 -90 30 -83 162 3 62 9 89 23 104 23 26 47 25
71 -1z"/>
<path d="M10123 6039 c-35 -28 -63 -54 -63 -58 0 -5 9 -16 20 -26 19 -17 20
-16 52 10 l33 28 3 -162 2 -161 45 0 45 0 0 210 0 210 -37 0 c-30 -1 -51 -11
-100 -51z"/>
<path d="M10535 6075 c-21 -8 -47 -24 -57 -37 -58 -77 -47 -288 18 -349 22
-20 35 -24 91 -24 60 0 67 2 93 32 53 59 65 226 23 311 -33 65 -97 91 -168 67z
m78 -67 c23 -17 39 -116 30 -187 -6 -53 -36 -101 -63 -101 -41 0 -69 100 -56
203 12 85 45 117 89 85z"/>
<path d="M12192 6080 c-75 -18 -105 -79 -104 -218 1 -137 46 -202 141 -202 55
0 87 17 114 59 19 32 22 50 22 151 0 102 -3 119 -23 151 -30 50 -90 73 -150
59z m73 -80 c14 -15 20 -42 23 -104 7 -132 -27 -199 -83 -162 -30 20 -38 61
-34 165 3 60 9 84 23 100 24 26 48 27 71 1z"/>
<path d="M10923 5999 c-35 -28 -63 -54 -63 -58 0 -5 9 -16 20 -26 19 -17 20
-16 52 10 l33 28 3 -162 2 -161 45 0 45 0 0 210 0 210 -37 0 c-30 -1 -51 -11
-100 -51z"/>
<path d="M11392 6040 c-75 -18 -105 -79 -104 -218 1 -137 46 -202 141 -202 55
0 87 17 114 59 19 32 22 50 22 151 0 102 -3 119 -23 151 -30 50 -90 73 -150
59z m73 -80 c14 -15 20 -42 23 -104 7 -132 -27 -199 -83 -162 -30 20 -38 61
-34 165 3 60 9 84 23 100 24 26 48 27 71 1z"/>
<path d="M11769 5999 c-64 -52 -69 -62 -44 -88 13 -13 20 -10 55 18 l40 32 0
-166 0 -165 40 0 40 0 0 210 0 210 -34 0 c-25 0 -49 -12 -97 -51z"/>
<path d="M17210 6039 c-70 -15 -100 -81 -100 -214 1 -133 48 -205 137 -205
102 0 146 64 146 210 0 162 -64 236 -183 209z m76 -80 c14 -16 20 -40 23 -100
4 -104 -4 -145 -34 -165 -56 -37 -90 30 -83 162 3 62 9 89 23 104 23 26 47 25
71 -1z"/>
<path d="M6973 5949 c-35 -28 -63 -54 -63 -58 0 -5 9 -16 20 -26 19 -17 20
-16 52 10 l33 28 3 -162 2 -161 45 0 45 0 0 210 0 210 -37 0 c-30 -1 -51 -11
-100 -51z"/>
<path d="M6590 5959 c-70 -15 -100 -81 -100 -214 1 -133 48 -205 137 -205 102
0 146 64 146 210 0 162 -64 236 -183 209z m76 -80 c14 -16 20 -40 23 -100 4
-104 -4 -145 -34 -165 -56 -37 -90 30 -83 162 3 62 9 89 23 104 23 26 47 25
71 -1z"/>
<path d="M7450 5959 c-70 -15 -100 -81 -100 -214 1 -133 48 -205 137 -205 102
0 146 64 146 210 0 162 -64 236 -183 209z m76 -80 c14 -16 20 -40 23 -100 4
-104 -4 -145 -34 -165 -56 -37 -90 30 -83 162 3 62 9 89 23 104 23 26 47 25
71 -1z"/>
<path d="M7829 5907 c-63 -50 -65 -53 -51 -75 19 -29 25 -28 67 9 l35 31 0
-166 0 -166 40 0 40 0 0 210 0 210 -32 0 c-25 0 -50 -14 -99 -53z"/>
<path d="M8300 5830 c-76 -18 -119 -118 -106 -248 12 -120 59 -172 152 -172
39 0 51 5 79 33 43 43 58 101 53 203 -7 140 -73 207 -178 184z m74 -82 c35
-54 32 -222 -5 -259 -24 -24 -31 -24 -60 0 -17 13 -24 33 -29 75 -9 81 4 177
26 193 26 19 52 16 68 -9z"/>
<path d="M15970 5830 c-75 -18 -119 -119 -106 -243 13 -124 58 -177 152 -177
39 0 51 5 79 33 43 43 58 101 53 203 -7 140 -73 207 -178 184z m77 -87 c14
-21 18 -48 18 -123 0 -101 -11 -134 -46 -145 -34 -11 -62 25 -69 90 -9 80 4
176 26 192 28 20 52 15 71 -14z"/>
<path d="M6169 5777 c-63 -50 -65 -53 -51 -75 19 -29 25 -28 67 9 l35 31 0
-166 0 -166 40 0 40 0 0 210 0 210 -32 0 c-25 0 -50 -14 -99 -53z"/>
<path d="M16345 5699 c-33 -27 -61 -53 -63 -57 -1 -5 6 -17 17 -26 20 -18 21
-17 61 14 l40 32 0 -166 0 -166 40 0 40 0 0 210 0 210 -37 -1 c-30 0 -50 -10
-98 -50z"/>
<path d="M4990 5729 c-70 -15 -100 -81 -100 -214 1 -133 48 -205 137 -205 102
0 146 64 146 210 0 162 -64 236 -183 209z m76 -80 c14 -16 20 -40 23 -100 4
-104 -4 -145 -34 -165 -56 -37 -90 30 -83 162 3 62 9 89 23 104 23 26 47 25
71 -1z"/>
<path d="M15545 5689 c-33 -27 -61 -53 -63 -57 -1 -5 6 -17 17 -26 20 -18 21
-17 61 14 l40 32 0 -166 0 -166 40 0 40 0 0 210 0 210 -37 -1 c-30 0 -50 -10
-98 -50z"/>
<path d="M17569 5667 c-63 -50 -65 -53 -51 -75 19 -29 25 -28 67 9 l35 31 0
-166 0 -166 40 0 40 0 0 210 0 210 -32 0 c-25 0 -50 -14 -99 -53z"/>
<path d="M15170 5700 c-76 -18 -119 -118 -106 -248 12 -120 59 -172 152 -172
39 0 51 5 79 33 43 43 58 101 53 203 -7 140 -73 207 -178 184z m77 -87 c14
-21 18 -48 18 -123 -1 -101 -11 -134 -46 -145 -33 -11 -61 25 -69 87 -10 75 4
179 26 195 28 20 52 15 71 -14z"/>
<path d="M16810 5699 c-70 -15 -100 -81 -100 -214 1 -133 48 -205 137 -205
102 0 146 64 146 210 0 162 -64 236 -183 209z m76 -80 c14 -16 20 -40 23 -100
4 -104 -4 -145 -34 -165 -56 -37 -90 30 -83 162 3 62 9 89 23 104 23 26 47 25
71 -1z"/>
<path d="M14745 5599 c-33 -27 -61 -53 -63 -57 -1 -5 6 -17 17 -26 20 -18 21
-17 61 14 l40 32 0 -166 0 -166 40 0 40 0 0 210 0 210 -37 -1 c-30 0 -50 -10
-98 -50z"/>
<path d="M5790 5599 c-70 -15 -100 -81 -100 -214 1 -133 48 -205 137 -205 102
0 146 64 146 210 0 162 -64 236 -183 209z m76 -80 c14 -16 20 -40 23 -100 4
-104 -4 -145 -34 -165 -56 -37 -90 30 -83 162 3 62 9 89 23 104 23 26 47 25
71 -1z"/>
<path d="M13520 5599 c-70 -15 -100 -81 -100 -214 1 -133 48 -205 137 -205
102 0 146 64 146 210 0 162 -64 236 -183 209z m76 -80 c14 -16 20 -40 23 -100
4 -104 -4 -145 -34 -165 -56 -37 -90 30 -83 162 3 62 9 89 23 104 23 26 47 25
71 -1z"/>
<path d="M14320 5599 c-70 -15 -100 -81 -100 -214 1 -133 48 -205 137 -205
102 0 146 64 146 210 0 162 -64 236 -183 209z m76 -80 c14 -16 20 -40 23 -100
4 -104 -4 -145 -34 -165 -56 -37 -90 30 -83 162 3 62 9 89 23 104 23 26 47 25
71 -1z"/>
<path d="M13899 5547 c-63 -50 -65 -53 -51 -75 19 -29 25 -28 67 9 l35 31 0
-166 0 -166 40 0 40 0 0 210 0 210 -32 0 c-25 0 -50 -14 -99 -53z"/>
<path d="M13059 5499 c-64 -52 -69 -62 -44 -88 13 -13 20 -10 55 18 l40 32 0
-166 0 -165 40 0 40 0 0 210 0 210 -34 0 c-25 0 -49 -12 -97 -51z"/>
<path d="M8719 5489 c-64 -52 -69 -62 -44 -88 13 -13 20 -10 55 18 l40 32 0
-166 0 -165 40 0 40 0 0 210 0 210 -34 0 c-25 0 -49 -12 -97 -51z"/>
<path d="M9175 5515 c-21 -8 -47 -24 -57 -37 -58 -77 -47 -288 18 -349 22 -20
35 -24 91 -24 60 0 67 2 93 32 53 59 65 226 23 311 -33 65 -97 91 -168 67z
m78 -67 c23 -17 39 -116 30 -187 -6 -53 -36 -101 -63 -101 -41 0 -69 100 -56
203 12 85 45 117 89 85z"/>
<path d="M12625 5505 c-21 -8 -47 -24 -57 -37 -58 -77 -47 -288 18 -349 22
-20 35 -24 91 -24 60 0 67 2 93 32 53 59 65 226 23 311 -33 65 -97 91 -168 67z
m78 -67 c23 -17 39 -116 30 -187 -6 -53 -36 -101 -63 -101 -41 0 -69 100 -56
203 12 85 45 117 89 85z"/>
<path d="M5369 5457 c-63 -50 -65 -53 -51 -75 19 -29 25 -28 67 9 l35 31 0
-166 0 -166 40 0 40 0 0 210 0 210 -32 0 c-25 0 -50 -14 -99 -53z"/>
<path d="M9635 5459 c-33 -27 -61 -53 -63 -57 -1 -5 6 -17 17 -26 20 -18 21
-17 61 14 l40 32 0 -166 0 -166 40 0 40 0 0 210 0 210 -37 -1 c-30 0 -50 -10
-98 -50z"/>
<path d="M10135 5415 c-21 -8 -47 -24 -57 -37 -58 -77 -47 -288 18 -349 22
-20 35 -24 91 -24 60 0 67 2 93 32 53 59 65 226 23 311 -33 65 -97 91 -168 67z
m78 -67 c23 -17 39 -116 30 -187 -6 -53 -36 -101 -63 -101 -41 0 -69 100 -56
203 12 85 45 117 89 85z"/>
<path d="M10523 5369 c-35 -28 -63 -54 -63 -58 0 -5 9 -16 20 -26 19 -17 20
-16 52 10 l33 28 3 -162 2 -161 45 0 45 0 0 210 0 210 -37 0 c-30 -1 -51 -11
-100 -51z"/>
<path d="M12169 5369 c-64 -52 -69 -62 -44 -88 13 -13 20 -10 55 18 l40 32 0
-166 0 -165 40 0 40 0 0 210 0 210 -34 0 c-25 0 -49 -12 -97 -51z"/>
<path d="M6985 5385 c-21 -8 -47 -24 -57 -37 -58 -77 -47 -288 18 -349 22 -20
35 -24 91 -24 60 0 67 2 93 32 53 59 65 226 23 311 -33 65 -97 91 -168 67z
m78 -67 c22 -17 39 -116 30 -186 -7 -67 -38 -108 -71 -98 -36 12 -47 44 -47
146 0 75 4 102 18 123 19 29 43 34 70 15z"/>
<path d="M10935 5385 c-21 -8 -47 -24 -57 -37 -58 -77 -47 -288 18 -349 22
-20 35 -24 91 -24 60 0 67 2 93 32 53 59 65 226 23 311 -33 65 -97 91 -168 67z
m78 -67 c23 -17 39 -116 30 -187 -6 -53 -36 -101 -63 -101 -41 0 -69 100 -56
203 12 85 45 117 89 85z"/>
<path d="M11792 5390 c-75 -18 -104 -77 -103 -217 0 -138 45 -203 140 -203 55
0 87 17 114 59 19 32 22 50 22 151 0 102 -3 119 -23 151 -30 50 -90 73 -150
59z m73 -80 c14 -15 20 -42 23 -104 7 -132 -27 -199 -83 -162 -30 20 -38 61
-34 165 3 60 9 84 23 100 24 26 48 27 71 1z"/>
<path d="M11369 5329 c-64 -52 -69 -62 -44 -88 13 -13 20 -10 55 18 l40 32 0
-166 0 -165 40 0 40 0 0 210 0 210 -34 0 c-25 0 -49 -12 -97 -51z"/>
<path d="M17189 5327 c-63 -50 -65 -53 -51 -75 19 -29 25 -28 67 9 l35 31 0
-166 0 -166 40 0 40 0 0 210 0 210 -32 0 c-25 0 -50 -14 -99 -53z"/>
<path d="M7850 5349 c-70 -15 -100 -81 -100 -214 1 -133 48 -205 137 -205 102
0 146 64 146 210 0 162 -64 236 -183 209z m76 -80 c14 -16 20 -40 23 -100 4
-104 -4 -145 -34 -165 -56 -37 -90 30 -83 162 3 62 9 89 23 104 23 26 47 25
71 -1z"/>
<path d="M6569 5297 c-63 -50 -65 -53 -51 -75 19 -29 25 -28 67 9 l35 31 0
-166 0 -166 40 0 40 0 0 210 0 210 -32 0 c-25 0 -50 -14 -99 -53z"/>
<path d="M7429 5297 c-63 -50 -65 -53 -51 -75 19 -29 25 -28 67 9 l35 31 0
-166 0 -166 40 0 40 0 0 210 0 210 -32 0 c-25 0 -50 -14 -99 -53z"/>
<path d="M6190 5209 c-70 -15 -100 -81 -100 -214 1 -133 48 -205 137 -205 102
0 146 64 146 210 0 162 -64 236 -183 209z m76 -80 c14 -16 20 -40 23 -100 4
-104 -4 -145 -34 -165 -56 -37 -90 30 -83 162 3 62 9 89 23 104 23 26 47 25
71 -1z"/>
<path d="M18303 5169 c-35 -28 -63 -54 -63 -58 0 -5 9 -16 20 -26 19 -17 20
-16 52 10 l33 28 3 -162 2 -161 45 0 45 0 0 210 0 210 -37 0 c-30 -1 -51 -11
-100 -51z"/>
<path d="M8275 5159 c-33 -27 -61 -53 -63 -57 -1 -5 6 -17 17 -26 20 -18 21
-17 61 14 l40 32 0 -166 0 -166 40 0 40 0 0 210 0 210 -37 -1 c-30 0 -50 -10
-98 -50z"/>
<path d="M15945 5109 c-33 -27 -61 -53 -63 -57 -1 -5 6 -17 17 -26 20 -18 21
-17 61 14 l40 32 0 -166 0 -166 40 0 40 0 0 210 0 210 -37 -1 c-30 0 -50 -10
-98 -50z"/>
<path d="M4969 5057 c-63 -50 -65 -53 -51 -75 19 -29 25 -28 67 9 l35 31 0
-166 0 -166 40 0 40 0 0 210 0 210 -32 0 c-25 0 -50 -14 -99 -53z"/>
<path d="M16370 5090 c-76 -18 -119 -118 -106 -248 12 -120 59 -172 152 -172
39 0 51 5 79 33 43 43 58 101 53 203 -7 140 -73 207 -178 184z m77 -87 c14
-21 18 -48 18 -123 0 -101 -11 -134 -46 -145 -33 -11 -61 25 -69 87 -10 75 4
179 26 195 28 20 52 15 71 -14z"/>
<path d="M15570 5080 c-76 -18 -119 -118 -106 -248 12 -120 59 -172 152 -172
39 0 51 5 79 33 43 43 58 101 53 203 -7 140 -73 207 -178 184z m74 -82 c35
-54 32 -222 -5 -259 -24 -24 -31 -24 -60 0 -17 13 -24 33 -29 75 -9 81 4 177
26 193 26 19 52 16 68 -9z"/>
<path d="M17590 5049 c-70 -15 -100 -81 -100 -214 1 -133 48 -205 137 -205
102 0 146 64 146 210 0 162 -64 236 -183 209z m76 -80 c14 -16 20 -40 23 -100
4 -104 -4 -145 -34 -165 -56 -37 -90 30 -83 162 3 62 9 89 23 104 23 26 47 25
71 -1z"/>
<path d="M15145 4989 c-33 -27 -61 -53 -63 -57 -1 -5 6 -17 17 -26 20 -18 21
-17 61 14 l40 32 0 -166 0 -166 40 0 40 0 0 210 0 210 -37 -1 c-30 0 -50 -10
-98 -50z"/>
<path d="M16789 4987 c-63 -50 -65 -53 -51 -75 19 -29 25 -28 67 9 l35 31 0
-166 0 -166 40 0 40 0 0 210 0 210 -32 0 c-25 0 -50 -14 -99 -53z"/>
<path d="M14770 4990 c-76 -18 -119 -118 -106 -248 12 -120 59 -172 152 -172
39 0 51 5 79 33 43 43 58 101 53 203 -7 140 -73 207 -178 184z m77 -87 c14
-21 18 -48 18 -123 0 -101 -11 -134 -46 -145 -33 -11 -61 25 -69 87 -10 75 4
179 26 195 28 20 52 15 71 -14z"/>
<path d="M13920 4939 c-70 -15 -100 -81 -100 -214 1 -133 48 -205 137 -205
102 0 146 64 146 210 0 162 -64 236 -183 209z m76 -80 c14 -16 20 -40 23 -100
4 -104 -4 -145 -34 -165 -56 -37 -90 30 -83 162 3 62 9 89 23 104 23 26 47 25
71 -1z"/>
<path d="M13499 4887 c-63 -50 -65 -53 -51 -75 19 -29 25 -28 67 9 l35 31 0
-166 0 -166 40 0 40 0 0 210 0 210 -32 0 c-25 0 -50 -14 -99 -53z"/>
<path d="M14299 4887 c-63 -50 -65 -53 -51 -75 19 -29 25 -28 67 9 l35 31 0
-166 0 -166 40 0 40 0 0 210 0 210 -32 0 c-25 0 -50 -14 -99 -53z"/>
<path d="M5769 4877 c-63 -50 -65 -53 -51 -75 19 -29 25 -28 67 9 l35 31 0
-166 0 -166 40 0 40 0 0 210 0 210 -32 0 c-25 0 -50 -14 -99 -53z"/>
<path d="M13082 4890 c-75 -18 -104 -77 -103 -217 0 -138 45 -203 140 -203 55
0 87 17 114 59 19 32 22 50 22 151 0 102 -3 119 -23 151 -30 50 -90 73 -150
59z m73 -80 c14 -15 20 -42 23 -104 7 -132 -27 -199 -83 -162 -30 20 -38 61
-34 165 3 60 9 84 23 100 24 26 48 27 71 1z"/>
<path d="M8742 4870 c-75 -18 -105 -79 -104 -218 1 -137 46 -202 141 -202 55
0 87 17 114 59 19 32 22 50 22 151 0 102 -3 119 -23 151 -30 50 -90 73 -150
59z m73 -80 c14 -15 20 -42 23 -104 7 -132 -27 -199 -83 -162 -30 20 -38 61
-34 165 3 60 9 84 23 100 24 26 48 27 71 1z"/>
<path d="M5390 4849 c-70 -15 -100 -81 -100 -214 1 -133 48 -205 137 -205 102
0 146 64 146 210 0 162 -64 236 -183 209z m76 -80 c14 -16 20 -40 23 -100 4
-104 -4 -145 -34 -165 -56 -37 -90 30 -83 162 3 62 9 89 23 104 23 26 47 25
71 -1z"/>
<path d="M9163 4809 c-35 -28 -63 -54 -63 -58 0 -5 9 -16 20 -26 19 -17 20
-16 52 10 l33 28 3 -162 2 -161 45 0 45 0 0 210 0 210 -37 0 c-30 -1 -51 -11
-100 -51z"/>
<path d="M9660 4850 c-76 -18 -119 -118 -106 -248 12 -120 59 -172 152 -172
39 0 51 5 79 33 43 43 58 101 53 203 -7 140 -73 207 -178 184z m77 -87 c14
-21 18 -48 18 -123 -1 -101 -11 -134 -46 -145 -34 -11 -62 25 -69 90 -9 80 4
176 26 192 28 20 52 15 71 -14z"/>
<path d="M12613 4799 c-35 -28 -63 -54 -63 -58 0 -5 9 -16 20 -26 19 -17 20
-16 52 10 l33 28 3 -162 2 -161 45 0 45 0 0 210 0 210 -37 0 c-30 -1 -51 -11
-100 -51z"/>
<path d="M6973 4719 c-35 -28 -63 -54 -63 -58 0 -5 9 -16 20 -26 19 -17 20
-16 52 10 l33 28 3 -162 2 -161 45 0 45 0 0 210 0 210 -37 0 c-30 -1 -51 -11
-100 -51z"/>
<path d="M10535 4755 c-21 -8 -47 -24 -57 -37 -58 -77 -47 -288 18 -349 22
-20 35 -24 91 -24 60 0 67 2 93 32 53 59 65 226 23 311 -33 65 -97 91 -168 67z
m78 -67 c22 -17 39 -116 30 -186 -7 -67 -38 -108 -71 -98 -36 12 -47 44 -47
146 0 75 4 102 18 123 19 29 43 34 70 15z"/>
<path d="M12190 4760 c-45 -11 -87 -60 -96 -114 -23 -130 7 -260 67 -291 36
-19 102 -19 139 0 52 27 65 66 65 195 0 102 -3 119 -23 151 -31 50 -90 73
-152 59z m75 -80 c14 -15 20 -42 23 -104 7 -132 -27 -199 -83 -162 -30 20 -38
61 -34 165 3 60 9 84 23 100 24 26 48 27 71 1z"/>
<path d="M6590 4729 c-70 -15 -100 -81 -100 -214 1 -133 48 -205 137 -205 102
0 146 64 146 210 0 162 -64 236 -183 209z m76 -80 c14 -16 20 -40 23 -100 4
-104 -4 -145 -34 -165 -56 -37 -90 30 -83 162 3 62 9 89 23 104 23 26 47 25
71 -1z"/>
<path d="M7450 4729 c-70 -15 -100 -81 -100 -214 1 -133 48 -205 137 -205 102
0 146 64 146 210 0 162 -64 236 -183 209z m76 -80 c14 -16 20 -40 23 -100 4
-104 -4 -145 -34 -165 -56 -37 -90 30 -83 162 3 62 9 89 23 104 23 26 47 25
71 -1z"/>
<path d="M7829 4677 c-63 -50 -65 -53 -51 -75 19 -29 25 -28 67 9 l35 31 0
-166 0 -166 40 0 40 0 0 210 0 210 -32 0 c-25 0 -50 -14 -99 -53z"/>
<path d="M10923 4679 c-35 -28 -63 -54 -63 -58 0 -5 9 -16 20 -26 19 -17 20
-16 52 10 l33 28 3 -162 2 -161 45 0 45 0 0 210 0 210 -37 0 c-30 -1 -51 -11
-100 -51z"/>
<path d="M11392 4720 c-75 -18 -105 -79 -104 -218 1 -137 46 -202 141 -202 55
0 87 17 114 59 19 32 22 50 22 151 0 102 -3 119 -23 151 -30 50 -90 73 -150
59z m73 -80 c14 -15 20 -42 23 -104 7 -132 -27 -199 -83 -162 -30 20 -38 61
-34 165 3 60 9 84 23 100 24 26 48 27 71 1z"/>
<path d="M11769 4679 c-64 -52 -69 -62 -44 -88 13 -13 20 -10 55 18 l40 32 0
-166 0 -165 40 0 40 0 0 210 0 210 -34 0 c-25 0 -49 -12 -97 -51z"/>
<path d="M17210 4719 c-70 -15 -100 -81 -100 -214 1 -133 48 -205 137 -205
102 0 146 64 146 210 0 162 -64 236 -183 209z m76 -80 c14 -16 20 -40 23 -100
4 -104 -4 -145 -34 -165 -56 -37 -90 30 -83 162 3 62 9 89 23 104 23 26 47 25
71 -1z"/>
<path d="M8300 4600 c-76 -18 -119 -118 -106 -248 12 -120 59 -172 152 -172
39 0 51 5 79 33 43 43 58 101 53 203 -7 140 -73 207 -178 184z m77 -87 c14
-21 18 -48 18 -123 -1 -101 -11 -134 -46 -145 -34 -11 -62 25 -69 90 -9 80 4
176 26 192 28 20 52 15 71 -14z"/>
<path d="M6169 4547 c-63 -50 -65 -53 -51 -75 19 -29 25 -28 67 9 l35 31 0
-166 0 -166 40 0 40 0 0 210 0 210 -32 0 c-25 0 -50 -14 -99 -53z"/>
<path d="M18315 4555 c-21 -8 -47 -24 -57 -37 -58 -77 -47 -288 18 -349 22
-20 35 -24 91 -24 60 0 67 2 93 32 53 59 65 226 23 311 -33 65 -97 91 -168 67z
m78 -67 c22 -17 39 -116 30 -186 -7 -67 -38 -108 -71 -98 -36 12 -47 44 -47
146 0 75 4 102 18 123 19 29 43 34 70 15z"/>
<path d="M15970 4500 c-76 -18 -119 -118 -106 -248 12 -120 59 -172 152 -172
39 0 51 5 79 33 43 43 58 101 53 203 -7 140 -73 207 -178 184z m77 -87 c14
-21 18 -48 18 -123 0 -101 -11 -134 -46 -145 -34 -11 -62 25 -69 90 -9 80 4
176 26 192 28 20 52 15 71 -14z"/>
<path d="M16345 4379 c-33 -27 -61 -53 -63 -57 -1 -5 6 -17 17 -26 20 -18 21
-17 61 14 l40 32 0 -166 0 -166 40 0 40 0 0 210 0 210 -37 -1 c-30 0 -50 -10
-98 -50z"/>
<path d="M15545 4369 c-33 -27 -61 -53 -63 -57 -1 -5 6 -17 17 -26 20 -18 21
-17 61 14 l40 32 0 -166 0 -166 40 0 40 0 0 210 0 210 -37 -1 c-30 0 -50 -10
-98 -50z"/>
<path d="M15170 4380 c-75 -18 -119 -119 -106 -243 13 -124 58 -177 152 -177
39 0 51 5 79 33 43 43 58 101 53 203 -7 140 -73 207 -178 184z m77 -87 c14
-21 18 -48 18 -123 0 -101 -11 -134 -46 -145 -34 -11 -62 25 -69 90 -9 80 4
176 26 192 28 20 52 15 71 -14z"/>
<path d="M16810 4379 c-70 -15 -100 -81 -100 -214 1 -133 48 -205 137 -205
102 0 146 64 146 210 0 162 -64 236 -183 209z m76 -80 c14 -16 20 -40 23 -100
4 -104 -4 -145 -34 -165 -56 -37 -90 30 -83 162 3 62 9 89 23 104 23 26 47 25
71 -1z"/>
<path d="M17569 4337 c-63 -50 -65 -53 -51 -75 19 -29 25 -28 67 9 l35 31 0
-166 0 -166 40 0 40 0 0 210 0 210 -32 0 c-25 0 -50 -14 -99 -53z"/>
<path d="M5790 4269 c-70 -15 -100 -81 -100 -214 1 -133 48 -205 137 -205 102
0 146 64 146 210 0 162 -64 236 -183 209z m76 -80 c14 -16 20 -40 23 -100 4
-104 -4 -145 -34 -165 -56 -37 -90 30 -83 162 3 62 9 89 23 104 23 26 47 25
71 -1z"/>
<path d="M7850 4109 c-70 -15 -100 -81 -100 -214 1 -133 48 -205 137 -205 102
0 146 64 146 210 0 162 -64 236 -183 209z m76 -80 c14 -16 20 -40 23 -100 4
-104 -4 -145 -34 -165 -56 -37 -90 30 -83 162 3 62 9 89 23 104 23 26 47 25
71 -1z"/>
<path d="M6569 4057 c-63 -50 -65 -53 -51 -75 19 -29 25 -28 67 9 l35 31 0
-166 0 -166 40 0 40 0 0 210 0 210 -32 0 c-25 0 -50 -14 -99 -53z"/>
<path d="M17189 4007 c-63 -50 -65 -53 -51 -75 19 -29 25 -28 67 9 l35 31 0
-166 0 -166 40 0 40 0 0 210 0 210 -32 0 c-25 0 -50 -14 -99 -53z"/>
<path d="M8689 3949 c-64 -52 -69 -62 -44 -88 13 -13 20 -10 55 18 l40 32 0
-166 0 -165 40 0 40 0 0 210 0 210 -34 0 c-25 0 -49 -12 -97 -51z"/>
<path d="M6190 3979 c-70 -15 -100 -81 -100 -214 1 -133 48 -205 137 -205 102
0 146 64 146 210 0 162 -64 236 -183 209z m76 -80 c14 -16 20 -40 23 -100 4
-104 -4 -145 -34 -165 -56 -37 -90 30 -83 162 3 62 9 89 23 104 23 26 47 25
71 -1z"/>
<path d="M8275 3929 c-33 -27 -61 -53 -63 -57 -1 -5 6 -17 17 -26 20 -18 21
-17 61 14 l40 32 0 -166 0 -166 40 0 40 0 0 210 0 210 -37 -1 c-30 0 -50 -10
-98 -50z"/>
<path d="M18303 3849 c-35 -28 -63 -54 -63 -58 0 -5 9 -16 20 -26 19 -17 20
-16 52 10 l33 28 3 -162 2 -161 45 0 45 0 0 210 0 210 -37 0 c-30 -1 -51 -11
-100 -51z"/>
<path d="M5040 3780 c-76 -18 -119 -118 -106 -248 12 -120 59 -172 152 -172
39 0 51 5 79 33 43 43 58 101 53 203 -7 140 -73 207 -178 184z m77 -87 c14
-21 18 -48 18 -123 0 -101 -11 -134 -46 -145 -53 -17 -85 83 -68 210 12 85 60
114 96 58z"/>
<path d="M15563 3759 c-71 -21 -112 -122 -99 -247 12 -120 59 -172 152 -172
39 0 51 5 79 33 43 43 58 101 53 203 -7 141 -80 214 -185 183z m81 -81 c35
-54 32 -222 -5 -259 -24 -24 -31 -24 -59 -1 -17 13 -25 34 -30 73 -10 75 4
180 26 196 26 19 52 16 68 -9z"/>
<path d="M17590 3729 c-68 -15 -100 -81 -100 -204 0 -93 15 -142 55 -182 28
-28 40 -33 79 -33 105 0 149 63 149 210 0 162 -64 236 -183 209z m76 -80 c14
-16 20 -40 23 -100 4 -104 -4 -145 -34 -165 -56 -37 -90 30 -83 162 3 62 9 89
23 104 23 26 47 25 71 -1z"/>
<path d="M15145 3659 c-33 -27 -61 -53 -63 -57 -1 -5 6 -17 17 -26 20 -18 21
-17 61 14 l40 32 0 -166 0 -166 40 0 40 0 0 210 0 210 -37 -1 c-30 0 -50 -10
-98 -50z"/>
<path d="M16789 3657 c-63 -50 -65 -53 -51 -75 19 -29 25 -28 67 9 l35 31 0
-166 0 -166 40 0 40 0 0 210 0 210 -32 0 c-25 0 -50 -14 -99 -53z"/>
<path d="M5390 3519 c-70 -15 -100 -81 -100 -214 1 -133 48 -205 137 -205 102
0 146 64 146 210 0 162 -64 236 -183 209z m76 -80 c14 -16 20 -40 23 -100 4
-104 -4 -145 -34 -165 -56 -37 -90 30 -83 162 3 62 9 89 23 104 23 26 47 25
71 -1z"/>
<path d="M17210 3399 c-68 -15 -100 -81 -100 -204 0 -93 15 -142 55 -182 28
-28 40 -33 79 -33 105 0 149 63 149 210 0 162 -64 236 -183 209z m76 -80 c14
-16 20 -40 23 -100 4 -104 -4 -145 -34 -165 -56 -37 -90 30 -83 162 3 62 9 89
23 104 23 26 47 25 71 -1z"/>
<path d="M8300 3360 c-76 -18 -119 -118 -106 -248 12 -120 59 -172 152 -172
39 0 51 5 79 33 43 43 58 101 53 203 -7 140 -73 207 -178 184z m77 -87 c14
-21 18 -48 18 -123 0 -101 -11 -134 -46 -145 -33 -11 -61 25 -69 87 -10 75 4
179 26 195 28 20 52 15 71 -14z"/>
<path d="M8712 3340 c-75 -18 -105 -79 -104 -218 1 -137 46 -202 141 -202 55
0 87 17 114 59 19 32 22 50 22 151 0 102 -3 119 -23 151 -30 50 -90 73 -150
59z m73 -80 c14 -15 20 -42 23 -104 7 -132 -27 -199 -83 -162 -30 20 -38 61
-34 165 3 60 9 84 23 100 24 26 48 27 71 1z"/>
<path d="M4682 3150 c-75 -17 -105 -79 -104 -218 1 -137 46 -202 141 -202 55
0 87 17 114 59 19 32 22 50 22 151 0 101 -3 119 -22 151 -33 52 -87 74 -151
59z m73 -80 c14 -15 20 -42 23 -104 7 -132 -27 -199 -83 -162 -30 20 -38 61
-34 165 3 60 9 84 23 100 24 26 48 27 71 1z"/>
<path d="M5015 3109 c-33 -27 -61 -53 -63 -57 -1 -5 6 -17 17 -26 20 -18 21
-17 61 14 l40 32 0 -166 0 -166 40 0 40 0 0 210 0 210 -37 -1 c-30 0 -50 -10
-98 -50z"/>
<path d="M8999 3087 c-63 -50 -65 -53 -51 -75 19 -29 25 -28 67 9 l35 31 0
-166 0 -166 40 0 40 0 0 210 0 210 -32 0 c-25 0 -50 -14 -99 -53z"/>
<path d="M15545 3049 c-33 -27 -61 -53 -63 -57 -1 -5 6 -17 17 -26 20 -18 21
-17 61 14 l40 32 0 -166 0 -166 40 0 40 0 0 210 0 210 -37 -1 c-30 0 -50 -10
-98 -50z"/>
<path d="M17569 3017 c-63 -50 -65 -53 -51 -75 19 -29 25 -28 67 9 l35 31 0
-166 0 -166 40 0 40 0 0 210 0 210 -32 0 c-25 0 -50 -14 -99 -53z"/>
<path d="M15163 3049 c-71 -21 -112 -122 -99 -247 12 -120 59 -172 152 -172
39 0 51 5 79 33 43 43 58 101 53 203 -7 141 -80 214 -185 183z m81 -81 c35
-54 32 -222 -5 -259 -24 -24 -31 -24 -60 0 -17 13 -24 33 -29 75 -9 81 4 177
26 193 26 19 52 16 68 -9z"/>
<path d="M5369 2807 c-63 -50 -65 -53 -51 -75 19 -29 25 -28 67 9 l35 31 0
-166 0 -166 40 0 40 0 0 210 0 210 -32 0 c-25 0 -50 -14 -99 -53z"/>
<path d="M8689 2629 c-64 -52 -69 -62 -44 -88 13 -13 20 -10 55 18 l40 32 0
-166 0 -165 40 0 40 0 0 210 0 210 -34 0 c-25 0 -49 -12 -97 -51z"/>
<path d="M5040 2540 c-76 -18 -119 -118 -106 -248 12 -120 59 -172 152 -172
39 0 51 5 79 33 43 43 58 101 53 203 -7 140 -73 207 -178 184z m77 -87 c14
-21 18 -48 18 -123 -1 -101 -11 -134 -46 -145 -34 -11 -62 25 -69 90 -9 80 4
176 26 192 28 20 52 15 71 -14z"/>
<path d="M9020 2479 c-70 -15 -100 -81 -100 -214 1 -133 48 -205 137 -205 102
0 146 64 146 210 0 162 -64 236 -183 209z m76 -80 c14 -16 20 -40 23 -100 4
-104 -4 -145 -34 -165 -56 -37 -90 30 -83 162 3 62 9 89 23 104 23 26 47 25
71 -1z"/>
<path d="M17590 2409 c-70 -15 -100 -81 -100 -214 1 -133 48 -205 137 -205
102 0 146 64 146 210 0 162 -64 236 -183 209z m76 -80 c14 -16 20 -40 23 -100
4 -104 -4 -145 -34 -165 -56 -37 -90 30 -83 162 3 62 9 89 23 104 23 26 47 25
71 -1z"/>
<path d="M5390 2199 c-70 -15 -100 -81 -100 -214 1 -133 48 -205 137 -205 102
0 146 64 146 210 0 162 -64 236 -183 209z m76 -80 c14 -16 20 -40 23 -100 4
-104 -4 -145 -34 -165 -56 -37 -90 30 -83 162 3 62 9 89 23 104 23 26 47 25
71 -1z"/>
<path d="M17903 2009 c-35 -28 -63 -54 -63 -58 0 -5 9 -16 20 -26 19 -17 20
-16 52 10 l33 28 3 -162 2 -161 45 0 45 0 0 210 0 210 -37 0 c-30 -1 -51 -11
-100 -51z"/>
<path d="M14659 1969 c-64 -52 -69 -62 -44 -88 13 -13 20 -10 55 18 l40 32 0
-166 0 -165 40 0 40 0 0 210 0 210 -34 0 c-25 0 -49 -12 -97 -51z"/>
<path d="M5729 1809 c-64 -52 -69 -62 -44 -88 13 -13 20 -10 55 18 l40 32 0
-166 0 -165 40 0 40 0 0 210 0 210 -34 0 c-25 0 -49 -12 -97 -51z"/>
<path d="M8999 1757 c-63 -50 -65 -53 -51 -75 19 -29 25 -28 67 9 l35 31 0
-166 0 -166 40 0 40 0 0 210 0 210 -32 0 c-25 0 -50 -14 -99 -53z"/>
<path d="M17569 1687 c-63 -50 -65 -53 -51 -75 19 -29 25 -28 67 9 l35 31 0
-166 0 -166 40 0 40 0 0 210 0 210 -32 0 c-25 0 -50 -14 -99 -53z"/>
<path d="M6115 1615 c-49 -17 -71 -46 -85 -108 -23 -108 -3 -232 46 -278 22
-20 35 -24 91 -24 60 0 67 2 93 32 53 59 65 226 23 311 -33 65 -97 91 -168 67z
m78 -67 c22 -17 39 -116 30 -186 -7 -67 -38 -108 -71 -98 -36 12 -47 44 -47
146 0 75 4 102 18 123 19 29 43 34 70 15z"/>
<path d="M17915 1385 c-21 -8 -47 -24 -57 -37 -58 -77 -47 -288 18 -349 22
-20 35 -24 91 -24 60 0 67 2 93 32 53 59 65 226 23 311 -33 65 -97 91 -168 67z
m78 -67 c23 -17 39 -116 30 -187 -6 -53 -36 -101 -63 -101 -41 0 -69 100 -56
203 12 85 45 117 89 85z"/>
<path d="M14225 1325 c-21 -8 -47 -24 -57 -37 -58 -77 -47 -288 18 -349 22
-20 35 -24 91 -24 60 0 67 2 93 32 53 59 65 226 23 311 -33 65 -97 91 -168 67z
m78 -67 c23 -17 39 -116 30 -187 -6 -53 -36 -101 -63 -101 -41 0 -69 100 -56
203 12 85 45 117 89 85z"/>
<path d="M6459 1227 c-63 -50 -65 -53 -51 -75 19 -29 25 -28 67 9 l35 31 0
-166 0 -166 40 0 40 0 0 210 0 210 -32 0 c-25 0 -50 -14 -99 -53z"/>
<path d="M13745 1079 c-33 -27 -61 -53 -63 -57 -1 -5 6 -17 17 -26 20 -18 21
-17 61 14 l40 32 0 -166 0 -166 40 0 40 0 0 210 0 210 -37 -1 c-30 0 -50 -10
-98 -50z"/>
<path d="M9343 1059 c-35 -28 -63 -54 -63 -58 0 -5 9 -16 20 -26 19 -17 20
-16 52 10 l33 28 3 -162 2 -161 45 0 45 0 0 210 0 210 -37 0 c-30 -1 -51 -11
-100 -51z"/>
<path d="M6840 990 c-76 -18 -119 -118 -106 -248 12 -120 59 -172 152 -172 39
0 51 5 79 33 43 43 58 101 53 203 -7 140 -73 207 -178 184z m77 -87 c14 -21
18 -48 18 -123 -1 -101 -11 -134 -46 -145 -34 -11 -62 25 -69 90 -9 80 4 176
26 192 28 20 52 15 71 -14z"/>
<path d="M13370 760 c-76 -18 -119 -118 -106 -248 12 -120 59 -172 152 -172
39 0 51 5 79 33 43 43 58 101 53 203 -7 140 -73 207 -178 184z m77 -87 c14
-21 18 -48 18 -123 -1 -101 -11 -134 -46 -145 -34 -11 -62 25 -69 90 -9 80 4
176 26 192 28 20 52 15 71 -14z"/>
<path d="M8999 437 c-63 -50 -65 -53 -51 -75 19 -29 25 -28 67 9 l35 31 0
-166 0 -166 40 0 40 0 0 210 0 210 -32 0 c-25 0 -50 -14 -99 -53z"/>
<path d="M12925 439 c-33 -27 -61 -53 -63 -57 -1 -5 6 -17 17 -26 20 -18 21
-17 61 14 l40 32 0 -166 0 -166 40 0 40 0 0 210 0 210 -37 -1 c-30 0 -50 -10
-98 -50z"/>
</g>
</svg>
