<?xml version="1.0" standalone="no"?>
<!DOCTYPE svg PUBLIC "-//W3C//DTD SVG 20010904//EN"
 "http://www.w3.org/TR/2001/REC-SVG-20010904/DTD/svg10.dtd">
<svg version="1.0" xmlns="http://www.w3.org/2000/svg"
 width="620.000000pt" height="402.000000pt" viewBox="0 0 620.000000 402.000000"
 preserveAspectRatio="xMidYMid meet">

<g transform="translate(0.000000,402.000000) scale(0.100000,-0.100000)"
fill="#000000" stroke="none">
<path d="M888 3819 c-10 -5 -18 -15 -18 -21 0 -7 5 -6 15 2 13 11 15 5 15 -44
0 -31 5 -56 10 -56 6 0 10 28 10 65 0 67 -3 72 -32 54z"/>
<path d="M1003 3813 c-17 -6 -17 -95 -1 -111 30 -30 68 2 68 57 0 52 -25 72
-67 54z m42 -54 c0 -34 -4 -44 -17 -47 -15 -3 -18 4 -18 41 0 24 3 47 7 51 16
16 28 -4 28 -45z"/>
<path d="M742 3728 c-17 -17 -15 -84 4 -102 34 -35 69 -6 68 56 -2 52 -41 77
-72 46z m43 -49 c0 -32 -4 -44 -15 -44 -16 0 -26 54 -16 82 12 30 31 6 31 -38z"/>
<path d="M624 3658 c-15 -19 -16 -20 -1 -9 16 12 17 9 17 -43 0 -71 16 -73 25
-2 10 77 -5 96 -41 54z"/>
<path d="M1135 3664 l-20 -16 20 4 c17 3 20 -3 23 -44 4 -69 22 -59 22 12 0
64 -8 72 -45 44z"/>
<path d="M5164 3618 c-17 -19 -17 -21 -1 -15 14 5 17 0 17 -38 0 -24 5 -47 10
-50 6 -4 10 18 10 59 0 36 -4 66 -8 66 -5 0 -17 -10 -28 -22z"/>
<path d="M871 3606 c-18 -21 -10 -97 12 -110 28 -18 52 4 55 53 3 46 -10 71
-38 71 -10 0 -23 -6 -29 -14z m47 -49 c3 -42 1 -47 -17 -47 -18 0 -21 6 -21
43 0 24 3 47 7 51 16 15 28 -3 31 -47z"/>
<path d="M1260 3600 c-36 -36 -20 -110 23 -110 31 0 47 18 47 53 0 60 -37 90
-70 57z m46 -25 c9 -38 -3 -77 -24 -73 -19 4 -27 37 -18 74 8 31 34 31 42 -1z"/>
<path d="M5038 3609 c-22 -12 -31 -59 -18 -93 14 -37 60 -34 74 5 18 53 -18
110 -56 88z m38 -34 c8 -34 -3 -75 -21 -75 -18 0 -29 41 -21 75 4 14 13 25 21
25 8 0 17 -11 21 -25z"/>
<path d="M5282 3608 c-7 -7 -12 -30 -12 -53 0 -46 13 -65 46 -65 25 0 34 17
34 69 0 40 -14 61 -40 61 -9 0 -21 -5 -28 -12z m52 -32 c8 -31 -10 -79 -27
-74 -13 5 -22 61 -13 84 9 22 33 16 40 -10z"/>
<path d="M1010 3588 c-24 -20 -24 -20 -2 -14 21 7 22 5 22 -43 0 -28 5 -51 10
-51 6 0 10 28 10 65 0 36 -3 65 -7 65 -5 -1 -19 -10 -33 -22z"/>
<path d="M2281 3586 c-18 -21 -10 -97 12 -110 28 -18 52 4 55 53 3 46 -10 71
-38 71 -10 0 -23 -6 -29 -14z m49 -51 c0 -38 -3 -45 -20 -45 -17 0 -20 7 -20
45 0 38 3 45 20 45 17 0 20 -7 20 -45z"/>
<path d="M4910 3579 c-24 -20 -24 -20 -2 -14 21 6 22 3 22 -44 0 -28 5 -51 10
-51 6 0 10 28 10 65 0 36 -3 65 -7 65 -5 0 -19 -10 -33 -21z"/>
<path d="M5434 3578 c-17 -19 -17 -21 -1 -15 15 6 17 0 17 -44 0 -36 4 -49 13
-46 6 2 12 13 11 25 -3 113 -6 119 -40 80z"/>
<path d="M2560 3570 c-39 -39 -18 -115 30 -108 46 6 53 95 10 118 -15 8 -24 6
-40 -10z m44 -16 c11 -28 6 -61 -10 -75 -13 -10 -17 -10 -25 2 -10 16 -12 73
-2 82 11 12 31 7 37 -9z"/>
<path d="M2162 3568 c-17 -17 -15 -33 3 -18 13 11 15 6 15 -39 0 -28 5 -51 10
-51 6 0 10 27 10 60 0 61 -11 75 -38 48z"/>
<path d="M2434 3564 c-18 -15 -18 -15 4 -9 21 6 22 3 22 -44 0 -28 5 -51 10
-51 6 0 10 27 10 60 0 64 -9 73 -46 44z"/>
<path d="M4772 3568 c-15 -15 -16 -72 -2 -99 12 -21 40 -25 58 -7 16 16 16 90
0 106 -7 7 -19 12 -28 12 -9 0 -21 -5 -28 -12z m43 -49 c0 -32 -4 -44 -15 -44
-16 0 -26 54 -16 82 12 30 31 6 31 -38z"/>
<path d="M1905 3548 c-17 -18 -18 -20 -2 -15 15 6 17 0 17 -43 0 -35 4 -50 13
-50 15 0 22 77 11 112 -7 23 -14 22 -39 -4z"/>
<path d="M4384 3548 c-17 -19 -17 -21 -1 -15 15 6 17 0 17 -43 0 -28 5 -50 10
-50 6 0 10 28 10 65 0 36 -4 65 -8 65 -5 0 -17 -10 -28 -22z"/>
<path d="M4502 3558 c-13 -13 -16 -75 -6 -102 4 -9 18 -16 34 -16 30 0 40 15
40 61 0 58 -37 88 -68 57z m43 -59 c0 -32 -4 -44 -15 -44 -16 0 -26 54 -16 82
12 30 31 6 31 -38z"/>
<path d="M4634 3549 c-19 -21 -19 -22 4 -15 21 7 22 5 22 -43 0 -28 5 -51 10
-51 6 0 10 28 10 65 0 71 -12 82 -46 44z"/>
<path d="M4236 3547 c-22 -16 -26 -88 -6 -112 18 -21 47 -19 60 5 30 56 -12
137 -54 107z m39 -58 c0 -32 -4 -44 -15 -44 -16 0 -26 54 -16 82 12 30 31 6
31 -38z"/>
<path d="M2840 3535 c-14 -16 -17 -85 -6 -104 9 -15 49 -14 64 1 15 15 16 72
2 99 -13 23 -43 25 -60 4z m45 -55 c0 -33 -4 -45 -15 -45 -11 0 -16 13 -18 48
-3 42 -1 48 15 45 14 -3 18 -13 18 -48z"/>
<path d="M1398 3526 c-22 -16 -23 -30 -3 -22 12 4 15 -4 15 -44 0 -28 5 -50
10 -50 6 0 10 28 10 65 0 68 -3 73 -32 51z"/>
<path d="M1771 3526 c-7 -8 -11 -36 -9 -63 3 -42 6 -48 27 -51 31 -5 51 21 51
64 0 52 -43 82 -69 50z m44 -55 c0 -51 -19 -65 -36 -28 -15 34 -4 79 19 75 13
-2 17 -14 17 -47z"/>
<path d="M2022 3528 c-17 -17 -15 -84 4 -102 43 -43 87 15 63 83 -12 33 -44
42 -67 19z m58 -52 c0 -31 -16 -50 -34 -43 -19 8 -22 67 -4 85 10 10 15 9 25
-5 7 -9 13 -26 13 -37z"/>
<path d="M2709 3519 l-24 -20 23 6 c21 6 22 3 22 -44 0 -28 5 -51 10 -51 6 0
10 28 10 65 0 36 -4 65 -9 65 -5 0 -19 -9 -32 -21z"/>
<path d="M2998 3526 c-22 -16 -23 -27 -3 -20 12 5 15 -4 15 -45 0 -28 5 -51
10 -51 6 0 10 28 10 65 0 68 -3 73 -32 51z"/>
<path d="M3136 3524 c-19 -19 -21 -74 -3 -98 8 -11 23 -17 38 -14 34 4 49 65
25 102 -19 30 -38 33 -60 10z m49 -33 c7 -33 -10 -74 -28 -68 -13 4 -22 60
-13 83 9 24 34 15 41 -15z"/>
<path d="M4100 3519 c-24 -20 -24 -20 -2 -14 21 6 22 3 22 -44 0 -28 5 -51 10
-51 6 0 10 28 10 65 0 36 -3 65 -7 65 -5 0 -19 -10 -33 -21z"/>
<path d="M754 3498 c-17 -19 -17 -21 -1 -15 15 6 17 0 17 -43 0 -28 5 -50 10
-50 6 0 10 28 10 65 0 36 -4 65 -8 65 -5 0 -17 -10 -28 -22z"/>
<path d="M1510 3500 c-6 -11 -10 -37 -8 -57 5 -64 60 -71 81 -10 19 57 -46
117 -73 67z m50 -45 c0 -38 -3 -45 -20 -45 -17 0 -20 7 -20 45 0 38 3 45 20
45 17 0 20 -7 20 -45z"/>
<path d="M1650 3489 c-24 -20 -24 -20 -2 -14 21 6 22 3 22 -44 0 -28 5 -51 10
-51 6 0 10 28 10 65 0 36 -3 65 -7 65 -5 0 -19 -10 -33 -21z"/>
<path d="M3302 3498 c-17 -17 -15 -29 3 -22 12 5 15 -4 15 -45 0 -28 5 -51 10
-51 6 0 10 28 10 65 0 66 -10 81 -38 53z"/>
<path d="M3414 3485 c-24 -37 -12 -93 23 -101 19 -5 30 -2 40 11 28 40 7 115
-32 115 -8 0 -22 -11 -31 -25z m54 -44 c-2 -24 -9 -37 -19 -39 -22 -4 -32 38
-19 73 9 23 13 25 26 14 10 -8 14 -25 12 -48z"/>
<path d="M3946 3494 c-34 -33 -13 -114 29 -114 42 0 60 64 29 108 -18 26 -37
28 -58 6z m54 -48 c0 -31 -16 -50 -34 -43 -19 8 -22 67 -4 85 10 10 15 9 25
-5 7 -9 13 -26 13 -37z"/>
<path d="M3554 3478 c-17 -19 -17 -21 -1 -15 15 6 17 0 17 -43 0 -38 4 -50 15
-50 12 0 15 14 15 65 0 71 -12 82 -46 43z"/>
<path d="M3689 3484 c-29 -35 -9 -114 30 -114 27 0 41 21 41 61 0 58 -41 88
-71 53z m49 -53 c-2 -25 -8 -37 -20 -39 -15 -3 -18 4 -18 41 0 50 7 62 27 45
9 -7 13 -25 11 -47z"/>
<path d="M3829 3479 l-24 -20 23 6 c21 6 22 3 22 -44 0 -28 5 -51 10 -51 6 0
10 28 10 65 0 36 -4 65 -9 65 -5 0 -19 -9 -32 -21z"/>
<path d="M5552 3488 c-15 -15 -16 -72 -2 -99 24 -43 74 -12 74 46 0 54 -41 84
-72 53z m48 -54 c0 -38 -3 -45 -17 -42 -22 4 -30 62 -13 84 19 22 30 7 30 -42z"/>
<path d="M1126 3468 c-31 -44 -14 -108 30 -108 34 0 50 38 38 88 -11 45 -44
55 -68 20z m49 -47 c0 -49 -17 -64 -35 -31 -16 29 -3 82 18 78 13 -2 17 -14
17 -47z"/>
<path d="M609 3443 c-17 -43 0 -97 30 -101 43 -6 67 59 41 109 -16 30 -58 25
-71 -8z m61 -37 c0 -31 -16 -50 -34 -43 -19 8 -22 67 -4 85 10 10 15 9 25 -5
7 -9 13 -26 13 -37z"/>
<path d="M496 3421 c-17 -19 -17 -19 3 -14 18 5 20 0 24 -48 3 -52 3 -51 5 14
2 71 -4 79 -32 48z"/>
<path d="M5156 3414 c-19 -19 -21 -74 -3 -98 8 -11 23 -17 38 -14 34 4 49 65
25 102 -19 30 -38 33 -60 10z m48 -49 c0 -40 -7 -50 -29 -42 -18 8 -21 67 -3
85 18 18 32 -2 32 -43z"/>
<path d="M879 3389 l-24 -20 23 6 c21 6 22 3 22 -44 0 -28 5 -51 10 -51 6 0
10 28 10 65 0 36 -4 65 -9 65 -5 0 -19 -9 -32 -21z"/>
<path d="M1259 3393 c-12 -15 -12 -16 4 -10 15 6 17 0 17 -43 0 -38 4 -50 15
-50 12 0 15 13 15 60 0 52 -2 60 -19 60 -10 0 -25 -8 -32 -17z"/>
<path d="M5293 3391 c-12 -10 -19 -21 -16 -25 3 -3 12 -1 20 5 11 9 13 2 13
-40 0 -28 5 -51 10 -51 6 0 10 28 10 65 0 36 -3 65 -7 65 -5 -1 -18 -9 -30
-19z"/>
<path d="M1002 3388 c-13 -13 -16 -75 -6 -102 4 -9 18 -16 34 -16 30 0 40 15
40 61 0 58 -37 88 -68 57z m46 -48 c1 -19 -2 -41 -7 -49 -15 -24 -31 -1 -31
45 0 38 3 45 18 42 12 -2 18 -14 20 -38z"/>
<path d="M2289 3379 l-24 -20 23 6 c21 6 22 3 22 -44 0 -28 5 -51 10 -51 6 0
10 28 10 65 0 36 -4 65 -9 65 -5 0 -19 -9 -32 -21z"/>
<path d="M5034 3378 c-17 -19 -17 -21 -1 -15 15 6 17 0 17 -43 0 -38 4 -50 15
-50 12 0 15 14 15 65 0 71 -12 82 -46 43z"/>
<path d="M2151 3371 c-16 -28 -13 -86 3 -101 27 -21 59 -8 68 28 17 63 -44
125 -71 73z m47 -48 c-2 -35 -7 -48 -18 -48 -10 0 -16 12 -18 33 -4 43 3 62
23 62 13 0 15 -10 13 -47z"/>
<path d="M2426 3368 c-31 -44 -14 -108 30 -108 34 0 50 38 38 88 -11 45 -44
55 -68 20z m49 -47 c0 -49 -17 -64 -35 -31 -16 29 -3 82 18 78 13 -2 17 -14
17 -47z"/>
<path d="M2564 3369 c-17 -20 -17 -22 -1 -16 15 6 17 0 17 -43 0 -38 4 -50 15
-50 13 0 15 11 13 62 -3 68 -15 80 -44 47z"/>
<path d="M4902 3377 c-33 -40 -20 -117 21 -117 33 0 47 18 47 61 0 55 -41 89
-68 56z m46 -47 c1 -19 -2 -41 -7 -49 -15 -24 -31 -1 -31 45 0 38 3 45 18 42
12 -2 18 -14 20 -38z"/>
<path d="M5420 3364 c-21 -55 -4 -104 35 -104 42 0 60 64 29 108 -21 30 -52
28 -64 -4z m54 -10 c10 -26 7 -49 -9 -70 -13 -16 -16 -17 -25 -4 -11 17 -13
73 -3 83 11 12 31 7 37 -9z"/>
<path d="M5688 3379 c-10 -5 -18 -15 -18 -21 0 -7 5 -6 15 2 13 11 15 5 15
-45 0 -41 3 -56 13 -52 6 2 12 9 11 15 -1 7 -2 35 -2 62 -2 52 -6 56 -34 39z"/>
<path d="M4782 3358 c-17 -17 -15 -29 3 -22 12 5 15 -4 15 -45 0 -28 5 -51 10
-51 6 0 10 28 10 65 0 66 -10 81 -38 53z"/>
<path d="M1900 3340 c-39 -39 -18 -115 30 -108 46 6 53 95 10 118 -15 8 -24 6
-40 -10z m44 -16 c14 -36 0 -84 -25 -84 -11 0 -20 48 -13 75 7 28 29 33 38 9z"/>
<path d="M4376 3344 c-17 -16 -21 -80 -7 -102 5 -8 21 -12 37 -10 27 3 29 6
32 53 3 38 -1 52 -14 62 -23 17 -29 16 -48 -3z m39 -55 c0 -32 -4 -44 -15 -44
-16 0 -26 54 -16 82 12 30 31 6 31 -38z"/>
<path d="M4631 3341 c-40 -40 -21 -111 29 -111 25 0 30 5 35 34 9 46 4 66 -22
83 -19 13 -24 12 -42 -6z m44 -50 c0 -49 -17 -64 -35 -31 -16 29 -3 82 18 78
13 -2 17 -14 17 -47z"/>
<path d="M1400 3342 c-22 -8 -30 -23 -30 -62 0 -42 14 -60 47 -60 16 0 27 8
34 27 19 52 -11 109 -51 95z m30 -56 c0 -46 -16 -69 -31 -45 -10 16 -12 73 -2
82 19 20 33 5 33 -37z"/>
<path d="M2708 3339 c-41 -23 -29 -119 16 -119 33 0 48 22 44 66 -3 43 -33 69
-60 53z m40 -49 c1 -19 -2 -41 -7 -49 -15 -24 -31 -1 -31 45 0 38 3 45 18 42
12 -2 18 -14 20 -38z"/>
<path d="M4505 3333 c-20 -15 -20 -15 3 -10 20 5 22 2 22 -44 0 -27 5 -49 10
-49 6 0 10 27 10 60 0 64 -9 72 -45 43z"/>
<path d="M2038 3329 c-10 -5 -18 -15 -18 -21 0 -7 5 -6 15 2 13 11 15 6 15
-39 0 -39 4 -51 15 -51 12 0 15 13 15 60 0 62 -7 70 -42 49z"/>
<path d="M4239 3319 l-24 -20 23 6 c21 6 22 3 22 -44 0 -28 5 -51 10 -51 6 0
10 28 10 65 0 36 -4 65 -9 65 -5 0 -19 -9 -32 -21z"/>
<path d="M1779 3309 l-24 -20 23 6 c21 6 22 3 22 -44 0 -28 5 -51 10 -51 6 0
10 28 10 65 0 36 -4 65 -9 65 -5 0 -19 -9 -32 -21z"/>
<path d="M2844 3314 c-19 -15 -18 -15 4 -11 20 5 22 2 22 -44 0 -27 5 -49 10
-49 6 0 10 27 10 60 0 64 -9 74 -46 44z"/>
<path d="M2982 3318 c-16 -16 -15 -79 1 -103 10 -13 21 -16 41 -11 26 6 27 9
24 64 -3 52 -5 57 -28 60 -14 2 -31 -3 -38 -10z m48 -54 c0 -37 -3 -44 -20
-44 -17 0 -20 7 -20 44 0 26 5 46 13 49 21 8 27 -3 27 -49z"/>
<path d="M3147 3312 c-21 -23 -22 -39 -2 -22 13 11 15 6 15 -39 0 -28 5 -51
10 -51 6 0 10 28 10 65 0 68 -6 77 -33 47z"/>
<path d="M4084 3304 c-24 -37 -9 -98 25 -102 31 -5 51 21 51 64 0 34 -21 64
-45 64 -8 0 -22 -12 -31 -26z m50 -10 c11 -27 7 -61 -9 -74 -12 -10 -16 -8
-24 12 -11 30 -3 78 14 78 7 0 16 -7 19 -16z"/>
<path d="M1647 3308 c-20 -11 -24 -97 -5 -116 30 -30 68 2 68 56 0 55 -27 81
-63 60z m38 -59 c0 -32 -4 -44 -15 -44 -16 0 -26 54 -16 82 12 30 31 6 31 -38z"/>
<path d="M1524 3288 c-17 -19 -17 -21 -1 -15 15 6 17 0 17 -43 0 -28 5 -50 10
-50 6 0 10 28 10 65 0 36 -4 65 -8 65 -5 0 -17 -10 -28 -22z"/>
<path d="M3291 3286 c-18 -21 -10 -97 12 -110 28 -18 52 4 55 53 3 46 -10 71
-38 71 -10 0 -23 -6 -29 -14z m44 -56 c0 -33 -4 -45 -15 -45 -11 0 -16 13 -18
48 -3 42 -1 48 15 45 14 -3 18 -13 18 -48z"/>
<path d="M3430 3279 c-24 -20 -24 -20 -2 -14 21 6 22 3 22 -44 0 -28 5 -51 10
-51 6 0 10 28 10 65 0 36 -3 65 -7 65 -5 0 -19 -10 -33 -21z"/>
<path d="M3954 3278 c-17 -19 -17 -21 -1 -15 15 6 17 0 17 -43 0 -28 5 -50 10
-50 6 0 10 28 10 65 0 36 -4 65 -8 65 -5 0 -17 -10 -28 -22z"/>
<path d="M742 3278 c-17 -17 -15 -84 4 -102 32 -33 68 -7 68 49 0 54 -41 84
-72 53z m48 -54 c0 -38 -3 -45 -17 -42 -22 4 -30 62 -13 84 19 22 30 7 30 -42z"/>
<path d="M1140 3269 c-24 -20 -24 -20 -2 -14 21 6 22 3 22 -44 0 -28 5 -51 10
-51 6 0 10 28 10 65 0 36 -3 65 -7 65 -5 0 -19 -10 -33 -21z"/>
<path d="M3544 3264 c-24 -37 -9 -98 25 -102 31 -5 51 21 51 64 0 34 -21 64
-45 64 -8 0 -22 -12 -31 -26z m50 -10 c17 -45 -7 -97 -32 -72 -13 13 -16 70
-5 81 11 12 31 7 37 -9z"/>
<path d="M3816 3274 c-34 -33 -13 -114 29 -114 42 0 60 64 29 108 -18 26 -37
28 -58 6z m52 -33 c5 -31 -6 -71 -18 -71 -17 0 -33 47 -26 75 8 33 40 30 44
-4z"/>
<path d="M3696 3265 c-19 -15 -19 -15 2 -15 19 0 22 -5 22 -45 0 -25 5 -45 10
-45 6 0 10 27 10 60 0 64 -8 72 -44 45z"/>
<path d="M5568 3269 c-10 -5 -18 -15 -18 -21 0 -7 5 -6 15 2 13 11 15 6 15
-39 0 -28 5 -51 10 -51 6 0 10 27 10 60 0 62 -3 66 -32 49z"/>
<path d="M624 3239 c-17 -20 -17 -22 -1 -16 15 6 17 0 17 -44 0 -36 4 -49 13
-46 15 5 17 119 1 124 -6 2 -19 -6 -30 -18z"/>
<path d="M486 3208 c-31 -44 -13 -108 29 -108 42 0 60 64 29 108 -8 12 -21 22
-29 22 -8 0 -21 -10 -29 -22z m52 -38 c3 -47 -11 -69 -32 -51 -28 23 -17 95
13 89 10 -2 17 -15 19 -38z"/>
<path d="M1256 3198 c-31 -44 -13 -108 29 -108 44 0 63 81 27 113 -25 23 -38
21 -56 -5z m48 -14 c11 -28 6 -61 -10 -75 -13 -10 -17 -10 -25 2 -10 16 -12
73 -2 82 11 12 31 7 37 -9z"/>
<path d="M369 3189 l-24 -20 23 6 c21 6 22 3 22 -44 0 -28 5 -51 10 -51 6 0
10 28 10 65 0 36 -4 65 -9 65 -5 0 -19 -9 -32 -21z"/>
<path d="M5168 3199 c-22 -12 -24 -31 -3 -23 12 5 15 -3 15 -40 0 -25 5 -46
10 -46 6 0 10 27 10 60 0 62 -3 66 -32 49z"/>
<path d="M871 3186 c-18 -21 -10 -97 12 -110 28 -18 52 4 55 53 3 46 -10 71
-38 71 -10 0 -23 -6 -29 -14z m49 -51 c0 -38 -3 -45 -20 -45 -17 0 -20 7 -20
45 0 38 3 45 20 45 17 0 20 -7 20 -45z"/>
<path d="M2281 3186 c-18 -21 -10 -97 12 -110 28 -18 52 4 55 53 3 46 -10 71
-38 71 -10 0 -23 -6 -29 -14z m49 -52 c0 -38 -3 -45 -17 -42 -22 4 -31 77 -12
89 21 13 29 0 29 -47z"/>
<path d="M5831 3186 c-18 -21 -10 -97 12 -110 28 -18 52 4 55 53 3 46 -10 71
-38 71 -10 0 -23 -6 -29 -14z m49 -51 c0 -38 -3 -45 -20 -45 -17 0 -20 7 -20
45 0 38 3 45 20 45 17 0 20 -7 20 -45z"/>
<path d="M2168 3176 c-22 -16 -23 -27 -3 -20 12 5 15 -4 15 -45 0 -28 5 -51
10 -51 6 0 10 28 10 65 0 68 -3 73 -32 51z"/>
<path d="M2439 3169 l-24 -20 23 6 c21 6 22 3 22 -44 0 -28 5 -51 10 -51 6 0
10 28 10 65 0 36 -4 65 -9 65 -5 0 -19 -9 -32 -21z"/>
<path d="M2556 3174 c-33 -32 -12 -114 28 -114 45 0 64 81 28 113 -23 21 -36
21 -56 1z m54 -48 c0 -31 -16 -50 -34 -43 -19 8 -22 67 -4 85 10 10 15 9 25
-5 7 -9 13 -26 13 -37z"/>
<path d="M5033 3183 c-18 -7 -26 -64 -14 -96 8 -19 17 -27 35 -27 33 0 50 32
42 78 -7 45 -28 60 -63 45z m45 -62 c-2 -28 -7 -36 -23 -36 -24 0 -32 42 -15
75 17 32 42 7 38 -39z"/>
<path d="M5282 3178 c-29 -29 -5 -118 32 -118 31 0 48 66 30 114 -7 19 -45 21
-62 4z m48 -24 c13 -34 2 -76 -19 -72 -10 2 -17 15 -19 37 -6 60 20 84 38 35z"/>
<path d="M1005 3164 c-20 -16 -20 -16 3 -9 21 6 22 4 22 -44 0 -28 5 -51 10
-51 6 0 10 27 10 60 0 64 -8 72 -45 44z"/>
<path d="M5668 3155 c-18 -39 0 -99 31 -103 31 -5 51 21 51 64 0 60 -60 88
-82 39z m62 -39 c0 -31 -16 -50 -34 -43 -19 8 -22 67 -4 85 10 10 15 9 25 -5
7 -9 13 -26 13 -37z"/>
<path d="M4904 3154 c-19 -15 -18 -15 4 -11 20 5 22 2 22 -44 0 -27 5 -49 10
-49 6 0 10 27 10 60 0 64 -9 74 -46 44z"/>
<path d="M5429 3153 c-12 -15 -12 -16 4 -10 15 6 17 0 17 -43 0 -38 4 -50 15
-50 12 0 15 13 15 60 0 52 -2 60 -19 60 -10 0 -25 -8 -32 -17z"/>
<path d="M4771 3146 c-18 -21 -10 -97 12 -110 28 -18 52 4 55 53 3 46 -10 71
-38 71 -10 0 -23 -6 -29 -14z m49 -52 c0 -37 -3 -44 -20 -44 -17 0 -20 7 -20
43 0 48 5 58 26 50 9 -3 14 -21 14 -49z"/>
<path d="M1397 3132 c-21 -23 -22 -39 -2 -22 13 11 15 6 15 -39 0 -28 5 -51
10 -51 6 0 10 28 10 65 0 68 -6 77 -33 47z"/>
<path d="M2021 3131 c-16 -28 -13 -86 3 -101 27 -21 59 -8 68 28 17 63 -44
125 -71 73z m53 -17 c10 -26 7 -49 -9 -70 -13 -16 -16 -17 -25 -4 -11 17 -13
73 -3 83 11 12 31 7 37 -9z"/>
<path d="M2710 3129 c-24 -20 -24 -21 -2 -16 20 5 22 2 22 -44 0 -27 5 -49 10
-49 6 0 10 28 10 65 0 36 -3 65 -7 65 -5 0 -19 -10 -33 -21z"/>
<path d="M4505 3136 c-12 -9 -15 -24 -13 -61 3 -47 5 -50 32 -53 16 -2 32 2
37 10 11 16 11 79 1 94 -12 18 -39 23 -57 10z m40 -57 c0 -32 -4 -44 -15 -44
-16 0 -26 54 -16 82 12 30 31 6 31 -38z"/>
<path d="M1904 3118 c-17 -19 -17 -21 -1 -15 15 6 17 0 17 -44 0 -76 24 -59
28 19 3 69 -9 80 -44 40z"/>
<path d="M4382 3128 c-17 -17 -15 -29 3 -22 12 5 15 -3 15 -40 0 -25 5 -46 10
-46 6 0 10 27 10 60 0 61 -11 75 -38 48z"/>
<path d="M4638 3126 c-24 -18 -23 -29 2 -21 18 6 20 2 20 -39 0 -25 5 -46 10
-46 6 0 10 27 10 60 0 63 -8 72 -42 46z"/>
<path d="M4229 3114 c-29 -35 -9 -114 30 -114 26 0 41 21 41 58 0 63 -39 94
-71 56z m46 -54 c0 -33 -4 -45 -15 -45 -11 0 -16 13 -18 48 -3 42 -1 48 15 45
14 -3 18 -13 18 -48z"/>
<path d="M1775 3106 c-12 -9 -15 -25 -13 -61 3 -48 4 -50 35 -53 29 -3 32 0
39 32 12 69 -20 112 -61 82z m40 -55 c0 -49 -17 -64 -35 -31 -16 29 -3 82 18
78 13 -2 17 -14 17 -47z"/>
<path d="M2832 3091 c-17 -48 3 -101 39 -101 23 0 39 29 39 72 0 39 -15 58
-46 58 -15 0 -25 -9 -32 -29z m56 -35 c-2 -29 -8 -42 -20 -44 -15 -3 -18 4
-18 41 0 49 5 58 26 50 11 -4 14 -18 12 -47z"/>
<path d="M2998 3106 c-22 -16 -23 -27 -3 -20 12 5 15 -4 15 -45 0 -28 5 -51
10 -51 6 0 10 28 10 65 0 68 -3 73 -32 51z"/>
<path d="M3142 3104 c-25 -17 -30 -70 -9 -98 19 -26 59 -17 71 15 20 59 -20
112 -62 83z m43 -33 c7 -33 -10 -74 -28 -68 -13 4 -22 60 -13 83 9 24 34 15
41 -15z"/>
<path d="M1645 3093 c-20 -15 -20 -15 3 -10 20 5 22 2 22 -44 0 -27 5 -49 10
-49 6 0 10 27 10 60 0 64 -9 72 -45 43z"/>
<path d="M4096 3095 c-19 -15 -19 -15 2 -15 19 0 22 -5 22 -45 0 -25 5 -45 10
-45 6 0 10 27 10 60 0 64 -8 72 -44 45z"/>
<path d="M1516 3084 c-16 -15 -21 -69 -10 -98 9 -22 63 -21 71 1 14 35 7 85
-12 99 -24 18 -30 18 -49 -2z m42 -51 c-2 -35 -7 -48 -18 -48 -10 0 -16 12
-18 33 -4 43 3 62 23 62 13 0 15 -10 13 -47z"/>
<path d="M1118 3065 c-18 -39 0 -99 31 -103 43 -6 67 59 41 109 -16 28 -58 25
-72 -6z m60 -44 c-2 -24 -8 -37 -20 -39 -23 -4 -34 41 -19 75 17 37 43 13 39
-36z"/>
<path d="M3303 3071 c-12 -10 -19 -21 -16 -25 3 -3 12 -1 20 5 11 9 13 2 13
-40 0 -28 5 -51 10 -51 6 0 10 28 10 65 0 36 -3 65 -7 65 -5 -1 -18 -9 -30
-19z"/>
<path d="M3414 3064 c-24 -37 -9 -98 25 -102 31 -5 51 21 51 64 0 34 -21 64
-45 64 -8 0 -22 -12 -31 -26z m51 -43 c0 -51 -20 -66 -35 -26 -13 35 -3 77 19
73 12 -2 16 -15 16 -47z"/>
<path d="M3946 3074 c-34 -33 -13 -114 29 -114 42 0 60 64 29 108 -18 26 -37
28 -58 6z m49 -33 c10 -47 -24 -95 -39 -55 -8 21 -8 69 1 77 15 15 32 5 38
-22z"/>
<path d="M3554 3058 c-17 -19 -17 -21 -1 -15 15 6 17 0 17 -43 0 -38 4 -50 15
-50 12 0 15 14 15 65 0 71 -12 82 -46 43z"/>
<path d="M3696 3067 c-24 -17 -26 -92 -3 -114 20 -20 55 -8 63 21 16 64 -22
121 -60 93z m40 -31 c9 -36 1 -71 -16 -71 -16 0 -26 54 -16 81 8 22 25 17 32
-10z"/>
<path d="M3832 3064 c-12 -8 -22 -20 -22 -26 0 -7 4 -7 13 1 20 16 27 4 27
-46 0 -23 5 -43 10 -43 6 0 10 28 10 65 0 36 -3 65 -8 65 -4 0 -18 -7 -30 -16z"/>
<path d="M5570 3072 c-22 -8 -30 -23 -30 -64 0 -77 74 -94 81 -18 6 64 -13 95
-51 82z m25 -63 c0 -32 -4 -44 -15 -44 -17 0 -25 35 -15 72 10 40 30 21 30
-28z"/>
<path d="M757 3052 c-21 -23 -22 -39 -2 -22 13 11 15 6 15 -39 0 -28 5 -51 10
-51 6 0 10 28 10 65 0 68 -6 77 -33 47z"/>
<path d="M612 3025 c-24 -53 -7 -105 33 -105 44 0 63 81 27 113 -26 24 -47 21
-60 -8z m52 -11 c11 -28 6 -61 -10 -75 -13 -10 -17 -10 -25 2 -10 16 -12 73
-2 82 11 12 31 7 37 -9z"/>
<path d="M1268 3006 c-10 -7 -18 -17 -18 -21 0 -4 7 -2 15 5 13 11 15 5 15
-45 0 -41 3 -56 13 -53 7 3 13 28 15 66 3 66 -5 75 -40 48z"/>
<path d="M239 2989 l-24 -20 23 6 c21 6 22 3 22 -44 0 -28 5 -51 10 -51 6 0
10 28 10 65 0 36 -4 65 -9 65 -5 0 -19 -9 -32 -21z"/>
<path d="M352 2981 c-20 -57 17 -119 56 -95 21 13 29 89 11 110 -21 25 -56 17
-67 -15z m56 -40 c-2 -24 -8 -37 -20 -39 -23 -4 -34 41 -19 75 17 37 43 13 39
-36z"/>
<path d="M492 2998 c-17 -17 -15 -33 3 -18 18 15 22 5 28 -55 3 -28 4 -22 5
23 2 63 -8 78 -36 50z"/>
<path d="M5160 2990 c-36 -36 -17 -120 28 -120 23 0 45 48 38 85 -9 47 -38 63
-66 35z m40 -26 c12 -31 3 -74 -16 -74 -17 0 -28 42 -20 75 8 32 24 32 36 -1z"/>
<path d="M2292 2988 c-17 -17 -15 -29 3 -22 12 5 15 -4 15 -45 0 -28 5 -51 10
-51 6 0 10 28 10 65 0 66 -10 81 -38 53z"/>
<path d="M2152 2978 c-15 -15 -16 -72 -2 -99 24 -43 74 -12 74 46 0 54 -41 84
-72 53z m48 -54 c0 -37 -3 -44 -20 -44 -17 0 -20 7 -20 44 0 26 5 46 13 49 21
8 27 -3 27 -49z"/>
<path d="M2418 2965 c-18 -39 0 -99 31 -103 43 -6 67 59 41 109 -16 28 -58 25
-72 -6z m60 -44 c-2 -24 -8 -37 -20 -39 -23 -4 -34 41 -19 75 17 37 43 13 39
-36z"/>
<path d="M2564 2968 c-17 -19 -17 -21 -1 -15 15 6 17 0 17 -44 0 -76 24 -59
28 19 3 69 -9 80 -44 40z"/>
<path d="M882 2968 c-17 -17 -15 -29 3 -22 12 5 15 -3 15 -40 0 -25 5 -46 10
-46 6 0 10 27 10 60 0 61 -11 75 -38 48z"/>
<path d="M1005 2966 c-12 -9 -15 -25 -13 -61 3 -50 3 -50 38 -50 32 0 35 2 38
34 7 69 -24 106 -63 77z m40 -57 c0 -34 -4 -44 -17 -47 -15 -3 -18 4 -18 41 0
24 3 47 7 51 16 16 28 -4 28 -45z"/>
<path d="M5039 2959 c-17 -15 -19 -19 -6 -15 15 5 17 -2 17 -44 0 -38 4 -50
15 -50 12 0 15 14 15 65 0 36 -4 65 -9 65 -5 0 -19 -9 -32 -21z"/>
<path d="M5298 2966 c-22 -16 -23 -27 -3 -20 12 5 15 -4 15 -45 0 -28 5 -51
10 -51 6 0 10 28 10 65 0 68 -3 73 -32 51z"/>
<path d="M5842 2968 c-17 -17 -15 -29 3 -22 12 5 15 -3 15 -40 0 -25 5 -46 10
-46 6 0 10 27 10 60 0 61 -11 75 -38 48z"/>
<path d="M4908 2959 c-41 -23 -29 -119 16 -119 33 0 48 22 44 66 -3 43 -33 69
-60 53z m38 -34 c8 -33 -3 -77 -19 -72 -13 4 -22 60 -13 83 8 22 25 16 32 -11z"/>
<path d="M5430 2950 c-36 -36 -20 -110 23 -110 31 0 47 18 47 53 0 60 -37 90
-70 57z m46 -25 c9 -38 -3 -77 -24 -73 -17 3 -29 56 -18 84 9 23 35 16 42 -11z"/>
<path d="M5684 2948 c-17 -19 -17 -21 -1 -15 15 6 17 0 17 -43 0 -47 11 -63
25 -40 8 13 -5 120 -15 120 -4 0 -15 -10 -26 -22z"/>
<path d="M1382 2938 c-15 -15 -16 -72 -2 -99 24 -43 74 -12 74 46 0 54 -41 84
-72 53z m48 -54 c0 -38 -3 -45 -17 -42 -22 4 -30 62 -13 84 19 22 30 7 30 -42z"/>
<path d="M2038 2936 c-22 -16 -23 -30 -3 -22 12 4 15 -4 15 -44 0 -52 15 -68
26 -27 8 33 1 100 -11 103 -5 2 -18 -3 -27 -10z"/>
<path d="M2702 2937 c-21 -25 -25 -66 -8 -92 32 -48 76 -22 76 44 0 47 -43 78
-68 48z m43 -52 c0 -30 -4 -41 -17 -43 -15 -3 -18 4 -18 43 0 39 3 46 18 43
13 -2 17 -13 17 -43z"/>
<path d="M4780 2929 c-24 -20 -24 -20 -2 -14 21 6 22 3 22 -44 0 -28 5 -51 10
-51 6 0 10 28 10 65 0 36 -3 65 -7 65 -5 0 -19 -10 -33 -21z"/>
<path d="M1888 2905 c-18 -39 0 -99 31 -103 43 -6 67 59 41 109 -16 28 -58 25
-72 -6z m62 -36 c0 -28 -11 -49 -26 -49 -20 0 -29 47 -14 78 11 26 12 26 26 7
8 -10 14 -27 14 -36z"/>
<path d="M4366 2915 c-18 -48 1 -115 33 -115 30 0 42 25 39 77 -3 46 -4 48
-34 51 -22 2 -33 -2 -38 -13z m49 -46 c0 -32 -4 -44 -15 -44 -16 0 -26 54 -16
82 12 30 31 6 31 -38z"/>
<path d="M4512 2918 c-17 -17 -15 -29 3 -22 12 5 15 -4 15 -45 0 -28 5 -51 10
-51 6 0 10 28 10 65 0 66 -10 81 -38 53z"/>
<path d="M4620 2911 c-26 -49 6 -120 48 -107 26 9 37 43 28 91 -6 31 -11 35
-36 35 -19 0 -33 -7 -40 -19z m55 -42 c0 -33 -4 -45 -17 -47 -21 -4 -34 49
-18 78 18 33 35 18 35 -31z"/>
<path d="M1642 2908 c-13 -13 -16 -75 -6 -102 4 -9 18 -16 34 -16 30 0 40 15
40 61 0 58 -37 88 -68 57z m43 -59 c0 -32 -4 -44 -15 -44 -16 0 -26 54 -16 82
12 30 31 6 31 -38z"/>
<path d="M4240 2899 c-24 -20 -24 -21 -2 -16 20 5 22 2 22 -44 0 -27 5 -49 10
-49 6 0 10 28 10 65 0 36 -3 65 -7 65 -5 0 -19 -10 -33 -21z"/>
<path d="M2849 2889 l-24 -20 23 6 c21 6 22 3 22 -44 0 -28 5 -51 10 -51 6 0
10 28 10 65 0 36 -4 65 -9 65 -5 0 -19 -9 -32 -21z"/>
<path d="M2980 2891 c-12 -24 -13 -81 -1 -99 5 -8 21 -12 37 -10 27 3 29 6 32
51 2 27 -2 55 -9 63 -16 20 -46 17 -59 -5z m48 -48 c-2 -35 -7 -48 -18 -48
-10 0 -16 12 -18 33 -4 43 3 62 23 62 13 0 15 -10 13 -47z"/>
<path d="M1778 2886 c-24 -18 -23 -29 2 -21 18 6 20 2 20 -39 0 -25 5 -46 10
-46 6 0 10 27 10 60 0 63 -8 72 -42 46z"/>
<path d="M3142 2888 c-17 -17 -15 -29 3 -22 12 5 15 -3 15 -40 0 -25 5 -46 10
-46 6 0 10 27 10 60 0 61 -11 75 -38 48z"/>
<path d="M4079 2873 c-26 -68 22 -131 65 -87 18 18 21 66 6 95 -16 30 -58 25
-71 -8z m59 -42 c-2 -24 -9 -37 -19 -39 -22 -4 -32 38 -19 73 9 23 13 25 26
14 10 -8 14 -25 12 -48z"/>
<path d="M1134 2869 c-19 -21 -19 -22 4 -15 21 7 22 5 22 -43 0 -28 5 -51 10
-51 6 0 10 28 10 65 0 71 -12 82 -46 44z"/>
<path d="M120 2858 c-16 -13 -19 -18 -7 -14 15 5 17 -2 17 -44 0 -49 19 -73
21 -27 1 12 3 33 4 47 1 14 0 33 -4 42 -5 15 -8 15 -31 -4z"/>
<path d="M1519 2863 c-12 -15 -12 -16 4 -10 15 6 17 0 17 -43 0 -28 5 -50 10
-50 6 0 10 27 10 60 0 63 -13 77 -41 43z"/>
<path d="M3298 2869 c-12 -7 -18 -22 -18 -49 0 -56 8 -70 40 -70 16 0 30 7 34
16 11 29 6 83 -10 98 -18 19 -23 19 -46 5z m37 -59 c0 -33 -4 -45 -15 -45 -11
0 -16 13 -18 48 -3 42 -1 48 15 45 14 -3 18 -13 18 -48z"/>
<path d="M3428 2856 c-24 -18 -23 -29 2 -21 18 6 20 2 20 -44 0 -28 5 -51 10
-51 6 0 10 28 10 65 0 68 -8 77 -42 51z"/>
<path d="M3551 2851 c-23 -23 -26 -46 -11 -85 11 -29 50 -36 69 -12 19 23 9
87 -16 103 -19 13 -24 12 -42 -6z m43 -17 c11 -28 6 -61 -10 -75 -13 -10 -17
-10 -25 2 -18 29 -7 89 16 89 7 0 16 -7 19 -16z"/>
<path d="M3958 2856 c-22 -16 -23 -27 -3 -20 12 5 15 -4 15 -45 0 -28 5 -51
10 -51 6 0 10 28 10 65 0 68 -3 73 -32 51z"/>
<path d="M3702 2848 c-17 -17 -15 -29 3 -22 12 5 15 -4 15 -45 0 -28 5 -51 10
-51 6 0 10 28 10 65 0 66 -10 81 -38 53z"/>
<path d="M3811 2841 c-17 -30 -13 -66 8 -92 16 -20 23 -22 38 -13 47 29 40
116 -9 122 -18 2 -30 -3 -37 -17z m55 -15 c9 -37 1 -70 -18 -74 -21 -4 -33 35
-24 73 8 32 34 32 42 1z"/>
<path d="M5568 2849 c-22 -12 -24 -31 -3 -23 12 5 15 -4 15 -45 0 -28 5 -51
10 -51 6 0 10 28 10 65 0 67 -3 72 -32 54z"/>
<path d="M742 2828 c-15 -15 -16 -72 -2 -99 24 -43 74 -12 74 46 0 54 -41 84
-72 53z m48 -54 c0 -38 -3 -45 -17 -42 -22 4 -30 62 -13 84 19 22 30 7 30 -42z"/>
<path d="M628 2819 c-10 -5 -18 -15 -18 -21 0 -7 5 -6 15 2 13 11 15 5 15 -44
0 -64 14 -75 24 -18 14 86 5 106 -36 81z"/>
<path d="M1260 2810 c-36 -36 -20 -110 23 -110 31 0 47 18 47 53 0 60 -37 90
-70 57z m46 -25 c9 -38 -3 -77 -24 -73 -19 4 -27 37 -18 74 8 31 34 31 42 -1z"/>
<path d="M230 2805 c-16 -19 -16 -81 0 -100 29 -35 70 -10 70 43 0 62 -39 95
-70 57z m45 -55 c0 -33 -4 -45 -15 -45 -11 0 -16 13 -18 48 -3 42 -1 48 15 45
14 -3 18 -13 18 -48z"/>
<path d="M364 2789 c-19 -21 -19 -22 4 -15 21 7 22 5 22 -43 0 -28 5 -51 10
-51 6 0 10 28 10 65 0 71 -12 82 -46 44z"/>
<path d="M490 2790 c-39 -39 -18 -115 30 -108 46 6 53 95 10 118 -15 8 -24 6
-40 -10z m46 -24 c9 -37 1 -70 -18 -74 -21 -4 -33 35 -24 73 8 32 34 32 42 1z"/>
<path d="M2281 2796 c-18 -21 -10 -97 12 -110 28 -18 52 4 55 53 3 46 -10 71
-38 71 -10 0 -23 -6 -29 -14z m47 -53 c-2 -35 -7 -48 -18 -48 -10 0 -16 12
-18 33 -4 43 3 62 23 62 13 0 15 -10 13 -47z"/>
<path d="M5912 2798 c-17 -17 -15 -93 3 -108 12 -10 21 -10 40 -2 21 10 25 19
25 55 0 45 -13 67 -40 67 -9 0 -21 -5 -28 -12z m46 -52 c-4 -50 -32 -64 -41
-19 -7 38 8 74 28 67 12 -5 15 -17 13 -48z"/>
<path d="M2560 2780 c-39 -39 -18 -115 30 -108 46 6 53 95 10 118 -15 8 -24 6
-40 -10z m44 -16 c16 -42 -7 -96 -34 -79 -11 7 -14 78 -3 88 11 12 31 7 37 -9z"/>
<path d="M2162 2778 c-17 -17 -15 -33 3 -18 13 11 15 6 15 -39 0 -28 5 -51 10
-51 6 0 10 27 10 60 0 61 -11 75 -38 48z"/>
<path d="M2435 2774 c-20 -16 -20 -16 3 -9 21 6 22 4 22 -44 0 -28 5 -51 10
-51 6 0 10 27 10 60 0 64 -8 72 -45 44z"/>
<path d="M5168 2776 c-22 -16 -23 -27 -3 -20 12 5 15 -3 15 -39 0 -25 5 -49
10 -52 6 -4 10 18 10 59 0 69 -3 74 -32 52z"/>
<path d="M867 2763 c-12 -11 -8 -98 5 -111 18 -18 46 -14 58 7 11 22 13 71 4
95 -6 16 -54 22 -67 9z m48 -54 c0 -32 -4 -44 -15 -44 -16 0 -26 54 -16 82 12
30 31 6 31 -38z"/>
<path d="M5034 2762 c-18 -11 -26 -66 -15 -95 8 -19 18 -27 35 -27 33 0 50 32
42 78 -7 45 -33 64 -62 44z m44 -52 c3 -47 -11 -69 -32 -51 -28 23 -17 95 13
89 10 -2 17 -15 19 -38z"/>
<path d="M5282 2758 c-7 -7 -12 -30 -12 -53 0 -46 13 -65 46 -65 25 0 34 17
34 65 0 18 -3 40 -6 49 -7 19 -45 21 -62 4z m52 -53 c0 -40 -7 -50 -29 -42
-18 8 -21 67 -3 85 18 18 32 -2 32 -43z"/>
<path d="M1012 2748 c-17 -17 -15 -29 3 -22 12 5 15 -4 15 -45 0 -28 5 -51 10
-51 6 0 10 28 10 65 0 66 -10 81 -38 53z"/>
<path d="M5670 2734 c-21 -55 -4 -104 35 -104 42 0 60 64 29 108 -21 30 -52
28 -64 -4z m54 -10 c11 -28 6 -61 -10 -75 -13 -10 -17 -10 -25 2 -10 16 -12
73 -2 82 11 12 31 7 37 -9z"/>
<path d="M1398 2736 c-22 -16 -23 -30 -3 -22 12 4 15 -4 15 -44 0 -28 5 -50
10 -50 6 0 10 28 10 65 0 68 -3 73 -32 51z"/>
<path d="M2022 2738 c-16 -16 -15 -80 1 -102 8 -11 22 -17 37 -14 49 7 46 128
-4 128 -12 0 -27 -5 -34 -12z m58 -52 c0 -31 -16 -50 -34 -43 -19 8 -22 67 -4
85 10 10 15 9 25 -5 7 -9 13 -26 13 -37z"/>
<path d="M2704 2729 c-19 -21 -19 -22 4 -15 21 7 22 5 22 -43 0 -28 5 -51 10
-51 6 0 10 28 10 65 0 71 -12 82 -46 44z"/>
<path d="M4904 2729 c-19 -21 -19 -22 4 -15 21 7 22 5 22 -43 0 -28 5 -51 10
-51 6 0 10 28 10 65 0 71 -12 82 -46 44z"/>
<path d="M5438 2739 c-10 -5 -18 -15 -18 -21 0 -7 5 -6 15 2 13 11 15 5 15
-45 0 -41 3 -56 13 -53 7 3 13 28 15 66 3 65 -3 73 -40 51z"/>
<path d="M4771 2726 c-18 -21 -10 -97 12 -110 28 -18 52 4 55 53 3 46 -10 71
-38 71 -10 0 -23 -6 -29 -14z m44 -56 c0 -33 -4 -45 -15 -45 -11 0 -16 13 -18
48 -3 42 -1 48 15 45 14 -3 18 -13 18 -48z"/>
<path d="M1650 2699 c-24 -20 -24 -20 -2 -14 21 6 22 3 22 -44 0 -28 5 -51 10
-51 6 0 10 28 10 65 0 36 -3 65 -7 65 -5 0 -19 -10 -33 -21z"/>
<path d="M1904 2699 c-17 -20 -17 -22 -1 -16 15 6 17 0 17 -44 0 -36 4 -49 13
-47 15 6 17 120 1 125 -6 2 -19 -6 -30 -18z"/>
<path d="M4388 2706 c-22 -16 -23 -27 -3 -20 12 5 15 -4 15 -45 0 -28 5 -51
10 -51 6 0 10 28 10 65 0 68 -3 73 -32 51z"/>
<path d="M4501 2706 c-18 -21 -10 -97 12 -110 26 -17 51 4 55 47 5 63 -35 101
-67 63z m44 -51 c0 -30 -4 -41 -17 -43 -15 -3 -18 4 -18 43 0 39 3 46 18 43
13 -2 17 -13 17 -43z"/>
<path d="M4634 2699 c-19 -21 -19 -22 4 -15 21 7 22 5 22 -43 0 -28 5 -51 10
-51 6 0 10 28 10 65 0 71 -12 82 -46 44z"/>
<path d="M4236 2697 c-19 -14 -26 -82 -12 -106 11 -17 63 -13 70 5 11 29 6 83
-10 98 -19 19 -25 20 -48 3z m39 -58 c0 -32 -4 -44 -15 -44 -16 0 -26 54 -16
82 12 30 31 6 31 -38z"/>
<path d="M1130 2680 c-36 -36 -20 -110 25 -110 42 0 60 64 29 108 -19 27 -28
28 -54 2z m45 -49 c0 -49 -17 -64 -35 -31 -16 29 -3 82 18 78 13 -2 17 -14 17
-47z"/>
<path d="M2840 2685 c-16 -20 -17 -80 -1 -99 32 -38 71 -11 71 49 0 59 -39 87
-70 50z m50 -50 c0 -38 -3 -45 -20 -45 -17 0 -20 7 -20 45 0 38 3 45 20 45 17
0 20 -7 20 -45z"/>
<path d="M1765 2680 c-3 -6 -7 -29 -7 -51 0 -48 20 -74 51 -64 25 8 36 43 27
90 -6 30 -11 35 -36 35 -16 0 -32 -5 -35 -10z m50 -51 c0 -33 -4 -45 -17 -47
-21 -4 -34 49 -18 78 18 33 35 18 35 -31z"/>
<path d="M2989 2673 c-12 -15 -12 -16 4 -10 15 6 17 0 17 -43 0 -28 5 -50 10
-50 6 0 10 27 10 60 0 63 -13 77 -41 43z"/>
<path d="M3131 2671 c-26 -48 4 -123 44 -107 47 18 42 118 -7 124 -18 2 -30
-3 -37 -17z m49 -17 c13 -34 2 -76 -19 -72 -10 2 -17 15 -19 37 -6 60 20 84
38 35z"/>
<path d="M4094 2669 c-19 -21 -19 -22 4 -15 21 7 22 5 22 -43 0 -28 5 -51 10
-51 6 0 10 28 10 65 0 71 -12 82 -46 44z"/>
<path d="M1516 2664 c-18 -18 -21 -76 -6 -105 13 -23 43 -25 61 -3 20 24 16
95 -7 111 -23 17 -29 16 -48 -3z m39 -55 c0 -32 -4 -44 -15 -44 -16 0 -26 54
-16 82 12 30 31 6 31 -38z"/>
<path d="M3302 2648 c-17 -17 -15 -29 3 -22 12 5 15 -3 15 -40 0 -25 5 -46 10
-46 6 0 10 27 10 60 0 61 -11 75 -38 48z"/>
<path d="M3409 2633 c-26 -68 22 -131 65 -87 18 18 21 66 6 95 -16 30 -58 25
-71 -8z m59 -42 c-2 -24 -9 -37 -19 -39 -22 -4 -32 38 -19 73 9 23 13 25 26
14 10 -8 14 -25 12 -48z"/>
<path d="M3940 2641 c-23 -45 -3 -111 35 -111 23 0 45 30 45 61 0 43 -17 69
-45 69 -14 0 -29 -8 -35 -19z m60 -45 c0 -31 -16 -50 -34 -43 -19 8 -22 67 -4
85 10 10 15 9 25 -5 7 -9 13 -26 13 -37z"/>
<path d="M3555 2630 c-17 -18 -17 -20 -2 -14 15 5 17 -1 17 -45 0 -39 4 -51
15 -51 12 0 15 14 15 65 0 71 -11 82 -45 45z"/>
<path d="M3680 2616 c-19 -60 15 -110 59 -86 16 8 21 20 21 53 0 48 -13 67
-46 67 -17 0 -25 -9 -34 -34z m58 -35 c-2 -25 -8 -37 -20 -39 -15 -3 -18 4
-18 41 0 50 7 62 27 45 9 -7 13 -25 11 -47z"/>
<path d="M3824 2629 c-19 -21 -19 -22 4 -15 21 7 22 5 22 -43 0 -28 5 -51 10
-51 6 0 10 28 10 65 0 71 -12 82 -46 44z"/>
<path d="M5552 2638 c-17 -17 -15 -84 4 -102 32 -33 68 -7 68 49 0 54 -41 84
-72 53z m48 -54 c0 -38 -3 -45 -17 -42 -22 4 -30 62 -13 84 19 22 30 7 30 -42z"/>
<path d="M1264 2604 c-16 -13 -16 -15 -1 -10 15 5 17 -2 17 -44 0 -38 4 -50
15 -50 12 0 15 13 15 60 0 64 -9 74 -46 44z"/>
<path d="M2290 2589 c-24 -20 -24 -20 -2 -14 21 6 22 3 22 -44 0 -28 5 -51 10
-51 6 0 10 28 10 65 0 36 -3 65 -7 65 -5 0 -19 -10 -33 -21z"/>
<path d="M2151 2581 c-16 -28 -13 -86 3 -101 27 -21 59 -8 68 28 17 63 -44
125 -71 73z m47 -48 c-2 -35 -7 -48 -18 -48 -10 0 -16 12 -18 33 -4 43 3 62
23 62 13 0 15 -10 13 -47z"/>
<path d="M2426 2578 c-31 -44 -14 -108 30 -108 34 0 50 38 38 88 -11 45 -44
55 -68 20z m49 -47 c0 -49 -17 -64 -35 -31 -16 29 -3 82 18 78 13 -2 17 -14
17 -47z"/>
<path d="M2564 2579 c-17 -20 -17 -22 -1 -16 15 6 17 0 17 -43 0 -38 4 -50 15
-50 13 0 15 11 13 62 -3 68 -15 80 -44 47z"/>
<path d="M5914 2579 c-19 -21 -19 -22 4 -15 21 7 22 5 22 -43 0 -28 5 -51 10
-51 6 0 10 28 10 65 0 71 -12 82 -46 44z"/>
<path d="M5150 2561 c-15 -29 -12 -77 6 -95 43 -44 91 19 65 87 -13 33 -55 38
-71 8z m50 -17 c12 -31 3 -74 -16 -74 -19 0 -29 47 -15 76 14 30 19 30 31 -2z"/>
<path d="M1392 2544 c-25 -17 -31 -81 -10 -102 22 -22 58 -14 69 15 22 59 -17
117 -59 87z m36 -51 c-2 -35 -7 -48 -18 -48 -10 0 -16 12 -18 33 -4 43 3 62
23 62 13 0 15 -10 13 -47z"/>
<path d="M2708 2549 c-41 -23 -29 -119 16 -119 33 0 48 22 44 66 -3 43 -33 69
-60 53z m40 -49 c1 -19 -2 -41 -7 -49 -15 -24 -31 -1 -31 45 0 38 3 45 18 42
12 -2 18 -14 20 -38z"/>
<path d="M5295 2540 c-17 -18 -17 -20 -2 -14 15 5 17 -1 17 -45 0 -28 5 -51
10 -51 6 0 10 28 10 65 0 36 -4 65 -8 65 -5 0 -17 -9 -27 -20z"/>
<path d="M2038 2539 c-10 -5 -18 -15 -18 -21 0 -7 5 -6 15 2 13 11 15 6 15
-39 0 -36 4 -51 14 -51 9 0 14 17 15 60 2 63 -5 70 -41 49z"/>
<path d="M5038 2539 c-10 -5 -18 -15 -18 -21 0 -7 5 -6 15 2 13 11 15 6 15
-39 0 -39 4 -51 15 -51 12 0 15 13 15 60 0 62 -7 70 -42 49z"/>
<path d="M4903 2533 c-22 -8 -27 -70 -9 -98 31 -47 76 -23 76 40 0 52 -26 75
-67 58z m45 -62 c-2 -25 -8 -37 -20 -39 -15 -3 -18 4 -18 41 0 50 7 62 27 45
9 -7 13 -25 11 -47z"/>
<path d="M5418 2515 c-18 -39 0 -99 31 -103 31 -5 51 21 51 64 0 60 -60 88
-82 39z m62 -39 c0 -31 -16 -50 -34 -43 -19 8 -22 67 -4 85 10 10 15 9 25 -5
7 -9 13 -26 13 -37z"/>
<path d="M5688 2529 c-10 -5 -18 -15 -18 -21 0 -7 5 -6 15 2 13 11 15 6 15
-39 0 -28 4 -51 9 -51 14 0 16 15 13 70 -4 53 -7 55 -34 39z"/>
<path d="M1648 2519 c-23 -13 -25 -101 -3 -119 20 -16 54 -3 61 24 15 61 -19
117 -58 95z m37 -60 c0 -32 -4 -44 -15 -44 -16 0 -26 54 -16 82 12 30 31 6 31
-38z"/>
<path d="M4782 2508 c-17 -17 -15 -29 3 -22 12 5 15 -4 15 -45 0 -28 5 -51 10
-51 6 0 10 28 10 65 0 66 -10 81 -38 53z"/>
<path d="M1896 2488 c-31 -44 -13 -108 29 -108 44 0 63 81 27 113 -25 23 -38
21 -56 -5z m50 -24 c7 -27 -9 -74 -25 -74 -13 0 -22 46 -15 75 8 33 32 32 40
-1z"/>
<path d="M4370 2491 c-12 -24 -13 -81 -1 -99 5 -8 21 -12 37 -10 27 3 29 6 32
51 2 27 -2 55 -9 63 -16 20 -46 17 -59 -5z m48 -48 c-2 -35 -7 -48 -18 -48
-10 0 -16 12 -18 33 -4 43 3 62 23 62 13 0 15 -10 13 -47z"/>
<path d="M4510 2488 c-24 -21 -24 -21 -2 -15 21 5 22 2 22 -44 0 -27 5 -49 10
-49 6 0 10 28 10 65 0 36 -3 65 -7 65 -5 -1 -19 -10 -33 -22z"/>
<path d="M4618 2485 c-18 -39 0 -99 31 -103 43 -6 67 59 41 109 -16 28 -58 25
-72 -6z m60 -44 c-2 -24 -8 -37 -20 -39 -23 -4 -34 41 -19 75 17 37 43 13 39
-36z"/>
<path d="M2850 2469 c-24 -20 -24 -20 -2 -14 21 6 22 3 22 -44 0 -28 5 -51 10
-51 6 0 10 28 10 65 0 36 -3 65 -7 65 -5 0 -19 -10 -33 -21z"/>
<path d="M4242 2478 c-17 -17 -15 -29 3 -22 12 5 15 -3 15 -40 0 -25 5 -46 10
-46 6 0 10 27 10 60 0 61 -11 75 -38 48z"/>
<path d="M1779 2459 l-24 -20 23 6 c21 6 22 3 22 -44 0 -28 5 -51 10 -51 6 0
10 28 10 65 0 36 -4 65 -9 65 -5 0 -19 -9 -32 -21z"/>
<path d="M2982 2468 c-17 -17 -15 -84 4 -102 34 -34 64 -11 64 49 0 43 -13 65
-40 65 -9 0 -21 -5 -28 -12z m48 -54 c0 -38 -3 -45 -17 -42 -22 4 -31 77 -12
89 21 13 29 0 29 -47z"/>
<path d="M3144 2458 c-17 -19 -17 -21 -1 -15 15 6 17 0 17 -43 0 -28 5 -50 10
-50 6 0 10 28 10 65 0 36 -4 65 -8 65 -5 0 -17 -10 -28 -22z"/>
<path d="M4084 2455 c-24 -37 -12 -93 23 -101 19 -5 30 -2 40 11 28 40 7 115
-32 115 -8 0 -22 -11 -31 -25z m51 -40 c0 -29 -4 -41 -16 -43 -19 -4 -31 32
-22 66 10 40 38 23 38 -23z"/>
<path d="M1528 2449 c-22 -12 -24 -31 -3 -23 12 5 15 -4 15 -45 0 -28 5 -51
10 -51 6 0 10 28 10 65 0 67 -3 72 -32 54z"/>
<path d="M3287 2443 c-4 -3 -7 -28 -7 -53 0 -58 18 -79 55 -62 20 10 25 19 25
51 0 56 -8 71 -39 71 -15 0 -31 -3 -34 -7z m48 -54 c0 -34 -4 -44 -17 -47 -15
-3 -18 4 -18 41 0 24 3 47 7 51 16 16 28 -4 28 -45z"/>
<path d="M3424 2429 c-19 -21 -19 -22 4 -15 21 7 22 5 22 -43 0 -28 5 -51 10
-51 6 0 10 28 10 65 0 71 -12 82 -46 44z"/>
<path d="M3954 2428 c-17 -19 -17 -21 -1 -15 15 6 17 0 17 -43 0 -28 5 -50 10
-50 6 0 10 28 10 65 0 36 -4 65 -8 65 -5 0 -17 -10 -28 -22z"/>
<path d="M3539 2413 c-17 -43 0 -97 30 -101 43 -6 67 59 41 109 -16 30 -58 25
-71 -8z m61 -32 c0 -35 -15 -55 -34 -48 -19 8 -22 67 -4 85 17 17 38 -4 38
-37z"/>
<path d="M3699 2419 l-24 -20 23 6 c21 6 22 3 22 -44 0 -28 5 -51 10 -51 6 0
10 28 10 65 0 36 -4 65 -9 65 -5 0 -19 -9 -32 -21z"/>
<path d="M3810 2421 c-25 -47 -5 -111 35 -111 27 0 45 25 45 65 0 40 -18 65
-45 65 -14 0 -29 -8 -35 -19z m58 -50 c-2 -24 -8 -37 -20 -39 -23 -4 -34 41
-19 75 17 37 43 13 39 -36z"/>
<path d="M5568 2426 c-22 -16 -23 -30 -3 -22 12 4 15 -4 15 -44 0 -28 5 -50
10 -50 6 0 10 28 10 65 0 68 -3 73 -32 51z"/>
<path d="M2281 2396 c-18 -21 -10 -97 12 -110 28 -18 52 4 55 53 3 46 -10 71
-38 71 -10 0 -23 -6 -29 -14z m49 -52 c0 -37 -3 -44 -20 -44 -17 0 -20 7 -20
44 0 26 5 46 13 49 21 8 27 -3 27 -49z"/>
<path d="M2165 2380 c-17 -18 -17 -20 -2 -14 15 5 17 -1 17 -45 0 -28 5 -51
10 -51 6 0 10 28 10 65 0 36 -4 65 -8 65 -5 0 -17 -9 -27 -20z"/>
<path d="M2440 2379 c-24 -20 -24 -20 -2 -14 21 6 22 3 22 -44 0 -28 5 -51 10
-51 6 0 10 28 10 65 0 36 -3 65 -7 65 -5 0 -19 -10 -33 -21z"/>
<path d="M2556 2378 c-31 -44 -13 -108 29 -108 44 0 63 81 27 113 -25 23 -38
21 -56 -5z m50 -22 c9 -37 1 -61 -21 -61 -15 0 -21 8 -23 28 -2 16 -1 35 2 43
9 23 35 16 42 -10z"/>
<path d="M5920 2369 c-24 -20 -24 -20 -2 -14 21 6 22 3 22 -44 0 -28 5 -51 10
-51 6 0 10 28 10 65 0 36 -3 65 -7 65 -5 0 -19 -10 -33 -21z"/>
<path d="M5164 2348 c-17 -19 -17 -21 -1 -15 15 6 17 0 17 -43 0 -28 5 -50 10
-50 6 0 10 28 10 65 0 36 -4 65 -8 65 -5 0 -17 -10 -28 -22z"/>
<path d="M1397 2342 c-21 -23 -22 -39 -2 -22 13 11 15 6 15 -39 0 -28 5 -51
10 -51 6 0 10 28 10 65 0 68 -6 77 -33 47z"/>
<path d="M2021 2341 c-16 -28 -13 -86 3 -101 27 -21 59 -8 68 28 17 63 -44
125 -71 73z m53 -17 c10 -26 7 -49 -9 -70 -13 -16 -16 -17 -25 -4 -11 17 -13
73 -3 83 11 12 31 7 37 -9z"/>
<path d="M2710 2339 c-24 -20 -24 -21 -2 -16 20 5 22 2 22 -44 0 -27 5 -49 10
-49 6 0 10 28 10 65 0 36 -3 65 -7 65 -5 0 -19 -10 -33 -21z"/>
<path d="M5034 2336 c-25 -19 -26 -93 -1 -111 28 -20 56 -7 63 30 12 63 -23
109 -62 81z m42 -31 c8 -34 -3 -75 -21 -75 -18 0 -29 41 -21 75 4 14 13 25 21
25 8 0 17 -11 21 -25z"/>
<path d="M5282 2338 c-14 -14 -16 -86 -3 -106 5 -8 21 -12 37 -10 27 3 29 6
32 51 2 27 -2 55 -9 63 -14 17 -41 18 -57 2z m52 -32 c8 -31 -10 -79 -27 -74
-13 5 -22 61 -13 84 9 22 33 16 40 -10z"/>
<path d="M5688 2333 c-23 -6 -34 -66 -19 -99 15 -35 62 -30 75 7 18 52 -13
102 -56 92z m38 -38 c9 -38 -3 -77 -24 -73 -19 4 -27 37 -18 74 8 31 34 31 42
-1z"/>
<path d="M4910 2309 c-24 -20 -24 -20 -2 -14 21 6 22 3 22 -44 0 -28 5 -51 10
-51 6 0 10 28 10 65 0 36 -3 65 -7 65 -5 0 -19 -10 -33 -21z"/>
<path d="M5434 2309 c-17 -20 -17 -22 -1 -16 15 6 17 0 17 -44 0 -36 4 -49 13
-46 15 5 17 119 1 124 -6 2 -19 -6 -30 -18z"/>
<path d="M1649 2303 c-12 -15 -12 -16 4 -10 15 6 17 0 17 -43 0 -28 5 -50 10
-50 6 0 10 27 10 60 0 63 -13 77 -41 43z"/>
<path d="M4772 2298 c-15 -15 -16 -72 -2 -99 12 -21 40 -25 58 -7 16 16 16 90
0 106 -7 7 -19 12 -28 12 -9 0 -21 -5 -28 -12z m43 -49 c0 -34 -4 -44 -17 -47
-15 -3 -18 4 -18 41 0 24 3 47 7 51 16 16 28 -4 28 -45z"/>
<path d="M4508 2289 c-12 -7 -18 -22 -18 -49 0 -56 8 -70 40 -70 16 0 30 7 34
16 11 29 6 83 -10 98 -18 19 -23 19 -46 5z m37 -60 c0 -32 -4 -44 -15 -44 -16
0 -26 54 -16 82 12 30 31 6 31 -38z"/>
<path d="M4639 2279 l-24 -20 23 6 c21 6 22 3 22 -44 0 -28 5 -51 10 -51 6 0
10 28 10 65 0 36 -4 65 -9 65 -5 0 -19 -9 -32 -21z"/>
<path d="M1899 2273 c-12 -15 -12 -16 4 -10 15 6 17 0 17 -43 0 -38 4 -50 15
-50 12 0 15 13 15 60 0 52 -2 60 -19 60 -10 0 -25 -8 -32 -17z"/>
<path d="M4379 2273 c-12 -15 -12 -16 4 -10 15 6 17 0 17 -43 0 -28 5 -50 10
-50 6 0 10 27 10 60 0 63 -13 77 -41 43z"/>
<path d="M2840 2265 c-14 -16 -17 -85 -6 -104 9 -15 49 -14 64 1 15 15 16 72
2 99 -13 23 -43 25 -60 4z m45 -55 c0 -33 -4 -45 -15 -45 -11 0 -16 13 -18 48
-3 42 -1 48 15 45 14 -3 18 -13 18 -48z"/>
<path d="M4220 2245 c-20 -60 25 -118 65 -85 18 15 20 91 3 108 -24 24 -56 14
-68 -23z m60 -30 c0 -38 -3 -45 -20 -45 -17 0 -20 7 -20 45 0 38 3 45 20 45
17 0 20 -7 20 -45z"/>
<path d="M1770 2256 c-13 -16 -16 -88 -5 -106 3 -5 19 -10 35 -10 26 0 30 4
36 37 13 68 -31 121 -66 79z m45 -55 c0 -49 -17 -64 -35 -31 -16 29 -3 82 18
78 13 -2 17 -14 17 -47z"/>
<path d="M2998 2256 c-22 -16 -23 -27 -3 -20 12 5 15 -4 15 -45 0 -28 5 -51
10 -51 6 0 10 28 10 65 0 68 -3 73 -32 51z"/>
<path d="M3136 2254 c-19 -19 -21 -74 -3 -98 8 -11 23 -17 38 -14 34 4 49 65
25 102 -19 30 -38 33 -60 10z m48 -28 c8 -31 -10 -79 -27 -74 -13 5 -22 61
-13 84 9 22 33 16 40 -10z"/>
<path d="M4100 2250 l-25 -20 23 0 c19 0 22 -5 22 -45 0 -25 5 -45 10 -45 6 0
10 28 10 65 0 36 -3 65 -7 65 -5 0 -19 -9 -33 -20z"/>
<path d="M1510 2230 c-6 -11 -10 -37 -8 -57 5 -64 60 -71 81 -10 19 57 -46
117 -73 67z m45 -51 c0 -32 -4 -44 -15 -44 -16 0 -26 54 -16 82 12 30 31 6 31
-38z"/>
<path d="M3302 2228 c-17 -17 -15 -29 3 -22 12 5 15 -4 15 -45 0 -28 5 -51 10
-51 6 0 10 28 10 65 0 66 -10 81 -38 53z"/>
<path d="M3416 2218 c-9 -12 -16 -32 -16 -43 0 -29 28 -65 50 -65 38 0 55 83
24 114 -21 22 -40 20 -58 -6z m49 -43 c0 -29 -4 -41 -16 -43 -19 -4 -31 32
-22 66 10 40 38 23 38 -23z"/>
<path d="M3946 2224 c-34 -33 -13 -114 29 -114 44 0 63 81 27 113 -23 21 -36
21 -56 1z m50 -28 c8 -35 -4 -68 -24 -64 -17 3 -28 48 -18 74 9 23 35 16 42
-10z"/>
<path d="M3554 2208 c-17 -19 -17 -21 -1 -15 15 6 17 0 17 -43 0 -38 4 -50 15
-50 12 0 15 14 15 65 0 71 -12 82 -46 43z"/>
<path d="M3695 2216 c-19 -14 -26 -64 -12 -99 8 -21 50 -23 66 -3 19 22 9 86
-15 102 -17 12 -23 12 -39 0z m43 -47 c3 -38 -10 -65 -27 -55 -12 8 -15 78 -4
90 14 14 28 -2 31 -35z"/>
<path d="M3829 2209 l-24 -20 23 6 c21 6 22 3 22 -44 0 -28 5 -51 10 -51 6 0
10 28 10 65 0 36 -4 65 -9 65 -5 0 -19 -9 -32 -21z"/>
<path d="M5570 2222 c-22 -8 -30 -23 -30 -62 0 -42 14 -60 47 -60 16 0 27 8
34 27 19 52 -11 109 -51 95z m30 -56 c0 -46 -16 -69 -31 -45 -10 16 -12 73 -2
82 19 20 33 5 33 -37z"/>
<path d="M2292 2198 c-17 -17 -15 -33 3 -18 13 11 15 5 15 -44 0 -31 5 -56 10
-56 6 0 10 28 10 65 0 66 -10 81 -38 53z"/>
<path d="M2152 2188 c-15 -15 -16 -72 -2 -99 24 -43 74 -12 74 46 0 54 -41 84
-72 53z m46 -51 c3 -42 1 -47 -17 -47 -18 0 -21 6 -21 43 0 24 3 47 7 51 16
15 28 -3 31 -47z"/>
<path d="M2418 2175 c-18 -39 0 -99 31 -103 43 -6 67 59 41 109 -16 28 -58 25
-72 -6z m60 -44 c-2 -24 -8 -37 -20 -39 -23 -4 -34 41 -19 75 17 37 43 13 39
-36z"/>
<path d="M2564 2178 c-17 -19 -17 -21 -1 -15 15 6 17 0 17 -43 0 -38 4 -50 15
-50 12 0 15 14 15 65 0 71 -12 82 -46 43z"/>
<path d="M5916 2164 c-12 -12 -16 -30 -14 -63 3 -45 3 -46 38 -46 l35 0 0 49
c0 38 -4 51 -21 63 -19 12 -24 12 -38 -3z m39 -55 c0 -32 -4 -45 -16 -47 -20
-4 -31 42 -18 76 14 37 34 21 34 -29z"/>
<path d="M2034 2139 c-17 -20 -17 -22 -1 -16 15 6 17 0 17 -43 0 -51 14 -68
22 -27 8 40 3 100 -8 104 -6 2 -19 -6 -30 -18z"/>
<path d="M2696 2138 c-9 -12 -16 -32 -16 -43 0 -29 28 -65 50 -65 38 0 55 83
24 114 -21 22 -40 20 -58 -6z m49 -43 c0 -30 -4 -41 -17 -43 -15 -3 -18 4 -18
43 0 39 3 46 18 43 13 -2 17 -13 17 -43z"/>
<path d="M5156 2144 c-34 -33 -13 -114 29 -114 42 0 60 64 29 108 -18 26 -37
28 -58 6z m48 -27 c8 -34 -4 -68 -23 -65 -18 4 -25 29 -17 64 8 30 32 31 40 1z"/>
<path d="M1642 2118 c-13 -13 -16 -75 -6 -102 4 -9 18 -16 34 -16 30 0 40 15
40 61 0 58 -37 88 -68 57z m43 -59 c0 -32 -4 -44 -15 -44 -16 0 -26 54 -16 82
12 30 31 6 31 -38z"/>
<path d="M5034 2108 c-17 -19 -17 -21 -1 -15 15 6 17 0 17 -43 0 -38 4 -50 15
-50 12 0 15 14 15 65 0 71 -12 82 -46 43z"/>
<path d="M5292 2118 c-17 -17 -15 -29 3 -22 12 5 15 -4 15 -45 0 -28 5 -51 10
-51 6 0 10 28 10 65 0 66 -10 81 -38 53z"/>
<path d="M4902 2107 c-33 -40 -20 -117 21 -117 33 0 47 18 47 61 0 55 -41 89
-68 56z m46 -47 c1 -19 -2 -41 -7 -49 -15 -24 -31 -1 -31 45 0 38 3 45 18 42
12 -2 18 -14 20 -38z"/>
<path d="M5420 2094 c-21 -55 -4 -104 35 -104 42 0 60 64 29 108 -21 30 -52
28 -64 -4z m54 -10 c10 -26 7 -49 -9 -70 -13 -16 -16 -17 -25 -4 -11 17 -13
73 -3 83 11 12 31 7 37 -9z"/>
<path d="M5688 2109 c-22 -12 -24 -31 -3 -23 12 5 15 -4 15 -45 0 -28 5 -51
10 -51 6 0 10 28 10 65 0 67 -3 72 -32 54z"/>
<path d="M4782 2088 c-17 -17 -15 -29 3 -22 12 5 15 -4 15 -45 0 -28 5 -51 10
-51 6 0 10 28 10 65 0 66 -10 81 -38 53z"/>
<path d="M1900 2070 c-36 -36 -20 -110 23 -110 31 0 47 18 47 53 0 60 -37 90
-70 57z m46 -25 c8 -33 -3 -75 -20 -75 -17 0 -28 42 -20 75 3 14 12 25 20 25
7 0 16 -11 20 -25z"/>
<path d="M4376 2074 c-17 -16 -21 -80 -7 -102 5 -8 21 -12 37 -10 27 3 29 6
32 53 3 38 -1 52 -14 62 -23 17 -29 16 -48 -3z m39 -55 c0 -32 -4 -44 -15 -44
-16 0 -26 54 -16 82 12 30 31 6 31 -38z"/>
<path d="M4629 2069 c-38 -38 -18 -109 31 -109 34 0 46 28 36 84 -8 42 -39 53
-67 25z m46 -50 c0 -33 -4 -45 -17 -47 -21 -4 -34 49 -18 78 18 33 35 18 35
-31z"/>
<path d="M4510 2065 c-10 -12 -10 -15 4 -15 12 0 16 -10 16 -45 0 -25 5 -45
10 -45 6 0 10 27 10 60 0 62 -13 77 -40 45z"/>
<path d="M4240 2049 c-24 -20 -24 -20 -2 -14 21 6 22 3 22 -44 0 -28 5 -51 10
-51 6 0 10 28 10 65 0 36 -3 65 -7 65 -5 0 -19 -10 -33 -21z"/>
<path d="M2844 2044 c-19 -15 -18 -15 4 -11 20 5 22 2 22 -44 0 -27 5 -49 10
-49 6 0 10 27 10 60 0 64 -9 74 -46 44z"/>
<path d="M2982 2048 c-16 -16 -15 -80 1 -103 10 -13 21 -16 40 -11 25 6 27 11
27 54 0 50 -12 72 -40 72 -9 0 -21 -5 -28 -12z m48 -54 c0 -37 -3 -44 -20 -44
-17 0 -20 7 -20 44 0 26 5 46 13 49 21 8 27 -3 27 -49z"/>
<path d="M4090 2040 c-35 -35 -19 -110 24 -110 29 0 46 25 46 67 0 52 -38 75
-70 43z m44 -16 c11 -27 7 -61 -9 -74 -12 -10 -16 -8 -24 12 -11 30 -3 78 14
78 7 0 16 -7 19 -16z"/>
<path d="M1774 2034 c-18 -15 -18 -15 4 -9 21 6 22 3 22 -44 0 -28 5 -51 10
-51 6 0 10 27 10 60 0 64 -9 73 -46 44z"/>
<path d="M3142 2038 c-17 -17 -15 -33 3 -18 13 11 15 6 15 -39 0 -28 5 -51 10
-51 6 0 10 27 10 60 0 61 -11 75 -38 48z"/>
<path d="M1524 2018 c-17 -19 -17 -21 -1 -15 15 6 17 0 17 -43 0 -28 5 -50 10
-50 6 0 10 28 10 65 0 36 -4 65 -8 65 -5 0 -17 -10 -28 -22z"/>
<path d="M3292 2018 c-13 -13 -16 -75 -6 -102 4 -9 18 -16 34 -16 32 0 40 14
40 69 0 40 -14 61 -40 61 -9 0 -21 -5 -28 -12z m43 -58 c0 -33 -4 -45 -15 -45
-11 0 -16 13 -18 48 -3 42 -1 48 15 45 14 -3 18 -13 18 -48z"/>
<path d="M3430 2009 c-24 -20 -24 -21 -2 -16 20 5 22 2 22 -44 0 -27 5 -49 10
-49 6 0 10 28 10 65 0 36 -3 65 -7 65 -5 0 -19 -10 -33 -21z"/>
<path d="M3957 2012 c-21 -23 -22 -39 -2 -22 13 11 15 6 15 -39 0 -28 5 -51
10 -51 6 0 10 28 10 65 0 68 -6 77 -33 47z"/>
<path d="M2282 2008 c-13 -13 -16 -75 -6 -102 4 -9 18 -16 34 -16 32 0 40 14
40 69 0 40 -14 61 -40 61 -9 0 -21 -5 -28 -12z m46 -55 c-2 -35 -7 -48 -18
-48 -10 0 -16 12 -18 33 -4 43 3 62 23 62 13 0 15 -10 13 -47z"/>
<path d="M3544 1994 c-24 -37 -9 -98 25 -102 31 -5 51 21 51 64 0 34 -21 64
-45 64 -8 0 -22 -12 -31 -26z m50 -10 c11 -28 6 -61 -10 -75 -13 -10 -17 -10
-25 2 -18 29 -7 89 16 89 7 0 16 -7 19 -16z"/>
<path d="M3816 2004 c-34 -33 -13 -114 29 -114 42 0 60 64 29 108 -18 26 -37
28 -58 6z m52 -33 c5 -31 -6 -71 -18 -71 -17 0 -33 47 -26 75 8 33 40 30 44
-4z"/>
<path d="M2560 1990 c-36 -36 -20 -110 23 -110 31 0 47 18 47 53 0 60 -37 90
-70 57z m38 -12 c14 -14 16 -57 3 -77 -15 -23 -41 -5 -41 28 0 54 14 73 38 49z"/>
<path d="M3694 1989 c-19 -21 -19 -22 4 -15 21 7 22 4 22 -38 0 -25 5 -46 10
-46 6 0 10 27 10 60 0 66 -12 76 -46 39z"/>
<path d="M5568 1999 c-10 -5 -18 -15 -18 -21 0 -7 5 -6 15 2 13 11 15 6 15
-39 0 -28 5 -51 10 -51 6 0 10 27 10 60 0 62 -3 66 -32 49z"/>
<path d="M2162 1988 c-17 -17 -15 -29 3 -22 12 5 15 -3 15 -40 0 -25 5 -46 10
-46 6 0 10 27 10 60 0 61 -11 75 -38 48z"/>
<path d="M2438 1986 c-24 -18 -23 -25 2 -19 18 5 20 0 20 -41 0 -25 5 -46 10
-46 6 0 10 27 10 60 0 63 -8 72 -42 46z"/>
<path d="M2022 1948 c-15 -15 -16 -72 -2 -99 17 -31 56 -24 69 13 16 45 -2 98
-33 98 -12 0 -27 -5 -34 -12z m58 -52 c0 -31 -16 -50 -34 -43 -19 8 -22 67 -4
85 10 10 15 9 25 -5 7 -9 13 -26 13 -37z"/>
<path d="M2709 1939 l-24 -20 23 6 c21 6 22 3 22 -44 0 -28 5 -51 10 -51 6 0
10 28 10 65 0 36 -4 65 -9 65 -5 0 -19 -9 -32 -21z"/>
<path d="M5922 1948 c-17 -17 -15 -29 3 -22 12 5 15 -4 15 -45 0 -28 5 -51 10
-51 6 0 10 28 10 65 0 66 -10 81 -38 53z"/>
<path d="M5168 1929 c-22 -12 -24 -31 -3 -23 12 5 15 -3 15 -39 0 -25 5 -49
10 -52 6 -4 10 18 10 59 0 68 -3 73 -32 55z"/>
<path d="M1650 1908 c-24 -21 -24 -21 -2 -15 21 5 22 2 22 -44 0 -27 5 -49 10
-49 6 0 10 28 10 65 0 36 -3 65 -7 65 -5 -1 -19 -10 -33 -22z"/>
<path d="M5033 1913 c-18 -7 -26 -64 -14 -96 8 -19 17 -27 35 -27 33 0 50 32
42 78 -7 45 -28 60 -63 45z m45 -53 c3 -47 -11 -69 -32 -51 -28 23 -17 95 13
89 10 -2 17 -15 19 -38z"/>
<path d="M5282 1908 c-7 -7 -12 -31 -12 -55 0 -36 4 -45 25 -55 19 -8 28 -8
40 2 15 13 21 74 9 104 -7 19 -45 21 -62 4z m52 -53 c0 -40 -7 -50 -29 -42
-18 8 -21 67 -3 85 18 18 32 -2 32 -43z"/>
<path d="M5670 1891 c-25 -47 -5 -111 35 -111 28 0 45 26 45 68 0 51 -58 83
-80 43z m56 -25 c9 -37 1 -61 -21 -61 -15 0 -21 8 -23 28 -2 16 -1 35 2 43 9
23 35 16 42 -10z"/>
<path d="M4905 1883 c-20 -15 -20 -15 3 -10 20 5 22 2 22 -44 0 -27 5 -49 10
-49 6 0 10 27 10 60 0 64 -9 72 -45 43z"/>
<path d="M5435 1884 c-17 -13 -17 -15 -2 -10 15 5 17 -2 17 -44 0 -39 4 -50
15 -50 13 0 15 11 13 57 -3 61 -13 72 -43 47z"/>
<path d="M4771 1876 c-18 -21 -10 -97 12 -110 28 -18 52 4 55 53 3 46 -10 71
-38 71 -10 0 -23 -6 -29 -14z m49 -51 c0 -38 -3 -45 -20 -45 -17 0 -20 7 -20
45 0 38 3 45 20 45 17 0 20 -7 20 -45z"/>
<path d="M4507 1868 c-20 -11 -24 -97 -5 -116 30 -30 68 2 68 56 0 55 -27 81
-63 60z m38 -59 c0 -32 -4 -44 -15 -44 -16 0 -26 54 -16 82 12 30 31 6 31 -38z"/>
<path d="M1904 1849 c-17 -20 -17 -22 -1 -16 15 6 17 0 17 -43 0 -58 19 -69
22 -12 3 78 3 85 -8 89 -6 2 -19 -6 -30 -18z"/>
<path d="M4382 1858 c-17 -17 -15 -29 3 -22 12 5 15 -4 15 -45 0 -28 5 -51 10
-51 6 0 10 28 10 65 0 66 -10 81 -38 53z"/>
<path d="M4638 1856 c-24 -18 -23 -29 2 -21 18 6 20 2 20 -44 0 -28 5 -51 10
-51 6 0 10 28 10 65 0 68 -8 77 -42 51z"/>
<path d="M4230 1845 c-14 -16 -17 -85 -6 -104 9 -15 49 -14 64 1 15 15 16 72
2 99 -13 23 -43 25 -60 4z m45 -56 c0 -32 -4 -44 -15 -44 -16 0 -26 54 -16 82
12 30 31 6 31 -38z"/>
<path d="M1774 1836 c-11 -8 -16 -26 -16 -54 1 -54 7 -62 42 -62 34 0 46 28
36 84 -7 38 -34 52 -62 32z m41 -57 c0 -33 -4 -45 -17 -47 -21 -4 -34 49 -18
78 18 33 35 18 35 -31z"/>
<path d="M2832 1821 c-20 -57 17 -119 56 -95 21 13 29 89 11 110 -21 25 -56
17 -67 -15z m58 -36 c0 -38 -3 -45 -20 -45 -17 0 -20 7 -20 45 0 38 3 45 20
45 17 0 20 -7 20 -45z"/>
<path d="M2994 1828 c-17 -19 -17 -21 -1 -15 15 6 17 0 17 -43 0 -28 5 -50 10
-50 6 0 10 28 10 65 0 36 -4 65 -8 65 -5 0 -17 -10 -28 -22z"/>
<path d="M3140 1830 c-24 -24 -27 -82 -6 -100 24 -19 60 -8 70 21 21 61 -25
118 -64 79z m40 -21 c6 -11 8 -34 5 -50 -9 -42 -39 -35 -43 10 -6 58 16 82 38
40z"/>
<path d="M4096 1825 c-19 -15 -19 -15 2 -15 19 0 22 -5 22 -45 0 -25 5 -45 10
-45 6 0 10 27 10 60 0 64 -8 72 -44 45z"/>
<path d="M2290 1799 c-24 -20 -24 -20 -2 -14 21 6 22 3 22 -44 0 -28 5 -51 10
-51 6 0 10 28 10 65 0 36 -3 65 -7 65 -5 0 -19 -10 -33 -21z"/>
<path d="M3421 1801 c-36 -36 -20 -111 23 -111 49 0 63 88 19 117 -19 13 -24
12 -42 -6z m44 -50 c0 -49 -17 -64 -35 -31 -16 29 -3 82 18 78 13 -2 17 -14
17 -47z"/>
<path d="M3952 1804 c-25 -17 -30 -70 -9 -98 19 -26 59 -17 71 15 20 59 -20
112 -62 83z m43 -33 c7 -33 -10 -74 -28 -68 -13 4 -22 60 -13 83 9 24 34 15
41 -15z"/>
<path d="M2156 1794 c-19 -18 -21 -85 -4 -102 18 -18 58 -15 65 5 14 35 7 85
-12 99 -24 18 -30 18 -49 -2z m42 -51 c-2 -35 -7 -48 -18 -48 -10 0 -16 12
-18 33 -4 43 3 62 23 62 13 0 15 -10 13 -47z"/>
<path d="M2430 1790 c-36 -36 -20 -110 25 -110 32 0 49 33 41 78 -8 53 -33 65
-66 32z m45 -49 c0 -49 -17 -64 -35 -31 -16 29 -3 82 18 78 13 -2 17 -14 17
-47z"/>
<path d="M3298 1796 c-10 -7 -15 -16 -11 -19 3 -4 12 -2 20 4 11 9 13 2 13
-40 0 -28 5 -51 10 -51 6 0 10 27 10 60 0 63 -8 72 -42 46z"/>
<path d="M2559 1783 c-12 -15 -12 -16 4 -10 15 6 17 0 17 -43 0 -39 4 -50 16
-50 12 0 15 12 13 60 -2 49 -5 60 -19 60 -10 0 -24 -8 -31 -17z"/>
<path d="M3549 1783 c-12 -15 -12 -16 4 -10 15 6 17 0 17 -43 0 -38 4 -50 15
-50 12 0 15 13 15 60 0 52 -2 60 -19 60 -10 0 -25 -8 -32 -17z"/>
<path d="M3684 1789 c-11 -19 -8 -88 6 -104 29 -35 70 -3 70 54 0 20 -5 42
-12 49 -15 15 -55 16 -64 1z m52 -23 c9 -37 1 -70 -18 -74 -15 -3 -18 4 -18
41 0 24 3 47 7 50 12 13 23 7 29 -17z"/>
<path d="M3822 1788 c-16 -16 -15 -33 1 -19 20 16 27 4 27 -46 0 -23 5 -43 10
-43 6 0 10 27 10 60 0 51 -3 60 -18 60 -10 0 -23 -5 -30 -12z"/>
<path d="M5552 1788 c-7 -7 -12 -29 -12 -49 0 -57 41 -89 70 -54 14 16 17 85
6 104 -9 15 -49 14 -64 -1z m43 -49 c0 -32 -4 -44 -15 -44 -17 0 -25 35 -15
72 10 40 30 21 30 -28z"/>
<path d="M2708 1759 c-41 -23 -29 -119 16 -119 33 0 48 22 44 66 -3 43 -33 69
-60 53z m38 -34 c8 -34 -3 -75 -21 -75 -11 0 -15 12 -15 43 0 24 3 47 7 50 13
13 23 7 29 -18z"/>
<path d="M2038 1749 c-22 -12 -24 -31 -3 -23 12 5 15 -3 15 -40 0 -52 14 -61
24 -15 15 79 5 102 -36 78z"/>
<path d="M5912 1738 c-17 -17 -15 -93 3 -108 12 -10 21 -10 40 -2 21 10 25 19
25 55 0 45 -13 67 -40 67 -9 0 -21 -5 -28 -12z m46 -52 c-4 -50 -32 -64 -41
-19 -7 38 8 74 28 67 12 -5 15 -17 13 -48z"/>
<path d="M5151 1711 c-26 -48 4 -123 44 -107 47 18 42 118 -7 124 -18 2 -30
-3 -37 -17z m49 -12 c14 -25 3 -79 -16 -79 -17 0 -28 42 -20 75 8 30 22 32 36
4z"/>
<path d="M5042 1694 c-12 -8 -22 -20 -22 -26 0 -7 6 -6 15 2 13 11 15 6 15
-39 0 -39 4 -51 15 -51 12 0 15 14 15 65 0 36 -3 65 -8 65 -4 0 -18 -7 -30
-16z"/>
<path d="M5298 1696 c-22 -16 -23 -30 -3 -22 12 4 15 -4 15 -44 0 -28 5 -50
10 -50 6 0 10 28 10 65 0 68 -3 73 -32 51z"/>
<path d="M4908 1689 c-22 -12 -31 -59 -19 -92 14 -37 68 -39 77 -3 15 60 -19
117 -58 95z m38 -33 c9 -37 1 -70 -18 -74 -15 -3 -18 4 -18 41 0 24 3 47 7 50
12 13 23 7 29 -17z"/>
<path d="M5430 1680 c-39 -39 -19 -110 29 -110 31 0 41 14 41 56 0 57 -38 86
-70 54z m38 -12 c14 -14 16 -57 3 -77 -15 -23 -41 -5 -41 28 0 54 14 73 38 49z"/>
<path d="M5687 1682 c-21 -23 -22 -39 -2 -22 13 11 15 6 15 -39 0 -28 5 -51
10 -51 6 0 10 28 10 65 0 68 -6 77 -33 47z"/>
<path d="M4785 1660 c-17 -18 -17 -20 -2 -14 15 5 17 -1 17 -45 0 -28 5 -51
10 -51 6 0 10 28 10 65 0 36 -4 65 -8 65 -5 0 -17 -9 -27 -20z"/>
<path d="M1896 1644 c-33 -32 -12 -114 28 -114 45 0 64 81 28 113 -23 21 -36
21 -56 1z m50 -28 c8 -31 -3 -66 -21 -66 -8 0 -17 9 -20 21 -9 29 2 69 20 69
8 0 17 -11 21 -24z"/>
<path d="M4372 1648 c-15 -15 -16 -72 -2 -99 12 -21 40 -25 58 -7 16 16 16 90
0 106 -7 7 -19 12 -28 12 -9 0 -21 -5 -28 -12z m48 -53 c0 -38 -3 -45 -20 -45
-17 0 -20 7 -20 45 0 38 3 45 20 45 17 0 20 -7 20 -45z"/>
<path d="M4510 1639 c-24 -20 -24 -20 -2 -14 21 6 22 3 22 -44 0 -28 5 -51 10
-51 6 0 10 28 10 65 0 36 -3 65 -7 65 -5 0 -19 -10 -33 -21z"/>
<path d="M4620 1641 c-14 -28 -12 -63 6 -89 41 -59 99 22 64 89 -6 11 -21 19
-35 19 -14 0 -29 -8 -35 -19z m55 -42 c0 -33 -4 -45 -17 -47 -23 -4 -34 41
-19 75 17 37 36 23 36 -28z"/>
<path d="M1778 1616 c-24 -18 -23 -29 2 -21 18 6 20 2 20 -44 0 -28 5 -51 10
-51 6 0 10 28 10 65 0 68 -8 77 -42 51z"/>
<path d="M2281 1606 c-18 -21 -10 -97 12 -110 28 -18 52 4 55 53 3 46 -10 71
-38 71 -10 0 -23 -6 -29 -14z m49 -52 c0 -37 -3 -44 -20 -44 -17 0 -20 7 -20
44 0 26 5 46 13 49 21 8 27 -3 27 -49z"/>
<path d="M2164 1588 c-17 -19 -17 -21 -1 -15 15 6 17 0 17 -43 0 -28 5 -50 10
-50 6 0 10 28 10 65 0 36 -4 65 -8 65 -5 0 -17 -10 -28 -22z"/>
<path d="M2556 1588 c-31 -44 -13 -108 29 -108 42 0 60 64 29 108 -8 12 -21
22 -29 22 -8 0 -21 -10 -29 -22z m48 -14 c10 -26 7 -49 -9 -70 -13 -16 -16
-17 -25 -4 -11 17 -13 73 -3 83 11 12 31 7 37 -9z"/>
<path d="M5568 1576 c-22 -16 -23 -27 -3 -20 12 5 15 -4 15 -45 0 -28 5 -51
10 -51 6 0 10 28 10 65 0 68 -3 73 -32 51z"/>
<path d="M2040 1562 c-22 -8 -30 -23 -30 -63 0 -41 18 -62 51 -57 40 6 48 97
10 117 -9 5 -23 6 -31 3z m34 -28 c10 -26 7 -49 -9 -70 -13 -16 -16 -17 -25
-4 -11 17 -13 73 -3 83 11 12 31 7 37 -9z"/>
<path d="M2848 1559 c-22 -12 -24 -31 -3 -23 12 5 15 -4 15 -45 0 -28 5 -51
10 -51 6 0 10 28 10 65 0 67 -3 72 -32 54z"/>
<path d="M2704 1544 c-19 -15 -18 -15 4 -11 20 5 22 2 22 -44 0 -27 5 -49 10
-49 6 0 10 27 10 60 0 64 -9 74 -46 44z"/>
<path d="M5914 1519 c-19 -21 -19 -22 4 -15 21 7 22 5 22 -43 0 -28 5 -51 10
-51 6 0 10 28 10 65 0 71 -12 82 -46 44z"/>
<path d="M5165 1500 c-17 -18 -17 -20 -2 -14 15 5 17 -1 17 -45 0 -28 5 -51
10 -51 6 0 10 28 10 65 0 36 -4 65 -8 65 -5 0 -17 -9 -27 -20z"/>
<path d="M1651 1481 c-26 -48 4 -123 44 -107 47 18 42 118 -7 124 -18 2 -30
-3 -37 -17z m49 -17 c12 -31 3 -74 -16 -74 -17 0 -28 42 -20 75 8 32 24 32 36
-1z"/>
<path d="M5038 1489 c-22 -12 -31 -59 -18 -93 14 -37 60 -34 74 5 18 53 -18
110 -56 88z m40 -38 c5 -35 -7 -71 -23 -71 -18 0 -29 41 -21 76 8 32 40 29 44
-5z"/>
<path d="M5688 1483 c-23 -6 -34 -66 -19 -99 15 -35 62 -30 75 7 18 52 -13
102 -56 92z m36 -29 c11 -28 6 -61 -10 -75 -13 -10 -17 -10 -25 2 -10 16 -12
73 -2 82 11 12 31 7 37 -9z"/>
<path d="M4909 1459 l-24 -20 23 6 c21 6 22 3 22 -44 0 -28 5 -51 10 -51 6 0
10 28 10 65 0 36 -4 65 -9 65 -5 0 -19 -9 -32 -21z"/>
<path d="M5434 1458 c-17 -19 -17 -21 -1 -15 15 6 17 0 17 -44 0 -36 4 -49 13
-46 7 2 12 23 13 53 0 79 -9 90 -42 52z"/>
<path d="M1904 1428 c-17 -19 -17 -21 -1 -15 15 6 17 0 17 -43 0 -28 4 -50 9
-50 10 0 20 85 13 113 -6 23 -15 22 -38 -5z"/>
<path d="M4634 1429 c-19 -21 -19 -22 4 -15 21 7 22 5 22 -43 0 -28 5 -51 10
-51 6 0 10 28 10 65 0 71 -12 82 -46 44z"/>
<path d="M1770 1405 c-13 -15 -16 -87 -5 -105 11 -17 54 -11 65 9 33 63 -18
146 -60 96z m45 -50 c0 -45 -28 -63 -40 -25 -10 33 3 72 23 68 13 -2 17 -13
17 -43z"/>
<path d="M5552 1368 c-15 -15 -16 -72 -2 -99 24 -43 74 -12 74 46 0 54 -41 84
-72 53z m48 -54 c0 -38 -3 -45 -17 -42 -22 4 -30 62 -13 84 19 22 30 7 30 -42z"/>
<path d="M2702 1358 c-31 -40 -23 -105 14 -114 34 -9 54 12 54 57 0 54 -41 89
-68 57z m46 -48 c1 -19 -2 -41 -7 -49 -15 -24 -31 -1 -31 45 0 38 3 45 18 42
12 -2 18 -14 20 -38z"/>
<path d="M2831 1346 c-18 -21 -10 -97 12 -110 28 -18 52 4 55 53 3 46 -10 71
-38 71 -10 0 -23 -6 -29 -14z m47 -49 c3 -42 1 -47 -17 -47 -18 0 -21 6 -21
43 0 24 3 47 7 51 16 15 28 -3 31 -47z"/>
<path d="M1540 1285 c-6 -8 -12 -30 -12 -50 0 -40 16 -65 41 -65 28 0 41 21
41 65 0 59 -39 87 -70 50z m50 -51 c0 -37 -3 -44 -20 -44 -17 0 -20 7 -20 43
0 48 5 58 26 50 9 -3 14 -21 14 -49z"/>
<path d="M1668 1286 c-22 -16 -23 -27 -3 -20 12 5 15 -4 15 -45 0 -28 5 -51
10 -51 6 0 10 28 10 65 0 68 -3 73 -32 51z"/>
<path d="M2940 1278 c-24 -21 -24 -21 -2 -15 21 5 22 2 22 -44 0 -27 5 -49 10
-49 6 0 10 28 10 65 0 36 -3 65 -7 65 -5 -1 -19 -10 -33 -22z"/>
<path d="M5038 1266 c-22 -16 -23 -27 -3 -20 12 5 15 -3 15 -40 0 -34 4 -46
15 -46 12 0 15 13 15 60 0 63 -8 72 -42 46z"/>
<path d="M4902 1257 c-21 -25 -25 -66 -8 -92 32 -48 76 -22 76 44 0 47 -43 78
-68 48z m43 -52 c0 -30 -4 -41 -17 -43 -15 -3 -18 4 -18 43 0 39 3 46 18 43
13 -2 17 -13 17 -43z"/>
<path d="M5688 1259 c-10 -5 -18 -15 -18 -21 0 -7 5 -6 15 2 13 11 15 6 15
-40 0 -37 4 -50 13 -47 10 3 13 32 8 105 -1 14 -10 15 -33 1z"/>
<path d="M1780 1189 c-24 -20 -24 -20 -2 -14 21 6 22 3 22 -44 0 -28 5 -51 10
-51 6 0 10 28 10 65 0 36 -3 65 -7 65 -5 0 -19 -10 -33 -21z"/>
<path d="M2839 1129 l-24 -20 23 6 c21 6 22 3 22 -44 0 -28 5 -51 10 -51 6 0
10 28 10 65 0 36 -4 65 -9 65 -5 0 -19 -9 -32 -21z"/>
<path d="M4742 1108 c-7 -7 -12 -31 -12 -55 0 -36 4 -45 25 -55 35 -16 55 4
55 56 0 44 -13 66 -40 66 -9 0 -21 -5 -28 -12z m48 -54 c0 -38 -3 -45 -17 -42
-32 6 -30 88 2 88 11 0 15 -11 15 -46z"/>
<path d="M1662 1094 c-25 -17 -30 -70 -9 -98 19 -26 59 -17 71 15 20 59 -20
112 -62 83z m43 -33 c6 -30 -8 -71 -25 -71 -14 0 -23 46 -16 75 9 34 33 32 41
-4z"/>
<path d="M2938 1079 c-18 -10 -25 -70 -12 -103 7 -19 45 -21 62 -4 17 17 15
84 -4 102 -18 19 -23 19 -46 5z m37 -60 c0 -32 -4 -44 -15 -44 -16 0 -26 54
-16 82 12 30 31 6 31 -38z"/>
<path d="M5679 1049 c-35 -35 -16 -118 28 -119 21 0 43 31 43 61 0 63 -37 92
-71 58z m47 -24 c9 -38 -3 -77 -24 -73 -19 4 -27 37 -18 74 8 31 34 31 42 -1z"/>
<path d="M4910 1039 c-24 -20 -24 -21 -2 -16 20 5 22 2 22 -44 0 -27 5 -49 10
-49 6 0 10 28 10 65 0 36 -3 65 -7 65 -5 0 -19 -10 -33 -21z"/>
<path d="M1771 986 c-7 -8 -11 -36 -9 -63 3 -42 6 -48 27 -51 30 -5 51 20 51
61 0 57 -40 88 -69 53z m44 -55 c0 -49 -17 -64 -35 -31 -16 29 -3 82 18 78 13
-2 17 -14 17 -47z"/>
<path d="M5798 936 c-22 -16 -23 -27 -3 -20 12 5 15 -4 15 -45 0 -28 5 -51 10
-51 6 0 10 28 10 65 0 68 -3 73 -32 51z"/>
<path d="M4758 926 c-22 -16 -23 -30 -3 -22 12 4 15 -4 15 -44 0 -28 5 -50 10
-50 6 0 10 28 10 65 0 68 -3 73 -32 51z"/>
<path d="M4604 879 c-19 -21 -19 -22 4 -15 21 7 22 5 22 -43 0 -28 5 -51 10
-51 6 0 10 28 10 65 0 71 -12 82 -46 44z"/>
<path d="M1894 868 c-17 -19 -17 -21 -1 -15 15 6 17 0 17 -43 0 -28 5 -50 10
-50 6 0 10 28 10 65 0 36 -4 65 -8 65 -5 0 -17 -10 -28 -22z"/>
<path d="M2948 856 c-22 -16 -23 -27 -3 -20 12 5 15 -4 15 -45 0 -28 5 -51 10
-51 6 0 10 28 10 65 0 68 -3 73 -32 51z"/>
<path d="M3041 846 c-7 -8 -11 -34 -9 -57 3 -49 27 -71 56 -53 21 13 29 89 11
110 -15 18 -43 18 -58 0z m47 -48 c-2 -31 -8 -44 -20 -46 -15 -3 -18 4 -18 42
0 40 3 46 21 46 18 0 20 -5 17 -42z"/>
<path d="M5684 828 c-17 -19 -17 -21 -1 -15 15 6 17 0 17 -43 0 -47 11 -63 25
-40 8 13 -5 120 -15 120 -4 0 -15 -10 -26 -22z"/>
<path d="M2000 791 c-15 -29 -12 -77 6 -95 29 -30 56 -16 69 37 14 55 -50 104
-75 58z m49 -14 c13 -35 2 -77 -20 -77 -16 0 -19 8 -19 43 0 24 3 47 7 50 12
13 23 7 32 -16z"/>
<path d="M5782 728 c-13 -13 -16 -75 -6 -102 4 -9 18 -16 34 -16 30 0 40 15
40 61 0 58 -37 88 -68 57z m46 -55 c-2 -35 -7 -48 -18 -48 -10 0 -16 12 -18
33 -4 43 3 62 23 62 13 0 15 -10 13 -47z"/>
<path d="M4601 706 c-18 -21 -10 -97 12 -110 26 -17 51 4 55 47 5 63 -35 101
-67 63z m44 -55 c0 -51 -20 -66 -35 -26 -13 35 -3 77 19 73 12 -2 16 -15 16
-47z"/>
<path d="M2128 686 c-24 -18 -23 -25 2 -19 18 5 20 0 20 -46 0 -32 4 -50 10
-46 11 7 14 84 4 109 -7 19 -14 20 -36 2z"/>
<path d="M3050 628 c-24 -21 -24 -21 -2 -15 21 5 22 2 22 -44 0 -27 5 -49 10
-49 6 0 10 28 10 65 0 36 -3 65 -7 65 -5 -1 -19 -10 -33 -22z"/>
<path d="M4462 638 c-17 -17 -15 -29 3 -22 12 5 15 -3 15 -40 0 -25 5 -46 10
-46 6 0 10 27 10 60 0 61 -11 75 -38 48z"/>
<path d="M5682 632 c-18 -12 -26 -75 -13 -101 7 -12 21 -21 36 -21 42 0 60 64
29 108 -16 23 -31 27 -52 14z m42 -28 c11 -28 6 -61 -10 -75 -13 -10 -17 -10
-25 2 -10 16 -12 73 -2 82 11 12 31 7 37 -9z"/>
<path d="M2231 596 c-18 -21 -10 -97 12 -110 28 -18 52 4 55 53 3 46 -10 71
-38 71 -10 0 -23 -6 -29 -14z m49 -51 c0 -28 -5 -45 -14 -48 -21 -8 -26 2 -26
48 0 46 5 56 26 48 9 -3 14 -20 14 -48z"/>
<path d="M4333 529 c-19 -7 -23 -16 -23 -52 0 -48 13 -67 46 -67 26 0 34 17
34 70 0 45 -21 63 -57 49z m35 -56 c-2 -35 -7 -48 -18 -48 -10 0 -16 12 -18
33 -4 43 3 62 23 62 13 0 15 -10 13 -47z"/>
<path d="M5788 506 c-10 -7 -15 -16 -11 -19 3 -4 12 -2 20 4 11 9 13 2 13 -40
0 -28 5 -51 10 -51 6 0 10 27 10 60 0 63 -8 72 -42 46z"/>
<path d="M2939 429 l-24 -20 23 6 c21 6 22 3 22 -44 0 -28 5 -51 10 -51 6 0
10 28 10 65 0 36 -4 65 -9 65 -5 0 -19 -9 -32 -21z"/>
<path d="M4199 430 c-22 -19 -22 -20 -4 -18 17 3 20 -4 23 -44 5 -72 22 -58
22 17 0 36 -4 65 -9 65 -5 0 -19 -9 -32 -20z"/>
<path d="M3041 426 c-18 -21 -10 -97 12 -110 28 -18 52 4 55 51 4 59 -37 95
-67 59z m44 -56 c0 -33 -4 -45 -15 -45 -11 0 -16 13 -18 48 -3 42 -1 48 15 45
14 -3 18 -13 18 -48z"/>
<path d="M5692 414 c-12 -8 -22 -20 -22 -26 0 -7 6 -6 15 2 13 11 15 6 15 -39
0 -28 5 -51 10 -51 6 0 10 28 10 65 0 36 -1 65 -3 65 -1 0 -13 -7 -25 -16z"/>
</g>
</svg>
